<svg width="94" height="19" xmlns="http://www.w3.org/2000/svg" xmlns:xlink="http://www.w3.org/1999/xlink"><use xlink:href="#path0_fill" transform="translate(0 -6)" fill="#4D4D4D"/><defs><path id="path0_fill" d="M7.176 21c-1.728 0-2.88-1.248-2.88-3.024 0-1.752 1.152-3.024 2.88-3.024 1.224 0 2.208.672 2.544 2.136l3.6-.864c-.672-2.832-3.216-4.632-6.144-4.632-3.6 0-6.576 2.592-6.576 6.384 0 3.816 2.976 6.384 6.576 6.384 3 0 5.544-1.848 6.144-4.704l-3.528-.768C9.384 20.352 8.4 21 7.176 21zm15.698-9.408c-1.536 0-2.784.552-3.72 1.512V6.72h-3.84V24h3.84v-5.592c0-2.328.984-3.36 2.472-3.36 1.248 0 2.088.96 2.088 2.376V24h3.816v-7.392c0-3.024-1.872-5.016-4.656-5.016zm19.971.36h-3.84v.96c-.936-.84-2.184-1.32-3.744-1.32-3.192 0-5.88 2.592-5.88 6.384 0 3.816 2.688 6.384 5.88 6.384 1.56 0 2.808-.48 3.744-1.32V24h3.84V11.952zm-6.792 9.144c-1.68 0-2.904-1.248-2.904-3.12 0-1.848 1.224-3.12 2.904-3.12 1.56 0 2.952 1.272 2.952 3.12 0 1.872-1.392 3.12-2.952 3.12zm17.558-9.312c-1.968 0-3.288 1.032-4.152 2.472v-2.304h-3.84V24h3.84v-3.768c0-3.12 1.464-4.512 4.152-4.512h.696l.168-3.84a3.288 3.288 0 0 0-.864-.096zm4.596-5.568A2.167 2.167 0 0 0 56 8.4c0 1.224.912 2.136 2.208 2.136 1.296 0 2.232-.912 2.232-2.136 0-1.176-.936-2.184-2.232-2.184zM60.127 24V11.952h-3.84V24h3.84zm2.16-3.144c.408 2.472 2.832 3.504 5.664 3.504 3.168 0 5.472-1.392 5.472-4.056 0-1.776-1.056-3.144-3.336-3.624l-2.832-.576c-.768-.168-.912-.504-.912-.84 0-.432.336-.936 1.368-.936 1.176 0 1.896.672 2.016 1.416l3.504-.696c-.48-2.088-2.472-3.456-5.472-3.456-3.048 0-5.184 1.608-5.184 4.08 0 1.896 1.272 3.096 3.504 3.504l2.448.48c.888.168 1.2.48 1.2.888 0 .528-.552.96-1.56.96-1.032 0-1.968-.384-2.136-1.416l-3.744.768zm18.977-9.216c-3.648 0-6.672 2.544-6.672 6.336 0 3.816 3.024 6.36 6.672 6.36 3.576 0 6.6-2.544 6.6-6.36 0-3.792-3.024-6.336-6.6-6.336zm0 9.456c-1.56 0-2.976-1.224-2.976-3.12 0-1.872 1.416-3.12 2.976-3.12 1.488 0 2.904 1.248 2.904 3.12 0 1.896-1.416 3.12-2.904 3.12zM93.685 24V6.72h-3.84V24h3.84z"/></defs></svg>