<svg id="Layer_1" xmlns="http://www.w3.org/2000/svg" xmlns:xlink="http://www.w3.org/1999/xlink" viewBox="0 0 800 800"><style>.st3{opacity:.25}</style><g id="XMLID_9_" opacity=".9"><g id="XMLID_27_"><g id="XMLID_26_"><linearGradient id="XMLID_20_" gradientUnits="userSpaceOnUse" x1="152.448" y1="462.528" x2="717.429" y2="462.528" gradientTransform="scale(1 -1) rotate(6.01 7994.428 21.74)"><stop offset="0" stop-color="#8e44ad"/><stop offset=".993" stop-color="#bf4571"/></linearGradient><path id="XMLID_6_" d="M190.9 490c-18.9 31.3-30.4 74.6-19.3 6 14.3-87.8-1.7-172 187.1-251.4 236.7-99.5 327.9-165.5 342.2-40.8 27.7 238.8-57.6 149.9-259.5 150.6-124.1.7-205.6 60.5-250.5 135.6z" opacity=".85" fill="url(#XMLID_20_)"/><linearGradient id="XMLID_21_" gradientUnits="userSpaceOnUse" x1="152.855" y1="328.246" x2="429.447" y2="328.246" gradientTransform="scale(1 -1) rotate(6.01 7994.428 21.74)"><stop offset="0" stop-color="#8e44ad"/><stop offset=".993" stop-color="#bf4571"/></linearGradient><path id="XMLID_11_" d="M193.5 536.8c-13.2 7-38.1 32.8-13-8.7 15.9-26.2 22.8-31.1 101.4-72.1 129.7-67.8 167.2-51.7 150.6 9.8-20.4 75.5-41.7 54.2-127.6 42.7-52.3-7.1-78.2 10.6-111.4 28.3z" opacity=".85" fill="url(#XMLID_21_)"/><g id="XMLID_23_" class="st3"><image width="308" height="235" id="XMLID_60_" xlink:href="1C00E7A6.png" transform="translate(144.233 117.807) scale(1.8876)" overflow="visible" opacity=".1"/><g id="XMLID_44_"><linearGradient id="XMLID_29_" gradientUnits="userSpaceOnUse" x1="151.316" y1="462.756" x2="716.177" y2="462.756" gradientTransform="scale(1 -1) rotate(6.01 7994.428 21.74)"><stop offset="0" stop-color="#8e44ad"/><stop offset=".993" stop-color="#bf4571"/></linearGradient><path id="XMLID_59_" d="M182.6 495.5c-11.9 32.7-23 65.5-11.9-3 14.3-87.8 1.1-171.8 190.1-250.9 248.2-104 325-157.8 338.8-38.9 14.7 126.3-182.2 79.7-253.5 87.4-123.3 13.8-222.8 93.9-263.5 205.4z" fill="url(#XMLID_29_)"/></g></g><g id="XMLID_24_" class="st3"><image width="184" height="117" id="XMLID_58_" xlink:href="1C00E7AA.png" transform="translate(129.132 378.293) scale(1.8876)" overflow="visible" opacity=".52"/><g id="XMLID_45_"><linearGradient id="XMLID_30_" gradientUnits="userSpaceOnUse" x1="153.24" y1="328.321" x2="429.378" y2="328.321" gradientTransform="scale(1 -1) rotate(6.01 7994.428 21.74)"><stop offset="0" stop-color="#8e44ad"/><stop offset=".993" stop-color="#bf4571"/></linearGradient><path id="XMLID_57_" d="M193.3 530.8c-11.7 8.9-37.6 42.3-12.8-2.6 14.9-26.8 22.8-31.1 101.4-72.1 129.7-67.8 167.1-51.7 150.6 9.8-8.7 32.3-26.6 17.7-112.5 6.2-52.3-7.2-97.1 35.9-126.7 58.7z" fill="url(#XMLID_30_)"/></g></g><g id="XMLID_28_"><linearGradient id="XMLID_31_" gradientUnits="userSpaceOnUse" x1="159.486" y1="264.478" x2="316.971" y2="264.478" gradientTransform="scale(1 -1) rotate(6.01 7994.428 21.74)"><stop offset="0" stop-color="#8e44ad"/><stop offset=".993" stop-color="#bf4571"/></linearGradient><path id="XMLID_22_" d="M191.8 556.3c-7.9 2.1-24.3 12.6-5.9-6.2 11.7-11.9 16-13.6 62.7-25.3 77.2-19.4 94.9-6.2 78.3 24.2-20.4 37.4-28.9 23.4-72.9 6.4-26.5-10.2-42.6-4.2-62.2.9z" opacity=".85" fill="url(#XMLID_31_)"/><g id="XMLID_25_" class="st3"><image width="96" height="37" id="XMLID_56_" xlink:href="1C00E7AD.png" transform="translate(164.996 504.76) scale(1.8876)" overflow="visible" opacity=".3"/><g id="XMLID_43_"><linearGradient id="XMLID_32_" gradientUnits="userSpaceOnUse" x1="158.755" y1="271.401" x2="317.652" y2="271.401" gradientTransform="scale(1 -1) rotate(6.01 7994.428 21.74)"><stop offset="0" stop-color="#8e44ad"/><stop offset=".993" stop-color="#bf4571"/></linearGradient><path id="XMLID_55_" d="M191 556.1c-7.9 2.1-24.3 12.6-5.9-6.2 11.7-11.9 16-13.6 62.7-25.3 77.2-19.4 98.5-4 78.3 24.2-13.6 18.9-29.3 4.5-73-12.5-26.6-10.2-42.2 14.7-62.1 19.8z" fill="url(#XMLID_32_)"/></g></g></g></g></g><g id="XMLID_390_" opacity=".85"><image width="62" height="80" id="XMLID_50_" xlink:href="1C00E7AE.png" transform="translate(74.393 531.187) scale(1.8876)" overflow="visible" opacity=".1"/><g id="XMLID_38_"><linearGradient id="XMLID_41_" gradientUnits="userSpaceOnUse" x1="99.042" y1="178.848" x2="205.976" y2="178.848" gradientTransform="scale(1 -1) rotate(-6.436 -6812.176 -13.401)"><stop offset="0" stop-color="#8e44ad"/><stop offset=".993" stop-color="#bf4571"/></linearGradient><path id="XMLID_49_" d="M162.4 634.1c14.5-54.2-45.9-53.4-69.7-54.2-5.1-.2-15.7.6-13.4-1.7 3.2-3 5.9-3 6-18.1.4-26.2 26.4-24.7 30.4-25.1 14-.9 71.9 8.7 66.6 75.7-.9 12.1.2 9.8-4.7 25.1-19.6 61.2-36.2 28.9-34.5 25.3 1.7-2.9 12.6-1.9 19.3-27z" fill="url(#XMLID_41_)"/></g></g><linearGradient id="XMLID_46_" gradientUnits="userSpaceOnUse" x1="156.002" y1="128.337" x2="179.506" y2="128.337" gradientTransform="scale(1 -1) rotate(-6.638 -6597.998 -14.52)"><stop offset="0" stop-color="#8e44ad"/><stop offset=".993" stop-color="#bf4571"/></linearGradient><path id="XMLID_13_" d="M150.5 653.5c4.7-.9-23.8 7.2-23.2.4.3-4.7 9.8 2.4 23.2-.4z" opacity=".85" fill="url(#XMLID_46_)"/><linearGradient id="XMLID_47_" gradientUnits="userSpaceOnUse" x1="155.617" y1="136.786" x2="178.2" y2="136.786" gradientTransform="scale(1 -1) rotate(-6.638 -6597.998 -14.52)"><stop offset="0" stop-color="#8e44ad"/><stop offset=".993" stop-color="#bf4571"/></linearGradient><path id="XMLID_12_" d="M149.3 652c4.5 1.3-24.2-4.5-20.8-10.6 2.3-4.1 7.8 6.8 20.8 10.6z" opacity=".85" fill="url(#XMLID_47_)"/><g id="XMLID_14_" class="st3"><image width="62" height="79" id="XMLID_54_" xlink:href="1C00E7AC.png" transform="translate(74.393 531.187) scale(1.8876)" overflow="visible" opacity=".23"/><g id="XMLID_42_"><linearGradient id="XMLID_48_" gradientUnits="userSpaceOnUse" x1="98.811" y1="179.179" x2="205.567" y2="179.179" gradientTransform="scale(1 -1) rotate(-6.436 -6812.176 -13.401)"><stop offset="0" stop-color="#8e44ad"/><stop offset=".993" stop-color="#bf4571"/></linearGradient><path id="XMLID_53_" d="M171 625.2c20.4-69.1-33.8-70.4-67.2-62.9-7.9 1.9-27 17.9-24.7 15.7 3.2-3 5.9-3 6-18.1.4-26.2 26.4-24.7 30.4-25.1 14-.9 71.9 8.7 66.6 75.7-.9 12.1 0 9.6-4.7 25.1-17 56.2-35.3 31.7-31.9 29.1 22.9-17.6 20.8-23.1 25.5-39.5z" fill="url(#XMLID_48_)"/></g></g></g></svg>