<svg id="Layer_1" xmlns="http://www.w3.org/2000/svg" xmlns:xlink="http://www.w3.org/1999/xlink" viewBox="0 0 960 560"><style>.st0{fill:#1e1e1e}.st4{opacity:.25}</style><g id="XMLID_444_"><g id="XMLID_31_"><path id="XMLID_32_" class="st0" d="M20 455.6c-7.1-6.5-10.7-15.9-10.7-28.2 0-6.6 1.4-12.9 4.3-18.8s7.2-10.7 12.8-14.3c5.6-3.6 12.4-5.5 20.3-5.5 5.8 0 10.8.6 15.2 1.7 2.6.7 5.1 1.6 7.4 2.6 2.6 1.2 4.1 4 3.7 6.8-.4 3.1-.7 6.7-.8 10.7-.1 3.2-2.5 5.9-5.6 6.4h-.1c-3.6.6-7-1.9-7.7-5.5-.6-3.3-1.7-5.9-3.1-8-2.2-3.3-5.2-4.9-8.8-4.9-4.4 0-7.8 2.4-10.3 7.2-2.5 4.8-3.7 11.2-3.7 19.4 0 7.6 1.8 14.2 5.5 19.7s9.1 8.3 16.1 8.3c6.9 0 12.5-2.1 16.9-6.3.8.7 1.4 1.4 2 2.3 1.8 2.7 1.2 6.5-1.3 8.7-2.3 1.9-5 3.5-8.1 4.8-4.7 1.9-10 2.8-16 2.8-11.6-.2-20.9-3.4-28-9.9z"/><path id="XMLID_386_" class="st0" d="M175.7 454.5c1.9 4.7-2.1 9.8-7.2 9.6-5.1-.1-8.9-.2-11.7-.2-8.9 0-15.8.1-20.7.4-1.3.1-2.4-1-2.3-2.3.1-2.4.4-4.4.8-6.1.2-.9 1.1-1.4 2-1.6 2.3-.3 4.6-1.4 5.8-3.3 1.5-2.2 2.7-6.2 2.7-11.7v-16.9c0-6.4-1.5-11-3.5-13.8-2-2.8-5.3-4.2-9.2-4.2-4.3 0-8.3 2.3-11.4 6.8-3.1 4.6-4.9 10.8-4.9 18.9v10.3c0 5.4.9 9 2.3 11s3.8 3 7 3c.6 1.4 1.1 2.8 1.3 4.3.2 1.5.3 3.4.3 5.6-4.6-.3-12-.5-22.2-.5-9.3 0-16.3.1-21.2.3-1.3.1-2.4-1-2.3-2.3.1-2.4.3-4.3.7-5.8.2-1 1.1-1.7 2.1-1.7 3.3-.2 5.1-1.2 6.3-2.8 1.4-1.9 1.7-5.6 1.7-11.1v-65.7c0-4-.3-6.8-1.8-8.4-1.3-1.4-3.5-2.3-7.1-2.7-1.2-.1-2.1-1.1-2-2.4.1-2.4.6-4.3 1.2-6 .3-.8 1.2-1.3 2-1.3 4.8-.1 9.9-.6 15.1-1.7 3.1-.6 5.5-1.2 7.6-1.9 4.4-1.4 9 1.8 9 6.4v40.9c0 2.4-.3 5.6-1.4 9.6.2-.3.8-1.4 1.6-3.1.8-1.8 1.9-3.3 3-4.7 2.6-2.8 5.8-5.1 9.7-7 3.9-1.9 8.2-2.8 12.9-2.8 7.4 0 13.2 2.1 18.1 6.4 4.9 4.3 7 10.9 7 19.8v24.6c0 5.2.9 8.9 2.1 10.9 1.2 2 3.4 3.1 6.4 3.1 0 0 .1.1.2.1z"/><path id="XMLID_391_" class="st0" d="M266.3 452.8c0 2.6-.5 5-1.4 7.2-8.8.3-16.8 2.1-23.9 5.3-1.8-.7-3.1-1.8-3.9-3.3-.8-1.4-1.2-3.5-1.2-6 0-1.1.2-3.1.6-6.1-1.7 4-4 7.1-6.7 9.3-4.5 3.9-10.8 5.8-18.8 5.8-7.3 0-12.9-1.6-16.9-4.7-4-3.1-5.9-7.6-5.9-13.3 0-9.1 4.3-15.6 12.9-19.5 7-3.2 15.4-5.7 25.3-7.5 4.3-.8 7.2-4.9 6.8-9.2-.1-1-.2-1.9-.4-2.6-.5-2.4-1.4-4.4-2.8-6-2.4-2.7-5.4-4-9-4-4.1 0-7.1 1.7-9.1 5.1-1.1 1.9-1.9 4-2.6 6.4-1 3.7-5 6.5-8.8 6.2h-.1c-2.1-.2-4-.6-5.7-1.3.2-2.8.3-5 .3-6.7 0-2.2-.1-4.2-.3-6.2-.4-3.9 1.9-7.6 5.6-8.8 2.8-.9 5.9-1.7 9.1-2.3 5.8-1.2 11.4-1.8 16.6-1.8 10.9 0 18.9 2.5 23.8 7.4 2.4 2.4 4.2 5.6 5.4 9.7 1.2 4.1 1.9 9.8 1.9 17v13.8c0 3.6.1 6.3.5 8.1.4 1.8 1.2 3 2.5 3.8 1.3.8 3.3 1.2 6.1 1.3 0 .5.1 1.5.1 2.9zM235 427.6c-7 1.3-13.6 3-17.2 5.1-3.6 2.1-5.9 5.5-5.9 10 0 2.9.5 5.1 2 6.5 1.4 1.4 3.1 2.2 5.3 2.2 2.4 0 4.6-.7 6.8-2.2 2.2-1.5 4.8-3.7 6.2-6.7 1.4-2.9 2.9-6.5 2.9-10.7v-4.2z"/><path id="XMLID_395_" class="st0" d="M343.1 412.8c0 2.1.1 3.7.2 4.7-1.8.7-4 1.1-6.6 1.4-3.6.4-6.8-1.9-7.7-5.4-.3-1.2-.7-2.2-1.2-2.9-1.2-1.7-2.8-2.6-5-2.6-1.6 0-3.3.9-5.1 2.8-1.8 1.8-2.4 4.3-3.6 7.3-1.4 3.5-1 7.4-1 11.1v6.5c0 4.7-.4 8.4.7 10.9 1 2.6 2.2 4.4 4.5 5.5 1.3.7 2.7 1.2 4.7 1.6 3.1.6 5.4 3.2 5.6 6.4v1.8c0 1.3-1.1 2.4-2.4 2.3-5.5-.2-13.1-.4-22.7-.4-8 0-14.6.1-19.8.2-4.4.1-7.8-3.8-7-8v-.1c.2-1 1-1.6 2-1.7 2.2-.3 3.9-.8 5.1-1.5 1.5-.9.7-2.5 1.3-4.7.6-2.2-.9-5.5-.9-9.9v-21.5c0-3.3 1.6-5.8 1.1-7.6-.5-1.7-.7-3-2.3-3.9-1.3-.7-2.6-1.1-5.1-1.4-1.2-.1-1.9-1.1-1.8-2.3 0-.5.2-.9.2-1.3.4-3.4 3.2-6 6.7-6.2 4-.3 7.9-.8 11.7-1.5 3-.6 5.7-1.2 7.8-1.9 4.2-1.4 8.7 1.7 8.9 6.2v1c0 2.1-.2 4.5-.7 7.1-.5 2.6-1.1 5.4-1.8 8.3 1.7-5.2 3.1-8.6 4-10.1 2.5-4 5.4-7.1 8.9-9.5 3.5-2.4 7.3-3.5 11.3-3.5 2.2 0 4.3.3 6.3 1 3.1 1.1 5 4.2 4.7 7.5-.7 4.7-1 9.5-1 14.3z"/><path id="XMLID_407_" class="st0" d="M353.4 455.9c.2-.9 1.1-1.5 2-1.6 3.4-.4 5.9-1.4 7.2-3 1.4-1.9 2.4-5.5 2.4-10.8v-25.6c0-4-1-6.8-2.5-8.4-1.3-1.4-3.9-2.3-7.5-2.7-1.2-.1-2.2-1.2-2.2-2.4.1-2.3.5-4.3 1.1-6 .3-.8 1.1-1.3 2-1.3 4.8-.1 9.9-.7 15.1-1.7 3-.6 4.5-1.2 6.6-1.8 4.5-1.3 8.3 1.9 8.3 6.6v43.2c0 5.4 1.7 9 3.1 10.8 1.2 1.6 3.8 2.6 6.9 3 1 .1 2.1.8 2.3 1.8.3 1.5.6 3.5.7 5.8 0 1.3-1 2.4-2.3 2.3-4.7-.2-11.6-.3-20.7-.3-9.3 0-16.2.1-20.9.3-1.3.1-2.4-1-2.3-2.3.2-2.2.4-4.2.7-5.9zm11.4-82.6c-2.5-2.1-3.7-4.8-3.7-8.3 0-3.8 1.3-6.7 3.9-8.9 2.6-2.2 6-3.3 10-3.3 4.4 0 7.8 1.1 10.2 3.2 2.4 2.1 3.6 5.1 3.6 8.8 0 3.3-1.3 6.1-3.9 8.3-2.6 2.2-6.1 3.3-10.5 3.3-3.9.1-7.2-1-9.6-3.1z"/><path id="XMLID_414_" class="st0" d="M462.5 413.1c-2.2.5-4.6.8-6.9.8-.5-4.4-2.1-8-4.7-10.9s-6.1-4.3-10.6-4.3c-2.5 0-4.4.6-5.9 1.8-1.4 1.2-2.2 2.9-2.2 4.9 0 1.7.4 3.2 1.1 4.3.7 1.2 2.4 2.5 4.9 3.9 2.5 1.4 6.3 3.2 11.5 5.2 6.2 2.5 11 4.8 14.4 7 3.4 2.2 5.8 4.6 7.2 7.2 1.4 2.6 2.2 5.8 2.2 9.4 0 7.2-3 12.8-9.1 16.8s-14.3 6-24.8 6c-6.3 0-11.7-.5-16-1.4-2-.4-3.9-.9-5.9-1.5-4.1-1.3-6.8-5.3-6.6-9.6 0-1.1.1-2.2.1-3.4 0-3.9-.2-7.1-.5-9.6 1.5-.9 3.4-1.5 5.8-2s4.7-.7 7.1-.7c.5 5.8 2.2 10.2 5 13.3 2.8 3.1 6.4 4.6 10.8 4.6 3.1 0 5.6-.7 7.6-2.2 1.9-1.4 2.9-3.3 2.9-5.7 0-2.6-1-4.7-3.1-6.3-2-1.7-6.2-3.7-12.4-6.2-5.6-2.1-10-4.2-13.2-6.3-3.2-2-5.7-4.5-7.4-7.5-2.4-4.1-3.1-9.7-2.2-16.8.2-1.9 1.1-3.7 2.4-5.1 6.5-6.7 15.7-10 27.4-10 5.6 0 10.4.4 14.5 1.2 1.7.3 2.1.7 3.7 1.2 4 1.2 5.4 5 5.4 9.2v.1c0 4 1.4 7.5 1.8 10.4-1.4 1-2.1 1.7-4.3 2.2z"/><path id="XMLID_418_" class="st0" d="M495 455.8c-7-6.7-10.5-15.8-10.5-27.4 0-8 1.8-15 5.3-20.9 3.5-5.9 8.4-10.4 14.6-13.5 6.2-3.1 13.2-4.7 21.1-4.7 13 0 22.9 3.4 29.9 10.3s10.4 16 10.4 27.3c0 7.8-1.7 14.7-5.1 20.6-3.4 5.9-8.2 10.4-14.4 13.6-6.2 3.2-13.4 4.7-21.7 4.7-12.7 0-22.6-3.3-29.6-10zm42.9-7.2c2.6-4.6 3.9-10.6 3.9-18 0-6.5-.8-12.2-2.5-17-1.7-4.8-3.9-8.4-6.7-10.9-2.8-2.5-5.8-3.7-9.2-3.7-4.7 0-8.3 2.2-10.8 6.7s-3.8 10.4-3.8 17.7c0 9.6 1.6 17.4 4.8 23.2 3.2 5.8 7.7 8.8 13.3 8.8 4.7.2 8.4-2.2 11-6.8z"/><path id="XMLID_421_" class="st0" d="M575.7 455.9c.2-.9 1.1-1.5 2-1.6 3.4-.4 5.3-1.4 6.5-3 1.4-1.9 1.7-5.5 1.7-10.8v-66.7c0-3.5-.4-6.1-2.1-7.6-1.4-1.3-3.6-2.1-7-2.5-1.2-.1-2.1-1.2-2-2.4.1-2.4.6-4.4 1.2-6 .3-.8 1.2-1.3 2-1.3 4.8-.1 9.9-.6 15.1-1.7 3-.6 4.4-1.2 6.5-1.8 4.5-1.4 8.3 1.9 8.3 6.6v83.3c0 5.4 1.9 9 3.3 10.8 1.2 1.6 3.9 2.6 7 3 1 .1 2.1.8 2.3 1.8.3 1.5.6 3.5.7 5.8 0 1.3-1 2.4-2.3 2.3-4.7-.2-11.6-.3-20.7-.3-9.3 0-16.2.1-20.9.3-1.3.1-2.4-1-2.3-2.3.1-2.2.3-4.2.7-5.9z"/><path id="XMLID_442_" class="st0" d="M638.6 462.8c-2.5-2.4-3.8-5.7-3.8-9.8 0-4 1.4-7.3 4.2-9.8 2.8-2.5 6.4-3.8 10.7-3.8 3.8 0 7 1.3 9.5 3.9 2.5 2.6 3.8 5.5 3.8 8.8 0 4.2-1.3 7.7-3.9 10.4-2.6 2.7-6 4-10.2 4-4.3 0-7.7-1.3-10.3-3.7z"/></g><g id="XMLID_9_" opacity=".9"><g id="XMLID_27_"><g id="XMLID_26_"><linearGradient id="XMLID_2_" gradientUnits="userSpaceOnUse" x1="660.676" y1="232.324" x2="960.026" y2="232.324" gradientTransform="rotate(-6.012 434.38 258.414)"><stop offset="0" stop-color="#8e44ad"/><stop offset=".993" stop-color="#bf4571"/></linearGradient><path id="XMLID_6_" d="M678.7 277.2c-10 16.6-16.1 39.5-10.2 3.2 7.6-46.5-.9-91.1 99.1-133.2C893 94.5 941.3 59.5 948.9 125.6c14.7 126.5-30.5 79.4-137.5 79.8-65.7.3-108.9 32-132.7 71.8z" opacity=".85" fill="url(#XMLID_2_)"/><linearGradient id="XMLID_3_" gradientUnits="userSpaceOnUse" x1="660.971" y1="303.489" x2="807.39" y2="303.489" gradientTransform="rotate(-6.012 434.38 258.414)"><stop offset="0" stop-color="#8e44ad"/><stop offset=".993" stop-color="#bf4571"/></linearGradient><path id="XMLID_11_" d="M680.1 302c-7 3.7-20.2 17.4-6.9-4.6 8.4-13.9 12.1-16.5 53.7-38.2 68.7-35.9 88.6-27.4 79.8 5.2-10.8 40-22.1 28.7-67.6 22.6-27.7-3.8-41.4 5.6-59 15z" opacity=".85" fill="url(#XMLID_3_)"/><g id="XMLID_23_" class="st4"><image width="308" height="235" id="XMLID_60_" xlink:href="1C00E7A6.png" transform="translate(654 80)" overflow="visible" opacity=".1"/><g id="XMLID_44_"><linearGradient id="XMLID_4_" gradientUnits="userSpaceOnUse" x1="660.086" y1="232.324" x2="959.358" y2="232.324" gradientTransform="rotate(-6.012 434.38 258.414)"><stop offset="0" stop-color="#8e44ad"/><stop offset=".993" stop-color="#bf4571"/></linearGradient><path id="XMLID_59_" d="M674.3 280.1c-6.3 17.3-12.2 34.7-6.3-1.6 7.6-46.5.6-91 100.7-132.9C900.2 90.5 940.9 62 948.2 125c7.8 66.9-96.5 42.2-134.3 46.3-65.3 7.3-118 49.7-139.6 108.8z" fill="url(#XMLID_4_)"/></g></g><g id="XMLID_24_" class="st4"><image width="184" height="117" id="XMLID_58_" xlink:href="1C00E7AA.png" transform="translate(646 218)" overflow="visible" opacity=".52"/><g id="XMLID_45_"><linearGradient id="XMLID_5_" gradientUnits="userSpaceOnUse" x1="661.067" y1="303.433" x2="807.294" y2="303.433" gradientTransform="rotate(-6.012 434.38 258.414)"><stop offset="0" stop-color="#8e44ad"/><stop offset=".993" stop-color="#bf4571"/></linearGradient><path id="XMLID_57_" d="M680 298.8c-6.2 4.7-19.9 22.4-6.8-1.4 7.9-14.2 12.1-16.5 53.7-38.2 68.7-35.9 88.5-27.4 79.8 5.2-4.6 17.1-14.1 9.4-59.6 3.3-27.7-3.8-51.4 19-67.1 31.1z" fill="url(#XMLID_5_)"/></g></g><g id="XMLID_28_"><linearGradient id="XMLID_7_" gradientUnits="userSpaceOnUse" x1="664.443" y1="337.331" x2="747.885" y2="337.331" gradientTransform="rotate(-6.012 434.38 258.414)"><stop offset="0" stop-color="#8e44ad"/><stop offset=".993" stop-color="#bf4571"/></linearGradient><path id="XMLID_22_" d="M679.2 312.3c-4.2 1.1-12.9 6.7-3.1-3.3 6.2-6.3 8.5-7.2 33.2-13.4 40.9-10.3 50.3-3.3 41.5 12.8-10.8 19.8-15.3 12.4-38.6 3.4-14.1-5.4-22.6-2.2-33 .5z" opacity=".85" fill="url(#XMLID_7_)"/><g id="XMLID_25_" class="st4"><image width="96" height="37" id="XMLID_56_" xlink:href="1C00E7AD.png" transform="translate(665 285)" overflow="visible" opacity=".3"/><g id="XMLID_43_"><linearGradient id="XMLID_8_" gradientUnits="userSpaceOnUse" x1="664.067" y1="333.662" x2="748.261" y2="333.662" gradientTransform="rotate(-6.012 434.38 258.414)"><stop offset="0" stop-color="#8e44ad"/><stop offset=".993" stop-color="#bf4571"/></linearGradient><path id="XMLID_55_" d="M678.8 312.2c-4.2 1.1-12.9 6.7-3.1-3.3 6.2-6.3 8.5-7.2 33.2-13.4 40.9-10.3 52.2-2.1 41.5 12.8-7.2 10-15.5 2.4-38.7-6.6-14.1-5.4-22.4 7.8-32.9 10.5z" fill="url(#XMLID_8_)"/></g></g></g></g></g><g id="XMLID_390_" opacity=".85"><image width="62" height="80" id="XMLID_50_" xlink:href="1C00E7AE.png" transform="translate(617 299)" overflow="visible" opacity=".1"/><g id="XMLID_38_"><linearGradient id="XMLID_10_" gradientUnits="userSpaceOnUse" x1="621.562" y1="309.073" x2="678.213" y2="309.073" gradientTransform="rotate(6.435 398.677 293.323)"><stop offset="0" stop-color="#8e44ad"/><stop offset=".993" stop-color="#bf4571"/></linearGradient><path id="XMLID_49_" d="M663.6 353.5c7.7-28.7-24.3-28.3-36.9-28.7-2.7-.1-8.3.3-7.1-.9 1.7-1.6 3.1-1.6 3.2-9.6.2-13.9 14-13.1 16.1-13.3 7.4-.5 38.1 4.6 35.3 40.1-.5 6.4.1 5.2-2.5 13.3-10.4 32.4-19.2 15.3-18.3 13.4.9-1.5 6.7-1 10.2-14.3z" fill="url(#XMLID_10_)"/></g></g><linearGradient id="XMLID_15_" gradientUnits="userSpaceOnUse" x1="651.335" y1="334.503" x2="663.787" y2="334.503" gradientTransform="rotate(6.636 395.577 294.397)"><stop offset="0" stop-color="#8e44ad"/><stop offset=".993" stop-color="#bf4571"/></linearGradient><path id="XMLID_13_" d="M657.3 363.8c2.5-.5-12.6 3.8-12.3.2.2-2.5 5.2 1.3 12.3-.2z" opacity=".85" fill="url(#XMLID_15_)"/><linearGradient id="XMLID_16_" gradientUnits="userSpaceOnUse" x1="651.131" y1="329.981" x2="663.095" y2="329.981" gradientTransform="rotate(6.636 395.577 294.397)"><stop offset="0" stop-color="#8e44ad"/><stop offset=".993" stop-color="#bf4571"/></linearGradient><path id="XMLID_12_" d="M656.7 363c2.4.7-12.8-2.4-11-5.6 1.2-2.2 4.1 3.6 11 5.6z" opacity=".85" fill="url(#XMLID_16_)"/><g id="XMLID_14_" class="st4"><image width="62" height="79" id="XMLID_54_" xlink:href="1C00E7AC.png" transform="translate(617 299)" overflow="visible" opacity=".23"/><g id="XMLID_42_"><linearGradient id="XMLID_17_" gradientUnits="userSpaceOnUse" x1="621.442" y1="308.97" x2="677.999" y2="308.97" gradientTransform="rotate(6.435 398.677 293.323)"><stop offset="0" stop-color="#8e44ad"/><stop offset=".993" stop-color="#bf4571"/></linearGradient><path id="XMLID_53_" d="M668.2 348.8c10.8-36.6-17.9-37.3-35.6-33.3-4.2 1-14.3 9.5-13.1 8.3 1.7-1.6 3.1-1.6 3.2-9.6.2-13.9 14-13.1 16.1-13.3 7.4-.5 38.1 4.6 35.3 40.1-.5 6.4 0 5.1-2.5 13.3-9 29.8-18.7 16.8-16.9 15.4 12.1-9.3 11-12.2 13.5-20.9z" fill="url(#XMLID_17_)"/></g></g></g></g></svg>