<?xml version="1.0" encoding="utf-8"?>
<!-- Generator: Adobe Illustrator 19.0.0, SVG Export Plug-In . SVG Version: 6.00 Build 0)  -->
<svg version="1.1" id="Layer_1" xmlns="http://www.w3.org/2000/svg" xmlns:xlink="http://www.w3.org/1999/xlink" x="0px" y="0px"
	 viewBox="1029 -711 1982 1982" style="enable-background:new 1029 -711 1982 1982;" xml:space="preserve">
<style type="text/css">
	.st0{fill:#1A1918;}
	.st1{fill:#FFFFFF;}
</style>
<circle class="st0" cx="2020" cy="286" r="984"/>
<path class="st1" d="M2443.7,62.2h-33.5c-12.4,0-30,18-30,29.4v416.5c0,11.5,17.6,27.2,30,27.2h33.5v98.9h-303.7v-98.9h63.6V97.5
	h-3.1l-148.4,536.7h-114.9L1790.7,97.5h-3.7v437.8h63.6v98.9h-254.2v-98.9h32.6c13.4,0,31-15.7,31-27.2V91.6
	c0-11.5-17.6-29.4-31-29.4h-32.6v-98.9h317.9l104.4,388.4h2.9l105.3-388.4h316.9V62.2"/>
</svg>
