<svg width="78" height="78" xmlns="http://www.w3.org/2000/svg" xmlns:xlink="http://www.w3.org/1999/xlink"><use xlink:href="#path0_fill" fill="#FFF"/><use xlink:href="#path1_fill" transform="translate(37.11 18.29)" fill="url(#paint1_linear)"/><use xlink:href="#path1_fill" transform="translate(21.26 18.29)" fill="url(#paint2_linear)"/><use xlink:href="#path2_fill" transform="translate(21.26 52.61)" fill="url(#paint3_linear)"/><use xlink:href="#path3_fill" transform="translate(19 16)" fill="url(#paint4_linear)"/><defs><linearGradient id="paint1_linear" x2="1" gradientUnits="userSpaceOnUse" gradientTransform="matrix(5.3128 3.34418 -2.55776 58.7851 2.452 -25.265)"><stop offset="0" stop-color="#B721FF"/><stop offset=".47" stop-color="#C850C0"/><stop offset="1" stop-color="#FFCC70"/></linearGradient><linearGradient id="paint2_linear" x2="1" gradientUnits="userSpaceOnUse" gradientTransform="matrix(5.3128 3.34418 -2.55776 58.7851 2.452 -25.265)"><stop offset="0" stop-color="#B721FF"/><stop offset=".47" stop-color="#C850C0"/><stop offset="1" stop-color="#FFCC70"/></linearGradient><linearGradient id="paint3_linear" x2="1" gradientUnits="userSpaceOnUse" gradientTransform="matrix(5.3128 3.34418 -2.55776 58.7851 2.452 -25.265)"><stop offset="0" stop-color="#B721FF"/><stop offset=".47" stop-color="#C850C0"/><stop offset="1" stop-color="#FFCC70"/></linearGradient><linearGradient id="paint4_linear" x2="1" gradientUnits="userSpaceOnUse" gradientTransform="matrix(40.2255 28.1867 -19.3659 495.475 18.565 -212.947)"><stop offset="0" stop-color="#B721FF"/><stop offset=".47" stop-color="#C850C0"/><stop offset="1" stop-color="#FFCC70"/></linearGradient><path id="path0_fill" d="M78 39c0 21.54-17.46 39-39 39S0 60.54 0 39 17.46 0 39 0s39 17.46 39 39z"/><path id="path1_fill" d="M2.642 5.339c1.456 0 2.641-1.197 2.641-2.67C5.283 1.197 4.098 0 2.642 0 1.185 0 0 1.197 0 2.67c0 1.472 1.185 2.669 2.642 2.669zm0-3.814A1.14 1.14 0 0 1 3.774 2.67a1.14 1.14 0 0 1-1.132 1.145A1.14 1.14 0 0 1 1.509 2.67c0-.63.508-1.144 1.133-1.144z"/><path id="path2_fill" d="M2.642 0C1.185 0 0 1.197 0 2.67c0 1.472 1.185 2.669 2.642 2.669 1.456 0 2.641-1.197 2.641-2.67C5.283 1.197 4.098 0 2.642 0zm0 3.814a1.14 1.14 0 0 1-1.133-1.145c0-.63.508-1.144 1.133-1.144A1.14 1.14 0 0 1 3.774 2.67a1.14 1.14 0 0 1-1.132 1.145z"/><path id="path3_fill" d="M32.453 12.978V0H0v44.237h18.143c1.195.482 2.599.763 4.121.763 1.878 0 3.579-.422 4.923-1.132 1.39.73 3.104 1.132 4.888 1.132C36.52 45 40 42.655 40 39.661V18.306c0-2.91-3.287-5.198-7.547-5.328zm6.038 5.327c0 2.067-2.938 3.814-6.416 3.814-3.477 0-6.415-1.747-6.415-3.814 0-.127.012-.253.034-.378.006-.035.018-.07.027-.105.02-.089.04-.178.07-.265.014-.039.034-.077.05-.116.033-.082.065-.164.108-.244.024-.044.054-.086.08-.13.044-.072.086-.145.136-.215.041-.056.09-.111.135-.167.044-.054.085-.108.133-.16.074-.082.157-.16.242-.238.026-.024.05-.05.077-.074a5.45 5.45 0 0 1 .805-.583c.294-.176.61-.332.946-.469.02-.008.041-.015.061-.024a8.31 8.31 0 0 1 1.05-.34l.039-.01c.312-.077.635-.14.966-.186l.04-.007c.348-.047.703-.077 1.066-.09l.354-.012c3.476.001 6.412 1.746 6.412 3.813zm-.05 18.746c-.012.064-.031.127-.05.191-.017.06-.034.12-.056.177a2.75 2.75 0 0 1-.083.187c-.027.057-.053.114-.085.17-.033.06-.073.12-.112.179-.036.055-.07.11-.112.164a2.979 2.979 0 0 1-.142.171c-.044.052-.086.105-.135.155-.053.057-.112.11-.17.165-.052.049-.101.098-.156.145-.062.053-.13.104-.197.155-.059.045-.115.09-.177.135-.07.05-.146.096-.22.143-.065.042-.129.084-.197.124-.077.046-.16.088-.241.132-.072.038-.141.077-.215.112-.086.042-.175.08-.264.119-.076.033-.15.068-.228.099-.094.037-.193.07-.29.106-.078.028-.155.058-.236.084-.1.033-.206.06-.309.09-.082.023-.162.049-.246.07-.108.027-.22.05-.33.073-.084.018-.165.04-.25.054-.12.023-.243.04-.366.058-.079.012-.157.026-.238.036-.137.017-.276.028-.415.04-.07.005-.138.014-.208.018a9.72 9.72 0 0 1-1.745-.043 9.747 9.747 0 0 1-.72-.104c-.034-.006-.07-.01-.105-.018.03-.19.046-.382.046-.577v-.915c.052.008.106.011.159.019.204.03.409.056.615.075.085.008.17.017.255.023a11.119 11.119 0 0 0 1.767-.001c.097-.006.19-.019.286-.028.201-.02.4-.043.596-.072.107-.016.212-.035.317-.053a10.512 10.512 0 0 0 1.37-.34c.084-.028.17-.053.252-.082.242-.085.477-.177.702-.277l.027-.01c.233-.106.455-.221.67-.343.068-.038.132-.08.198-.12a7.7 7.7 0 0 0 .415-.27c.071-.05.139-.102.208-.153.121-.093.237-.188.348-.286.033-.03.073-.055.105-.085a1.75 1.75 0 0 1-.011.127c-.008.059-.014.12-.027.181zm-9.81 0a2.698 2.698 0 0 1-.051.191c-.018.06-.034.12-.056.177-.024.063-.054.125-.083.187-.027.057-.053.114-.085.17-.034.06-.073.12-.112.179-.037.055-.071.11-.112.164-.044.059-.093.115-.142.171-.044.052-.087.105-.135.155-.053.057-.112.11-.17.165-.052.049-.102.098-.157.145-.062.053-.13.104-.196.155-.059.045-.115.09-.177.135-.07.05-.146.096-.22.143-.066.042-.129.084-.197.124-.078.046-.16.088-.241.132-.072.038-.142.077-.215.112-.086.042-.176.08-.265.119-.075.033-.15.068-.228.099-.093.037-.192.07-.29.106-.078.028-.154.058-.235.084-.1.033-.206.06-.31.09-.082.023-.162.049-.245.07-.108.027-.22.05-.33.073-.084.018-.165.04-.25.054-.12.023-.244.04-.366.058-.08.012-.158.026-.239.036-.136.017-.276.028-.415.04-.069.005-.137.014-.207.018a9.722 9.722 0 0 1-1.276 0c-.07-.004-.139-.012-.208-.018-.14-.012-.28-.022-.415-.04-.08-.009-.159-.023-.238-.036-.123-.018-.246-.035-.366-.057-.084-.016-.166-.037-.25-.054-.11-.024-.222-.047-.33-.074-.085-.021-.164-.047-.245-.07-.105-.03-.21-.057-.311-.09-.081-.026-.157-.056-.236-.084-.097-.035-.195-.068-.29-.106-.078-.031-.151-.066-.228-.1-.088-.038-.178-.076-.264-.117-.074-.036-.143-.076-.215-.113-.081-.044-.164-.086-.241-.132-.068-.04-.132-.082-.197-.124-.073-.047-.15-.094-.22-.143-.062-.044-.118-.09-.177-.135-.067-.051-.135-.102-.197-.155-.055-.047-.104-.096-.156-.145-.058-.054-.117-.108-.17-.165-.048-.05-.09-.103-.135-.154-.048-.057-.098-.113-.142-.172-.04-.054-.074-.108-.11-.163-.04-.06-.08-.12-.114-.18-.031-.055-.057-.113-.084-.17-.03-.062-.06-.124-.083-.187-.022-.058-.039-.117-.056-.176-.019-.064-.038-.127-.05-.192-.013-.06-.02-.122-.027-.183a2.39 2.39 0 0 1-.011-.127c.032.03.07.057.104.086a6.22 6.22 0 0 0 .556.44c.133.093.273.181.416.268.066.04.13.083.198.122.215.12.437.236.67.341l.025.01c.226.102.462.194.704.279.082.029.168.053.253.08.173.056.35.11.53.158a11.763 11.763 0 0 0 .839.183 10.017 10.017 0 0 0 .913.125c.095.009.189.021.284.028a11.556 11.556 0 0 0 1.822.002c.097-.007.19-.02.286-.029.201-.02.4-.043.596-.072.107-.016.212-.035.317-.053a10.494 10.494 0 0 0 1.369-.34c.084-.028.17-.053.253-.082.241-.085.477-.177.702-.277l.027-.01c.233-.106.455-.221.67-.343.068-.038.131-.08.198-.12a7.74 7.74 0 0 0 .415-.27c.07-.05.139-.102.207-.153.122-.093.237-.188.349-.286.033-.03.073-.055.105-.085a1.75 1.75 0 0 1-.011.127c-.008.059-.015.12-.027.181zM5.282 14.654V9.901c2.405-.186 4.33-2.131 4.514-4.562h6.066c.184 2.43 2.11 4.376 4.514 4.562v4.753c-.012-.011-.024-.021-.035-.033-.127-.13-.263-.25-.396-.372-.13-.12-.255-.244-.388-.357-.05-.041-.102-.076-.152-.116a10.408 10.408 0 0 0-5.426-2.269l-.073-.011a10.693 10.693 0 0 0-2.155 0c-.025.002-.048.008-.073.011a10.401 10.401 0 0 0-5.425 2.27c-.05.039-.103.075-.152.115-.134.113-.26.237-.388.357-.133.123-.27.242-.396.372-.012.012-.024.021-.035.033zm18.204 9.064l.035.003c.398.05.79.123 1.174.219a8.47 8.47 0 0 1 1.376.477c.077.034.157.067.23.103.209.103.406.215.592.333a4.645 4.645 0 0 1 1.15.988l.023.029a3.2 3.2 0 0 1 .242.347l.025.04c.064.11.117.222.163.334l.029.065c.04.105.068.211.092.318.006.027.017.055.022.082.026.135.04.267.04.402 0 2.067-2.939 3.813-6.416 3.813-3.477 0-6.415-1.746-6.415-3.813 0-.332.083-.654.225-.964.207-.453.56-.881 1.032-1.264a5.48 5.48 0 0 1 .516-.368c1.179-.743 2.835-1.218 4.642-1.218.412 0 .82.026 1.224.074zm2.639-1.86c.068.052.136.104.207.154.133.094.272.182.416.27.066.04.13.081.198.12.215.122.436.237.67.342l.024.01c.227.101.462.194.705.278.082.03.168.054.253.081.173.056.349.11.53.157a11.754 11.754 0 0 0 .838.183 10.115 10.115 0 0 0 .914.125c.095.01.188.022.284.029a11.536 11.536 0 0 0 1.82.001c.097-.007.19-.019.286-.028.201-.02.4-.043.596-.072.107-.016.212-.035.317-.053a10.512 10.512 0 0 0 1.37-.341c.084-.027.17-.052.252-.08.242-.086.477-.178.702-.278l.027-.011a8.09 8.09 0 0 0 .67-.342c.068-.039.132-.08.198-.121.143-.087.282-.176.415-.269.071-.05.139-.102.208-.154.121-.092.237-.187.348-.285.033-.03.073-.056.105-.085a1.747 1.747 0 0 1-.011.126c-.008.061-.014.123-.027.183a1.938 1.938 0 0 1-.05.192 2.14 2.14 0 0 1-.056.177 2.75 2.75 0 0 1-.083.186c-.027.057-.053.114-.085.17a2.78 2.78 0 0 1-.112.18c-.036.054-.07.11-.112.163a2.979 2.979 0 0 1-.142.172c-.044.052-.086.104-.135.154-.053.057-.112.111-.17.165-.052.05-.101.098-.156.145-.062.054-.13.104-.197.155-.059.045-.115.09-.177.135-.07.05-.146.096-.22.143-.065.042-.129.084-.197.125-.077.046-.16.088-.241.13a4.416 4.416 0 0 1-.479.232c-.076.034-.15.068-.228.1-.094.037-.193.07-.29.105-.078.028-.155.058-.236.084-.1.033-.206.061-.309.09-.082.024-.162.049-.246.07-.108.028-.22.05-.33.074-.084.018-.165.038-.25.054-.12.022-.243.039-.366.057-.079.012-.157.026-.238.037-.137.016-.276.027-.415.038-.07.006-.138.015-.208.02a10.506 10.506 0 0 1-1.445-.013c-.085-.007-.168-.02-.253-.029a10.257 10.257 0 0 1-.539-.065c-.099-.015-.194-.037-.293-.055-.159-.03-.319-.06-.474-.098-.1-.024-.197-.054-.294-.08a8.469 8.469 0 0 1-.332-.1c-.705-.805-1.71-1.469-2.928-1.923-.3-.422-.465-.86-.49-1.307.034.032.075.06.112.092.111.098.227.193.349.286zm11.692 3.206c.071-.05.139-.103.208-.155.121-.092.237-.187.348-.285.033-.03.073-.055.105-.085a1.74 1.74 0 0 1-.011.126c-.008.061-.014.123-.027.183-.012.065-.031.128-.05.192a2.14 2.14 0 0 1-.056.177 2.75 2.75 0 0 1-.083.186c-.027.057-.053.114-.085.17a2.78 2.78 0 0 1-.112.18c-.036.054-.07.11-.112.163a2.979 2.979 0 0 1-.142.172c-.044.052-.086.104-.135.155-.053.056-.112.11-.17.164-.052.05-.101.098-.156.145-.062.054-.13.104-.197.155-.059.045-.115.09-.177.135-.07.05-.146.096-.22.143a5.506 5.506 0 0 1-.197.125c-.077.046-.16.088-.241.131-.072.038-.141.077-.215.113-.086.041-.175.08-.264.118-.076.034-.15.068-.228.1-.094.037-.193.07-.29.105-.078.029-.155.058-.236.084-.1.033-.206.061-.309.09-.082.024-.162.049-.246.07-.108.028-.22.05-.33.074-.084.018-.165.038-.25.054-.12.022-.243.039-.366.057-.079.012-.157.027-.238.036-.137.017-.276.028-.415.04-.07.006-.138.014-.208.019-.21.012-.422.02-.638.02-.38 0-.755-.028-1.127-.07-.111-.011-.221-.03-.331-.046-.145-.02-.286-.053-.428-.08v-.567c0-.167-.014-.334-.037-.5-.013-.105-.037-.207-.06-.31-.009-.042-.014-.084-.024-.125l.052.007c.214.036.432.06.65.084.106.012.211.03.32.039a11.803 11.803 0 0 0 1.896.006c.096-.007.19-.019.285-.028.201-.02.4-.043.596-.072.107-.016.212-.035.317-.053a10.512 10.512 0 0 0 1.37-.341c.084-.028.17-.052.252-.081.242-.085.477-.177.702-.278l.027-.01c.233-.106.455-.22.67-.342.068-.039.132-.08.198-.121a7.22 7.22 0 0 0 .415-.27zm0 3.05c.071-.05.139-.102.208-.154.121-.092.237-.187.348-.285.033-.03.073-.056.105-.085a1.75 1.75 0 0 1-.011.126c-.008.061-.014.123-.027.183a1.938 1.938 0 0 1-.05.192 2.14 2.14 0 0 1-.056.177 2.525 2.525 0 0 1-.083.186c-.027.057-.053.114-.085.17-.033.06-.073.12-.112.18-.036.054-.07.11-.112.163a2.945 2.945 0 0 1-.142.172c-.044.052-.086.104-.135.155-.053.056-.112.11-.17.164-.052.049-.101.098-.156.145-.062.053-.13.104-.197.155-.059.045-.115.09-.177.135-.07.05-.146.096-.22.143-.065.042-.129.084-.197.125-.077.045-.16.087-.241.13-.072.039-.141.078-.215.114-.086.04-.175.08-.264.118-.076.034-.15.068-.228.1-.094.037-.193.07-.29.105-.078.028-.155.058-.236.084-.1.033-.206.061-.309.09-.082.024-.162.049-.246.07-.108.028-.22.05-.33.073-.084.019-.165.04-.25.055-.12.022-.243.038-.366.057-.079.012-.157.026-.238.036-.137.017-.276.028-.415.04-.07.005-.138.014-.208.018-.21.013-.422.02-.638.02-.38 0-.755-.027-1.127-.069-.111-.012-.221-.03-.331-.046-.145-.02-.286-.053-.428-.08v-1.483c.052.009.106.012.159.02.204.03.409.055.615.074.085.008.17.018.255.024.285.021.57.035.857.035.31 0 .612-.014.91-.036.097-.007.19-.02.286-.028.201-.02.4-.043.596-.072.107-.016.212-.035.317-.053a10.512 10.512 0 0 0 1.37-.341c.084-.028.17-.052.252-.081.242-.086.477-.177.702-.278l.027-.01c.233-.106.455-.22.67-.342.068-.04.132-.081.198-.121a7.77 7.77 0 0 0 .415-.27zm0 3.051c.071-.05.139-.102.208-.154a6.61 6.61 0 0 0 .348-.285c.033-.03.073-.056.105-.086a1.74 1.74 0 0 1-.011.127c-.008.061-.014.123-.027.183a1.938 1.938 0 0 1-.05.192c-.017.059-.034.119-.056.177a2.75 2.75 0 0 1-.083.186c-.027.057-.053.114-.085.17a2.78 2.78 0 0 1-.112.179c-.036.055-.07.11-.112.164a3.013 3.013 0 0 1-.142.172c-.044.051-.086.104-.135.154-.053.057-.112.11-.17.165-.052.049-.101.098-.156.145-.062.053-.13.104-.197.155-.059.045-.115.09-.177.135-.07.05-.146.096-.22.143-.065.042-.129.084-.197.124-.077.046-.16.088-.241.132-.072.038-.141.077-.215.113-.086.04-.175.079-.264.118-.076.033-.15.068-.228.099-.094.037-.193.07-.29.106-.078.028-.155.058-.236.084-.1.033-.206.06-.309.09-.082.023-.162.049-.246.07-.108.027-.22.05-.33.073-.084.019-.165.04-.25.054-.12.023-.243.04-.366.058-.079.012-.157.026-.238.036-.137.017-.276.028-.415.04-.07.005-.138.014-.208.018-.21.013-.422.02-.638.02-.38 0-.755-.027-1.127-.069-.111-.012-.221-.03-.331-.046-.145-.02-.286-.053-.428-.08v-1.483c.052.009.106.012.159.02.204.03.409.055.615.074.085.008.17.017.255.023a11.12 11.12 0 0 0 1.767 0c.097-.007.19-.02.286-.029.201-.02.4-.042.596-.071.107-.016.212-.035.317-.053a10.512 10.512 0 0 0 1.37-.341c.084-.028.17-.052.252-.081.242-.086.477-.177.702-.278l.027-.01c.233-.106.455-.221.67-.342.068-.04.132-.081.198-.122.143-.087.282-.176.415-.269zm0 3.051c.071-.05.139-.102.208-.154a6.61 6.61 0 0 0 .348-.285c.033-.03.073-.056.105-.086a1.75 1.75 0 0 1-.011.127c-.008.06-.014.123-.027.183-.012.064-.031.127-.05.191-.017.06-.034.12-.056.177a2.198 2.198 0 0 1-.083.186c-.027.058-.053.115-.085.171-.033.06-.073.12-.112.179-.036.055-.07.11-.112.164a2.945 2.945 0 0 1-.142.171c-.044.052-.086.105-.135.155-.053.057-.112.11-.17.165-.052.049-.101.097-.156.145-.062.053-.13.104-.197.155-.059.045-.115.09-.177.135-.07.05-.146.096-.22.143-.065.042-.129.084-.197.124-.077.046-.16.088-.241.132-.072.038-.141.077-.215.112-.086.042-.175.08-.264.119-.076.033-.15.068-.228.099-.094.037-.193.07-.29.106-.078.028-.155.058-.236.084-.1.032-.206.06-.309.09-.082.023-.162.049-.246.07-.108.027-.22.05-.33.073-.084.018-.165.039-.25.054-.12.022-.243.04-.366.057-.079.013-.157.027-.238.037-.137.017-.276.027-.415.039l-.208.02c-.21.012-.422.019-.638.019-.38 0-.755-.028-1.127-.069-.111-.012-.221-.03-.331-.046-.145-.02-.286-.053-.428-.08v-1.483c.052.008.106.011.159.019.204.03.409.056.615.075.085.008.17.017.255.023a11.119 11.119 0 0 0 1.767 0c.097-.007.19-.02.286-.029.201-.02.4-.042.596-.071.107-.016.212-.035.317-.054a10.512 10.512 0 0 0 1.37-.34c.084-.028.17-.052.252-.081.242-.086.477-.177.702-.278l.027-.01c.233-.106.455-.221.67-.343.068-.038.132-.08.198-.12a7.77 7.77 0 0 0 .415-.27zM28.63 34a2.363 2.363 0 0 1-.05.192c-.018.06-.034.119-.056.177-.024.062-.054.124-.083.186-.027.057-.053.114-.085.17a2.78 2.78 0 0 1-.112.179c-.037.055-.071.11-.112.164-.044.059-.093.115-.142.172-.044.051-.087.104-.135.154-.053.057-.112.111-.17.165-.052.049-.102.098-.157.145-.062.053-.13.104-.196.155-.059.045-.115.09-.177.135-.07.05-.146.096-.22.143-.066.042-.129.084-.197.125-.078.045-.16.087-.241.13-.072.039-.142.078-.215.114-.086.04-.176.079-.265.118-.075.033-.15.068-.228.099-.093.037-.192.071-.29.106-.078.028-.154.058-.235.084-.1.033-.206.061-.31.09-.082.024-.162.049-.245.07-.108.028-.22.05-.33.073-.084.019-.165.04-.25.054-.12.023-.244.04-.366.058-.08.012-.158.026-.239.036-.136.017-.276.028-.415.04-.069.005-.137.014-.207.018a9.792 9.792 0 0 1-1.276.001c-.07-.005-.139-.013-.208-.019-.14-.012-.28-.022-.415-.039-.08-.01-.159-.024-.238-.037-.123-.018-.246-.035-.366-.057-.084-.016-.166-.036-.25-.054-.11-.023-.222-.046-.33-.074-.085-.021-.164-.046-.245-.07-.105-.029-.21-.057-.311-.09-.081-.026-.157-.056-.236-.084-.097-.035-.195-.068-.29-.106-.078-.031-.151-.066-.228-.1-.088-.038-.178-.076-.264-.117-.074-.036-.143-.076-.215-.113-.081-.044-.164-.086-.241-.131-.068-.04-.132-.083-.197-.125-.073-.047-.15-.093-.22-.143-.062-.044-.118-.09-.177-.135-.067-.051-.135-.102-.197-.155-.055-.047-.104-.096-.156-.145-.058-.054-.117-.108-.17-.165-.048-.05-.09-.103-.135-.154-.048-.057-.098-.113-.142-.172-.04-.053-.074-.108-.11-.163-.04-.06-.08-.12-.114-.18-.031-.055-.057-.113-.084-.17-.03-.062-.06-.124-.083-.186-.022-.058-.039-.118-.056-.177-.019-.064-.038-.127-.05-.192-.013-.06-.02-.122-.027-.183a2.38 2.38 0 0 1-.011-.127c.032.03.07.057.104.086.112.098.228.194.35.286.067.052.135.104.206.153.133.094.273.182.416.27.066.04.13.082.198.12.215.122.437.237.67.343l.025.01c.226.1.462.193.704.278.082.029.168.053.253.08.173.056.35.11.53.158a11.364 11.364 0 0 0 .839.183 10.313 10.313 0 0 0 .913.125c.095.009.189.021.284.028a11.604 11.604 0 0 0 1.822.002c.097-.007.19-.02.286-.029.201-.02.4-.042.596-.071.107-.016.212-.035.317-.054a10.494 10.494 0 0 0 1.369-.34c.084-.028.17-.052.253-.081.241-.086.477-.177.702-.278l.027-.01c.233-.106.455-.221.67-.343.068-.038.131-.08.198-.12.142-.088.282-.176.415-.27a6.564 6.564 0 0 0 .556-.44c.033-.028.073-.054.105-.084a1.74 1.74 0 0 1-.011.127c-.008.06-.015.12-.027.181zm-14.899-2.783a8.737 8.737 0 0 1-.9.054 8.97 8.97 0 0 1-1.057-.068c-.111-.013-.221-.034-.332-.05a8.834 8.834 0 0 1-1.071-.234 9.006 9.006 0 0 1-.647-.215c-.113-.041-.229-.079-.34-.125a8.716 8.716 0 0 1-.881-.423c-.088-.049-.17-.106-.256-.157a9.201 9.201 0 0 1-.615-.397c-.1-.072-.197-.148-.295-.223a9.323 9.323 0 0 1-.565-.476c-.07-.063-.14-.125-.207-.19-.154-.15-.295-.314-.438-.475l2.332-2.59c.315-.35.746-.527 1.115-.46.035.006.07.014.104.023.114.09.36.317.527.473.412.384.68.627.898.774.426.83 1.017 1.16 1.456 1.288.53.155 1.128.108 1.78-.13v3.509c-.082.014-.162.032-.244.043-.12.018-.243.036-.364.049zM3.816 21.28a9.237 9.237 0 0 1 .13-.923c.006-.036.011-.072.019-.107.055-.27.124-.536.203-.797.016-.055.036-.11.053-.164.066-.203.138-.402.217-.599.03-.073.059-.146.09-.218a9.6 9.6 0 0 1 .29-.61c.054-.102.113-.203.17-.304.064-.111.13-.22.198-.327l.005-.007 2.177 2.414c.557.619 1.298.95 2.038.954a2.56 2.56 0 0 0 .798-.14c.313-.11.523-.36.745-.625.374-.443.673-.76 1.127-.76.749 0 1.47.284 2.029.798l.807.84.38-1.083c.18-.228 1.032-.528 1.553-.588.293.799.812 2.722-.11 4.57-.053.035-.106.068-.156.103-.093.064-.179.132-.267.199-.077.058-.156.116-.229.177-.084.07-.16.144-.24.216-.067.064-.137.125-.2.19-.075.076-.142.156-.21.236-.059.066-.12.132-.173.2-.065.083-.121.169-.18.254-.047.07-.098.138-.141.209-.055.09-.1.184-.148.276l-.01.018c-.75.497-1.405.716-1.802.597-.091-.026-.367-.107-.607-.678l-.173-.41-.303-.034c-.16-.121-.471-.412-.668-.595-.526-.489-.75-.69-1-.776a2.582 2.582 0 0 0-.393-.1c-.892-.16-1.823.192-2.492.935l-2.152 2.391-.005-.007a10.072 10.072 0 0 1-.376-.649 8.745 8.745 0 0 1-.28-.589c-.033-.073-.062-.149-.092-.224a9.37 9.37 0 0 1-.215-.592c-.018-.056-.038-.112-.055-.168a9.294 9.294 0 0 1-.203-.796c-.008-.036-.013-.072-.02-.108a9.22 9.22 0 0 1-.107-.713c-.008-.07-.016-.139-.022-.21a9.314 9.314 0 0 1-.042-.837c0-.283.017-.563.042-.84zm12.499 9.731a6.079 6.079 0 0 0 .622.423c.067.04.13.082.199.12.214.122.436.237.67.343l.024.01c.227.101.462.193.704.278.083.029.169.053.253.08.174.056.35.11.53.158a11.763 11.763 0 0 0 .84.183 10.017 10.017 0 0 0 .912.125c.096.01.19.021.285.028a11.488 11.488 0 0 0 1.82.002c.097-.007.19-.02.286-.029.201-.02.4-.042.596-.071.107-.016.212-.035.317-.053a10.494 10.494 0 0 0 1.369-.341c.084-.028.17-.052.253-.081.241-.086.477-.177.702-.278l.027-.01c.233-.106.455-.221.67-.342.068-.04.131-.081.198-.122a7.74 7.74 0 0 0 .415-.268 6.566 6.566 0 0 0 .556-.44c.033-.03.073-.055.105-.085a1.75 1.75 0 0 1-.011.127c-.008.06-.014.123-.027.183a2.24 2.24 0 0 1-.05.191c-.018.06-.034.12-.056.177a2.706 2.706 0 0 1-.083.186c-.027.058-.053.115-.085.171-.034.06-.073.12-.112.179-.037.055-.071.11-.112.164a3.215 3.215 0 0 1-.142.171c-.044.052-.087.105-.135.155-.053.056-.112.11-.17.165-.052.049-.102.098-.157.145-.062.053-.13.103-.196.155-.059.045-.115.09-.177.135-.07.05-.146.096-.22.143-.066.042-.129.084-.197.124-.078.046-.16.088-.241.131-.072.039-.142.077-.215.113-.086.041-.176.08-.265.119-.075.033-.15.067-.228.099-.093.037-.192.07-.29.106-.078.028-.154.058-.235.084-.1.032-.206.06-.31.09-.082.023-.162.048-.245.07-.108.027-.22.05-.33.073-.084.018-.165.039-.25.054-.12.022-.244.04-.366.057-.08.013-.158.027-.239.037-.136.017-.276.028-.415.039-.069.006-.137.014-.207.019a10.988 10.988 0 0 1-1.276 0c-.07-.005-.139-.014-.208-.02-.14-.011-.28-.022-.415-.039-.08-.01-.159-.024-.238-.036-.123-.019-.246-.035-.366-.058-.084-.016-.166-.036-.25-.054-.11-.023-.222-.046-.33-.074-.085-.021-.164-.046-.245-.07-.105-.029-.21-.057-.311-.09-.081-.026-.157-.056-.236-.084-.097-.035-.195-.068-.29-.106-.078-.031-.151-.066-.228-.099-.088-.039-.178-.077-.264-.118-.074-.036-.143-.076-.215-.113-.081-.044-.164-.085-.241-.131-.068-.04-.132-.083-.197-.125-.073-.047-.15-.093-.22-.143-.062-.043-.118-.09-.177-.135-.067-.051-.135-.101-.197-.155-.055-.047-.104-.096-.156-.145-.058-.054-.117-.108-.17-.164-.048-.05-.09-.103-.135-.154-.048-.058-.098-.114-.142-.173-.04-.053-.074-.108-.11-.163-.04-.06-.08-.12-.114-.18-.031-.055-.057-.113-.084-.17-.03-.062-.06-.124-.083-.186-.022-.058-.039-.118-.056-.177a1.804 1.804 0 0 1-.05-.192c-.013-.06-.02-.122-.027-.183a2.39 2.39 0 0 1-.011-.126c.032.03.07.056.104.085.113.098.23.194.35.286zm4.962-8.849a14.473 14.473 0 0 0-.779.088c-.134.02-.266.043-.398.067-.117.022-.235.043-.35.07-.13.028-.256.059-.38.092-.113.029-.226.058-.335.09a8.856 8.856 0 0 0-.363.116l-.04.013c.512-2.492-.548-4.63-.603-4.742l-.148-.29-.311-.093c-.648-.192-2.14.09-3.027.712a4.468 4.468 0 0 0-2.467-.743c-1.188 0-1.898.845-2.278 1.3-.062.073-.114.141-.165.192-.079.02-.164.032-.251.033-.324-.011-.633-.16-.897-.455l-2.357-2.613c.144-.161.284-.325.437-.474.067-.066.138-.127.208-.19.182-.168.371-.326.565-.477.097-.075.194-.15.294-.222.2-.142.406-.273.616-.398.086-.05.168-.109.255-.157.286-.157.58-.296.881-.422.111-.047.227-.084.34-.126a9.02 9.02 0 0 1 1.02-.312c.231-.055.463-.1.699-.136.111-.018.22-.038.332-.051a8.945 8.945 0 0 1 1.055-.068c.356 0 .708.027 1.056.068.112.013.222.034.332.051a8.888 8.888 0 0 1 1.072.233 9 9 0 0 1 .647.215c.113.042.228.08.34.126.301.125.595.264.88.422.088.049.17.106.257.157.209.125.415.256.615.398.1.071.197.147.294.222.194.151.383.31.565.476.07.064.14.125.208.191a9.295 9.295 0 0 1 1.38 1.707 9.166 9.166 0 0 1 1.41 4.887v.005c-.078.002-.153.01-.232.015-.127.006-.252.013-.377.023zM5.283 29.583c.01.011.022.02.032.03.264.27.54.526.831.767.103.086.212.16.318.24.193.148.386.293.588.428.14.093.285.177.43.264a9.829 9.829 0 0 0 1.609.78c.154.06.308.121.466.173.223.074.451.133.68.192.143.037.281.08.425.11.362.077.73.137 1.104.175.124.012.25.011.374.019.23.015.457.036.69.036.036 0 .074-.006.111-.007.21-.002.42-.024.63-.04.197-.014.392-.024.59-.05.06-.008.12-.007.18-.016v6.214H9.797c-.184-2.43-2.11-4.375-4.514-4.562v-4.753h-.001zm25.66-28.058v11.5c-.256.023-.508.054-.754.094V1.525h.754zm-2.264 0V13.47c-.26.082-.511.172-.755.271V1.525h.755zm-2.264 0v13.011a6.427 6.427 0 0 0-.755.607V1.525h.755zM1.51 42.712V1.525h22.642v20.746h-.002c-.248-.04-.5-.07-.756-.094.001-.02.003-.038.003-.058 0-2.002-.558-3.87-1.51-5.472v-8.35l-.823.077a3.49 3.49 0 0 1-.308.016c-1.873 0-3.396-1.54-3.396-3.432 0-.106.007-.21.015-.315l.074-.83H8.213l.073.83a4.1 4.1 0 0 1 .016.315c0 1.892-1.524 3.432-3.396 3.432a3.49 3.49 0 0 1-.308-.016l-.824-.076v8.349l-.031.051a10.788 10.788 0 0 0-.618 1.206c-.037.085-.067.174-.102.26-.088.222-.17.445-.243.671-.03.095-.057.192-.085.288a10.388 10.388 0 0 0-.344 1.698c-.011.096-.026.19-.036.287-.031.334-.05.67-.05 1.01 0 .34.019.677.05 1.011.009.097.024.19.035.287.029.24.064.478.108.715.02.102.042.203.064.305.05.229.107.454.172.679.028.096.055.192.086.287.072.227.155.45.243.67.034.088.065.176.102.261a10.738 10.738 0 0 0 .649 1.257v8.35l.824-.076c.102-.01.204-.017.308-.017 1.872 0 3.396 1.54 3.396 3.433 0 .106-.008.21-.016.314l-.073.83h6.208c.014.064.03.127.047.19.02.077.04.154.065.23.02.061.044.121.068.182a4.699 4.699 0 0 0 1.125 1.686H1.509zm16.887-.037a7.744 7.744 0 0 1-.526-.266c-.066-.037-.127-.076-.19-.115a5.43 5.43 0 0 1-.495-.343c-.052-.04-.109-.079-.158-.12-.07-.06-.131-.12-.195-.182a4.256 4.256 0 0 1-.176-.174 4.103 4.103 0 0 1-.313-.385c-.037-.053-.075-.106-.108-.16a2.813 2.813 0 0 1-.152-.285c-.017-.035-.037-.069-.051-.105a2.438 2.438 0 0 1-.129-.406c-.007-.035-.009-.072-.015-.107a2.203 2.203 0 0 1-.024-.233c.032.029.07.055.102.084.112.098.228.193.35.286.067.051.135.103.206.153.133.094.273.182.416.27.067.04.13.082.199.12.214.122.436.237.669.342l.025.01c.226.102.462.194.704.279.082.028.168.053.253.08.174.056.35.11.53.157a11.45 11.45 0 0 0 .839.183 10.626 10.626 0 0 0 .913.126c.095.009.189.02.285.028a11.504 11.504 0 0 0 1.82.001c.096-.007.189-.019.285-.028.201-.02.4-.043.596-.072.107-.016.212-.035.317-.053a10.494 10.494 0 0 0 1.369-.34c.084-.028.17-.053.253-.082.241-.085.477-.177.702-.277l.027-.011a8.09 8.09 0 0 0 .67-.342c.068-.039.131-.08.198-.121a7.8 7.8 0 0 0 .415-.269 6.564 6.564 0 0 0 .556-.44c.033-.028.07-.053.102-.083-.005.079-.01.158-.025.238l-.008.059a2.59 2.59 0 0 1-.13.419v.003c-.205.508-.586.985-1.115 1.406l-.045.035c-.16.123-.332.241-.517.354-.037.023-.071.047-.11.069l-.015.009c-1.163.67-2.735 1.088-4.436 1.088-1.44 0-2.783-.303-3.868-.8zm13.68.8c-1.23 0-2.414-.215-3.439-.613.394-.358.725-.751.976-1.174l.04.007c.35.075.705.13 1.064.172.08.009.159.016.238.023.37.035.742.06 1.12.06.31 0 .612-.015.91-.037.097-.007.19-.019.286-.028.201-.02.4-.043.596-.072.107-.016.212-.035.317-.053a10.512 10.512 0 0 0 1.37-.34c.084-.028.17-.053.252-.082.242-.085.477-.177.702-.277l.027-.011a8.09 8.09 0 0 0 .67-.342c.068-.039.132-.08.198-.121a7.76 7.76 0 0 0 .415-.269c.071-.05.139-.102.208-.154.121-.092.237-.187.348-.285.037-.032.078-.06.113-.092-.115 2.011-3.004 3.688-6.412 3.688z"/></defs></svg>