<?xml version="1.0" encoding="utf-8"?>
<!-- Generator: Adobe Illustrator 19.0.0, SVG Export Plug-In . SVG Version: 6.00 Build 0)  -->
<svg version="1.1" id="Layer_1" xmlns="http://www.w3.org/2000/svg" xmlns:xlink="http://www.w3.org/1999/xlink" x="0px" y="0px"
	 viewBox="0 0 960 560" style="enable-background:new 0 0 960 560;" xml:space="preserve">
<style type="text/css">
	.st0{fill:#1E1E1E;}
	.st1{opacity:0.9;}
	.st2{opacity:0.85;fill:url(#XMLID_2_);}
	.st3{opacity:0.85;fill:url(#XMLID_3_);}
	.st4{opacity:0.25;}
	.st5{fill:url(#XMLID_4_);}
	.st6{fill:url(#XMLID_5_);}
	.st7{opacity:0.85;fill:url(#XMLID_7_);}
	.st8{fill:url(#XMLID_8_);}
	.st9{opacity:0.85;}
	.st10{fill:url(#XMLID_10_);}
	.st11{opacity:0.85;fill:url(#XMLID_15_);}
	.st12{opacity:0.85;fill:url(#XMLID_16_);}
	.st13{fill:url(#XMLID_17_);}
</style>
<g id="XMLID_444_">
	<g id="XMLID_31_">
		<path id="XMLID_32_" class="st0" d="M20,455.6c-7.1-6.5-10.7-15.9-10.7-28.2c0-6.6,1.4-12.9,4.3-18.8c2.9-5.9,7.2-10.7,12.8-14.3
			c5.6-3.6,12.4-5.5,20.3-5.5c5.8,0,10.8,0.6,15.2,1.7c2.6,0.7,5.1,1.6,7.4,2.6c2.6,1.2,4.1,4,3.7,6.8c-0.4,3.1-0.7,6.7-0.8,10.7
			c-0.1,3.2-2.5,5.9-5.6,6.4c0,0-0.1,0-0.1,0c-3.6,0.6-7-1.9-7.7-5.5c-0.6-3.3-1.7-5.9-3.1-8c-2.2-3.3-5.2-4.9-8.8-4.9
			c-4.4,0-7.8,2.4-10.3,7.2c-2.5,4.8-3.7,11.2-3.7,19.4c0,7.6,1.8,14.2,5.5,19.7c3.7,5.5,9.1,8.3,16.1,8.3c6.9,0,12.5-2.1,16.9-6.3
			c0.8,0.7,1.4,1.4,2,2.3c1.8,2.7,1.2,6.5-1.3,8.7c-2.3,1.9-5,3.5-8.1,4.8c-4.7,1.9-10,2.8-16,2.8C36.4,465.3,27.1,462.1,20,455.6z"
			/>
		<path id="XMLID_386_" class="st0" d="M175.7,454.5c1.9,4.7-2.1,9.8-7.2,9.6c-5.1-0.1-8.9-0.2-11.7-0.2c-8.9,0-15.8,0.1-20.7,0.4
			c-1.3,0.1-2.4-1-2.3-2.3c0.1-2.4,0.4-4.4,0.8-6.1c0.2-0.9,1.1-1.4,2-1.6c2.3-0.3,4.6-1.4,5.8-3.3c1.5-2.2,2.7-6.2,2.7-11.7v-16.9
			c0-6.4-1.5-11-3.5-13.8c-2-2.8-5.3-4.2-9.2-4.2c-4.3,0-8.3,2.3-11.4,6.8c-3.1,4.6-4.9,10.8-4.9,18.9v10.3c0,5.4,0.9,9,2.3,11
			c1.4,2,3.8,3,7,3c0.6,1.4,1.1,2.8,1.3,4.3c0.2,1.5,0.3,3.4,0.3,5.6c-4.6-0.3-12-0.5-22.2-0.5c-9.3,0-16.3,0.1-21.2,0.3
			c-1.3,0.1-2.4-1-2.3-2.3c0.1-2.4,0.3-4.3,0.7-5.8c0.2-1,1.1-1.7,2.1-1.7c3.3-0.2,5.1-1.2,6.3-2.8c1.4-1.9,1.7-5.6,1.7-11.1v-65.7
			c0-4-0.3-6.8-1.8-8.4c-1.3-1.4-3.5-2.3-7.1-2.7c-1.2-0.1-2.1-1.1-2-2.4c0.1-2.4,0.6-4.3,1.2-6c0.3-0.8,1.2-1.3,2-1.3
			c4.8-0.1,9.9-0.6,15.1-1.7c3.1-0.6,5.5-1.2,7.6-1.9c4.4-1.4,9,1.8,9,6.4c0,0.1,0,0.3,0,0.4v40.5c0,2.4-0.3,5.6-1.4,9.6
			c0.2-0.3,0.8-1.4,1.6-3.1c0.8-1.8,1.9-3.3,3-4.7c2.6-2.8,5.8-5.1,9.7-7c3.9-1.9,8.2-2.8,12.9-2.8c7.4,0,13.2,2.1,18.1,6.4
			c4.9,4.3,7,10.9,7,19.8v24.6c0,5.2,0.9,8.9,2.1,10.9c1.2,2,3.4,3.1,6.4,3.1C175.5,454.4,175.6,454.5,175.7,454.5z"/>
		<path id="XMLID_391_" class="st0" d="M266.3,452.8c0,2.6-0.5,5-1.4,7.2c-8.8,0.3-16.8,2.1-23.9,5.3c-1.8-0.7-3.1-1.8-3.9-3.3
			c-0.8-1.4-1.2-3.5-1.2-6c0-1.1,0.2-3.1,0.6-6.1c-1.7,4-4,7.1-6.7,9.3c-4.5,3.9-10.8,5.8-18.8,5.8c-7.3,0-12.9-1.6-16.9-4.7
			c-4-3.1-5.9-7.6-5.9-13.3c0-9.1,4.3-15.6,12.9-19.5c7-3.2,15.4-5.7,25.3-7.5c4.3-0.8,7.2-4.9,6.8-9.2c-0.1-1-0.2-1.9-0.4-2.6
			c-0.5-2.4-1.4-4.4-2.8-6c-2.4-2.7-5.4-4-9-4c-4.1,0-7.1,1.7-9.1,5.1c-1.1,1.9-1.9,4-2.6,6.4c-1,3.7-5,6.5-8.8,6.2c0,0,0,0-0.1,0
			c-2.1-0.2-4-0.6-5.7-1.3c0.2-2.8,0.3-5,0.3-6.7c0-2.2-0.1-4.2-0.3-6.2c-0.4-3.9,1.9-7.6,5.6-8.8c2.8-0.9,5.9-1.7,9.1-2.3
			c5.8-1.2,11.4-1.8,16.6-1.8c10.9,0,18.9,2.5,23.8,7.4c2.4,2.4,4.2,5.6,5.4,9.7c1.2,4.1,1.9,9.8,1.9,17v13.8c0,3.6,0.1,6.3,0.5,8.1
			c0.4,1.8,1.2,3,2.5,3.8c1.3,0.8,3.3,1.2,6.1,1.3C266.2,450.4,266.3,451.4,266.3,452.8z M235,427.6c-7,1.3-13.6,3-17.2,5.1
			c-3.6,2.1-5.9,5.5-5.9,10c0,2.9,0.5,5.1,2,6.5c1.4,1.4,3.1,2.2,5.3,2.2c2.4,0,4.6-0.7,6.8-2.2c2.2-1.5,4.8-3.7,6.2-6.7
			c1.4-2.9,2.9-6.5,2.9-10.7V427.6z"/>
		<path id="XMLID_395_" class="st0" d="M343.1,412.8c0,2.1,0.1,3.7,0.2,4.7c-1.8,0.7-4,1.1-6.6,1.4c-3.6,0.4-6.8-1.9-7.7-5.4
			c-0.3-1.2-0.7-2.2-1.2-2.9c-1.2-1.7-2.8-2.6-5-2.6c-1.6,0-3.3,0.9-5.1,2.8c-1.8,1.8-2.4,4.3-3.6,7.3c-1.4,3.5-1,7.4-1,11.1v6.5
			c0,4.7-0.4,8.4,0.7,10.9c1,2.6,2.2,4.4,4.5,5.5c1.3,0.7,2.7,1.2,4.7,1.6c3.1,0.6,5.4,3.2,5.6,6.4c0,0.6,0,1.2,0,1.8
			c0,1.3-1.1,2.4-2.4,2.3c-5.5-0.2-13.1-0.4-22.7-0.4c-8,0-14.6,0.1-19.8,0.2c-4.4,0.1-7.8-3.8-7-8c0,0,0,0,0-0.1c0.2-1,1-1.6,2-1.7
			c2.2-0.3,3.9-0.8,5.1-1.5c1.5-0.9,0.7-2.5,1.3-4.7c0.6-2.2-0.9-5.5-0.9-9.9v-21.5c0-3.3,1.6-5.8,1.1-7.6c-0.5-1.7-0.7-3-2.3-3.9
			c-1.3-0.7-2.6-1.1-5.1-1.4c-1.2-0.1-1.9-1.1-1.8-2.3c0-0.5,0.2-0.9,0.2-1.3c0.4-3.4,3.2-6,6.7-6.2c4-0.3,7.9-0.8,11.7-1.5
			c3-0.6,5.7-1.2,7.8-1.9c4.2-1.4,8.7,1.7,8.9,6.2c0,0.3,0,0.6,0,1c0,2.1-0.2,4.5-0.7,7.1c-0.5,2.6-1.1,5.4-1.8,8.3
			c1.7-5.2,3.1-8.6,4-10.1c2.5-4,5.4-7.1,8.9-9.5c3.5-2.4,7.3-3.5,11.3-3.5c2.2,0,4.3,0.3,6.3,1c3.1,1.1,5,4.2,4.7,7.5
			C343.4,403.2,343.1,408,343.1,412.8z"/>
		<path id="XMLID_407_" class="st0" d="M353.4,455.9c0.2-0.9,1.1-1.5,2-1.6c3.4-0.4,5.9-1.4,7.2-3c1.4-1.9,2.4-5.5,2.4-10.8v-25.6
			c0-4-1-6.8-2.5-8.4c-1.3-1.4-3.9-2.3-7.5-2.7c-1.2-0.1-2.2-1.2-2.2-2.4c0.1-2.3,0.5-4.3,1.1-6c0.3-0.8,1.1-1.3,2-1.3
			c4.8-0.1,9.9-0.7,15.1-1.7c3-0.6,4.5-1.2,6.6-1.8c4.5-1.3,8.3,1.9,8.3,6.6c0,0,0,0.1,0,0.1v43.1c0,5.4,1.7,9,3.1,10.8
			c1.2,1.6,3.8,2.6,6.9,3c1,0.1,2.1,0.8,2.3,1.8c0.3,1.5,0.6,3.5,0.7,5.8c0,1.3-1,2.4-2.3,2.3c-4.7-0.2-11.6-0.3-20.7-0.3
			c-9.3,0-16.2,0.1-20.9,0.3c-1.3,0.1-2.4-1-2.3-2.3C352.9,459.6,353.1,457.6,353.4,455.9z M364.8,373.3c-2.5-2.1-3.7-4.8-3.7-8.3
			c0-3.8,1.3-6.7,3.9-8.9c2.6-2.2,6-3.3,10-3.3c4.4,0,7.8,1.1,10.2,3.2c2.4,2.1,3.6,5.1,3.6,8.8c0,3.3-1.3,6.1-3.9,8.3
			c-2.6,2.2-6.1,3.3-10.5,3.3C370.5,376.5,367.2,375.4,364.8,373.3z"/>
		<path id="XMLID_414_" class="st0" d="M462.5,413.1c-2.2,0.5-4.6,0.8-6.9,0.8c-0.5-4.4-2.1-8-4.7-10.9s-6.1-4.3-10.6-4.3
			c-2.5,0-4.4,0.6-5.9,1.8c-1.4,1.2-2.2,2.9-2.2,4.9c0,1.7,0.4,3.2,1.1,4.3c0.7,1.2,2.4,2.5,4.9,3.9c2.5,1.4,6.3,3.2,11.5,5.2
			c6.2,2.5,11,4.8,14.4,7c3.4,2.2,5.8,4.6,7.2,7.2c1.4,2.6,2.2,5.8,2.2,9.4c0,7.2-3,12.8-9.1,16.8c-6.1,4-14.3,6-24.8,6
			c-6.3,0-11.7-0.5-16-1.4c-2-0.4-3.9-0.9-5.9-1.5c-4.1-1.3-6.8-5.3-6.6-9.6c0-1.1,0.1-2.2,0.1-3.4c0-3.9-0.2-7.1-0.5-9.6
			c1.5-0.9,3.4-1.5,5.8-2c2.4-0.5,4.7-0.7,7.1-0.7c0.5,5.8,2.2,10.2,5,13.3c2.8,3.1,6.4,4.6,10.8,4.6c3.1,0,5.6-0.7,7.6-2.2
			c1.9-1.4,2.9-3.3,2.9-5.7c0-2.6-1-4.7-3.1-6.3c-2-1.7-6.2-3.7-12.4-6.2c-5.6-2.1-10-4.2-13.2-6.3c-3.2-2-5.7-4.5-7.4-7.5
			c-2.4-4.1-3.1-9.7-2.2-16.8c0.2-1.9,1.1-3.7,2.4-5.1c6.5-6.7,15.7-10,27.4-10c5.6,0,10.4,0.4,14.5,1.2c1.7,0.3,2.1,0.7,3.7,1.2
			c4,1.2,5.4,5,5.4,9.2c0,0,0,0.1,0,0.1c0,4,1.4,7.5,1.8,10.4C465.4,411.9,464.7,412.6,462.5,413.1z"/>
		<path id="XMLID_418_" class="st0" d="M495,455.8c-7-6.7-10.5-15.8-10.5-27.4c0-8,1.8-15,5.3-20.9c3.5-5.9,8.4-10.4,14.6-13.5
			c6.2-3.1,13.2-4.7,21.1-4.7c13,0,22.9,3.4,29.9,10.3c7,6.9,10.4,16,10.4,27.3c0,7.8-1.7,14.7-5.1,20.6
			c-3.4,5.9-8.2,10.4-14.4,13.6c-6.2,3.2-13.4,4.7-21.7,4.7C511.9,465.8,502,462.5,495,455.8z M537.9,448.6c2.6-4.6,3.9-10.6,3.9-18
			c0-6.5-0.8-12.2-2.5-17c-1.7-4.8-3.9-8.4-6.7-10.9c-2.8-2.5-5.8-3.7-9.2-3.7c-4.7,0-8.3,2.2-10.8,6.7c-2.5,4.5-3.8,10.4-3.8,17.7
			c0,9.6,1.6,17.4,4.8,23.2c3.2,5.8,7.7,8.8,13.3,8.8C531.6,455.6,535.3,453.2,537.9,448.6z"/>
		<path id="XMLID_421_" class="st0" d="M575.7,455.9c0.2-0.9,1.1-1.5,2-1.6c3.4-0.4,5.3-1.4,6.5-3c1.4-1.9,1.7-5.5,1.7-10.8v-66.7
			c0-3.5-0.4-6.1-2.1-7.6c-1.4-1.3-3.6-2.1-7-2.5c-1.2-0.1-2.1-1.2-2-2.4c0.1-2.4,0.6-4.4,1.2-6c0.3-0.8,1.2-1.3,2-1.3
			c4.8-0.1,9.9-0.6,15.1-1.7c3-0.6,4.4-1.2,6.5-1.8c4.5-1.4,8.3,1.9,8.3,6.6c0,0,0,0.1,0,0.1v83.2c0,5.4,1.9,9,3.3,10.8
			c1.2,1.6,3.9,2.6,7,3c1,0.1,2.1,0.8,2.3,1.8c0.3,1.5,0.6,3.5,0.7,5.8c0,1.3-1,2.4-2.3,2.3c-4.7-0.2-11.6-0.3-20.7-0.3
			c-9.3,0-16.2,0.1-20.9,0.3c-1.3,0.1-2.4-1-2.3-2.3C575.1,459.6,575.3,457.6,575.7,455.9z"/>
		<path id="XMLID_442_" class="st0" d="M638.6,462.8c-2.5-2.4-3.8-5.7-3.8-9.8c0-4,1.4-7.3,4.2-9.8c2.8-2.5,6.4-3.8,10.7-3.8
			c3.8,0,7,1.3,9.5,3.9c2.5,2.6,3.8,5.5,3.8,8.8c0,4.2-1.3,7.7-3.9,10.4c-2.6,2.7-6,4-10.2,4C644.6,466.5,641.2,465.2,638.6,462.8z"
			/>
	</g>
	<g id="XMLID_9_" class="st1">
		<g id="XMLID_27_">
			<g id="XMLID_26_">
				
					<linearGradient id="XMLID_2_" gradientUnits="userSpaceOnUse" x1="660.6764" y1="232.3236" x2="960.0256" y2="232.3236" gradientTransform="matrix(0.9945 -0.1047 0.1047 0.9945 -24.6669 46.9009)">
					<stop  offset="2.153458e-007" style="stop-color:#8E44AD"/>
					<stop  offset="0.9928" style="stop-color:#BF4571"/>
				</linearGradient>
				<path id="XMLID_6_" class="st2" d="M678.7,277.2c-10,16.6-16.1,39.5-10.2,3.2c7.6-46.5-0.9-91.1,99.1-133.2
					C893,94.5,941.3,59.5,948.9,125.6c14.7,126.5-30.5,79.4-137.5,79.8C745.7,205.7,702.5,237.4,678.7,277.2z"/>
				
					<linearGradient id="XMLID_3_" gradientUnits="userSpaceOnUse" x1="660.9708" y1="303.489" x2="807.3902" y2="303.489" gradientTransform="matrix(0.9945 -0.1047 0.1047 0.9945 -24.6669 46.9009)">
					<stop  offset="2.153458e-007" style="stop-color:#8E44AD"/>
					<stop  offset="0.9928" style="stop-color:#BF4571"/>
				</linearGradient>
				<path id="XMLID_11_" class="st3" d="M680.1,302c-7,3.7-20.2,17.4-6.9-4.6c8.4-13.9,12.1-16.5,53.7-38.2
					c68.7-35.9,88.6-27.4,79.8,5.2c-10.8,40-22.1,28.7-67.6,22.6C711.4,283.2,697.7,292.6,680.1,302z"/>
				<g id="XMLID_23_" class="st4">
					
						<image style="overflow:visible;opacity:0.1;" width="308" height="235" id="XMLID_60_" xlink:href="1C00E7A6.png"  transform="matrix(1 0 0 1 654 80)">
					</image>
					<g id="XMLID_44_">
						
							<linearGradient id="XMLID_4_" gradientUnits="userSpaceOnUse" x1="660.0856" y1="232.3236" x2="959.3578" y2="232.3236" gradientTransform="matrix(0.9945 -0.1047 0.1047 0.9945 -24.6669 46.9009)">
							<stop  offset="2.153458e-007" style="stop-color:#8E44AD"/>
							<stop  offset="0.9928" style="stop-color:#BF4571"/>
						</linearGradient>
						<path id="XMLID_59_" class="st5" d="M674.3,280.1c-6.3,17.3-12.2,34.7-6.3-1.6c7.6-46.5,0.6-91,100.7-132.9
							c131.5-55.1,172.2-83.6,179.5-20.6c7.8,66.9-96.5,42.2-134.3,46.3C748.6,178.6,695.9,221,674.3,280.1z"/>
					</g>
				</g>
				<g id="XMLID_24_" class="st4">
					
						<image style="overflow:visible;opacity:0.52;" width="184" height="117" id="XMLID_58_" xlink:href="1C00E7AA.png"  transform="matrix(1 0 0 1 646 218)">
					</image>
					<g id="XMLID_45_">
						
							<linearGradient id="XMLID_5_" gradientUnits="userSpaceOnUse" x1="661.0667" y1="303.4331" x2="807.2944" y2="303.4331" gradientTransform="matrix(0.9945 -0.1047 0.1047 0.9945 -24.6669 46.9009)">
							<stop  offset="2.153458e-007" style="stop-color:#8E44AD"/>
							<stop  offset="0.9928" style="stop-color:#BF4571"/>
						</linearGradient>
						<path id="XMLID_57_" class="st6" d="M680,298.8c-6.2,4.7-19.9,22.4-6.8-1.4c7.9-14.2,12.1-16.5,53.7-38.2
							c68.7-35.9,88.5-27.4,79.8,5.2c-4.6,17.1-14.1,9.4-59.6,3.3C719.4,263.9,695.7,286.7,680,298.8z"/>
					</g>
				</g>
				<g id="XMLID_28_">
					
						<linearGradient id="XMLID_7_" gradientUnits="userSpaceOnUse" x1="664.4434" y1="337.3311" x2="747.8846" y2="337.3311" gradientTransform="matrix(0.9945 -0.1047 0.1047 0.9945 -24.6669 46.9009)">
						<stop  offset="2.153458e-007" style="stop-color:#8E44AD"/>
						<stop  offset="0.9928" style="stop-color:#BF4571"/>
					</linearGradient>
					<path id="XMLID_22_" class="st7" d="M679.2,312.3c-4.2,1.1-12.9,6.7-3.1-3.3c6.2-6.3,8.5-7.2,33.2-13.4
						c40.9-10.3,50.3-3.3,41.5,12.8c-10.8,19.8-15.3,12.4-38.6,3.4C698.1,306.4,689.6,309.6,679.2,312.3z"/>
					<g id="XMLID_25_" class="st4">
						
							<image style="overflow:visible;opacity:0.3;" width="96" height="37" id="XMLID_56_" xlink:href="1C00E7AD.png"  transform="matrix(1 0 0 1 665 285)">
						</image>
						<g id="XMLID_43_">
							
								<linearGradient id="XMLID_8_" gradientUnits="userSpaceOnUse" x1="664.0668" y1="333.6624" x2="748.2612" y2="333.6624" gradientTransform="matrix(0.9945 -0.1047 0.1047 0.9945 -24.6669 46.9009)">
								<stop  offset="2.153458e-007" style="stop-color:#8E44AD"/>
								<stop  offset="0.9928" style="stop-color:#BF4571"/>
							</linearGradient>
							<path id="XMLID_55_" class="st8" d="M678.8,312.2c-4.2,1.1-12.9,6.7-3.1-3.3c6.2-6.3,8.5-7.2,33.2-13.4
								c40.9-10.3,52.2-2.1,41.5,12.8c-7.2,10-15.5,2.4-38.7-6.6C697.6,296.3,689.3,309.5,678.8,312.2z"/>
						</g>
					</g>
				</g>
			</g>
		</g>
		<g id="XMLID_390_" class="st9">
			
				<image style="overflow:visible;opacity:0.1;" width="62" height="80" id="XMLID_50_" xlink:href="1C00E7AE.png"  transform="matrix(1 0 0 1 617 299)">
			</image>
			<g id="XMLID_38_">
				
					<linearGradient id="XMLID_10_" gradientUnits="userSpaceOnUse" x1="621.5621" y1="309.0727" x2="678.2135" y2="309.0727" gradientTransform="matrix(0.9937 0.1121 -0.1121 0.9937 35.3932 -42.8437)">
					<stop  offset="2.153458e-007" style="stop-color:#8E44AD"/>
					<stop  offset="0.9928" style="stop-color:#BF4571"/>
				</linearGradient>
				<path id="XMLID_49_" class="st10" d="M663.6,353.5c7.7-28.7-24.3-28.3-36.9-28.7c-2.7-0.1-8.3,0.3-7.1-0.9
					c1.7-1.6,3.1-1.6,3.2-9.6c0.2-13.9,14-13.1,16.1-13.3c7.4-0.5,38.1,4.6,35.3,40.1c-0.5,6.4,0.1,5.2-2.5,13.3
					c-10.4,32.4-19.2,15.3-18.3,13.4C654.3,366.3,660.1,366.8,663.6,353.5z"/>
			</g>
		</g>
		
			<linearGradient id="XMLID_15_" gradientUnits="userSpaceOnUse" x1="651.3351" y1="334.5035" x2="663.7866" y2="334.5035" gradientTransform="matrix(0.9933 0.1154 -0.1154 0.9933 36.6238 -43.6771)">
			<stop  offset="2.153458e-007" style="stop-color:#8E44AD"/>
			<stop  offset="0.9928" style="stop-color:#BF4571"/>
		</linearGradient>
		<path id="XMLID_13_" class="st11" d="M657.3,363.8c2.5-0.5-12.6,3.8-12.3,0.2C645.2,361.5,650.2,365.3,657.3,363.8z"/>
		
			<linearGradient id="XMLID_16_" gradientUnits="userSpaceOnUse" x1="651.131" y1="329.9814" x2="663.0953" y2="329.9814" gradientTransform="matrix(0.9933 0.1154 -0.1154 0.9933 36.6238 -43.6771)">
			<stop  offset="2.153458e-007" style="stop-color:#8E44AD"/>
			<stop  offset="0.9928" style="stop-color:#BF4571"/>
		</linearGradient>
		<path id="XMLID_12_" class="st12" d="M656.7,363c2.4,0.7-12.8-2.4-11-5.6C646.9,355.2,649.8,361,656.7,363z"/>
		<g id="XMLID_14_" class="st4">
			
				<image style="overflow:visible;opacity:0.23;" width="62" height="79" id="XMLID_54_" xlink:href="1C00E7AC.png"  transform="matrix(1 0 0 1 617 299)">
			</image>
			<g id="XMLID_42_">
				
					<linearGradient id="XMLID_17_" gradientUnits="userSpaceOnUse" x1="621.442" y1="308.9697" x2="677.9987" y2="308.9697" gradientTransform="matrix(0.9937 0.1121 -0.1121 0.9937 35.3932 -42.8437)">
					<stop  offset="2.153458e-007" style="stop-color:#8E44AD"/>
					<stop  offset="0.9928" style="stop-color:#BF4571"/>
				</linearGradient>
				<path id="XMLID_53_" class="st13" d="M668.2,348.8c10.8-36.6-17.9-37.3-35.6-33.3c-4.2,1-14.3,9.5-13.1,8.3
					c1.7-1.6,3.1-1.6,3.2-9.6c0.2-13.9,14-13.1,16.1-13.3c7.4-0.5,38.1,4.6,35.3,40.1c-0.5,6.4,0,5.1-2.5,13.3
					c-9,29.8-18.7,16.8-16.9,15.4C666.8,360.4,665.7,357.5,668.2,348.8z"/>
			</g>
		</g>
	</g>
</g>
</svg>
