<svg width="78" height="78" viewBox="0 0 78 78" version="1.1" xmlns="http://www.w3.org/2000/svg" xmlns:xlink="http://www.w3.org/1999/xlink">
<title>icon_money</title>
<desc>Created using Figma</desc>
<g id="Canvas" transform="translate(-3166 -2389)">
<g id="icon_money">
<g id="Ellipse">
<use xlink:href="#path0_fill" transform="translate(3166 2389)" fill="#FFFFFF"/>
</g>
<g id="001-coins">
<g id="Group">
<g id="Vector">
<use xlink:href="#path1_fill" transform="translate(3203.11 2407.29)" fill="url(#paint1_linear)"/>
</g>
<g id="Vector">
<use xlink:href="#path1_fill" transform="translate(3187.26 2407.29)" fill="url(#paint2_linear)"/>
</g>
<g id="Vector">
<use xlink:href="#path2_fill" transform="translate(3187.26 2441.61)" fill="url(#paint3_linear)"/>
</g>
<g id="Vector">
<use xlink:href="#path3_fill" transform="translate(3185 2405)" fill="url(#paint4_linear)"/>
</g>
</g>
</g>
</g>
</g>
<defs>
<linearGradient id="paint1_linear" x1="0" y1="0" x2="1" y2="0" gradientUnits="userSpaceOnUse" gradientTransform="matrix(5.3128 3.34418 -2.55776 58.7851 2.452 -25.2649)">
<stop offset="0" stop-color="#B721FF"/>
<stop offset="0.469613" stop-color="#C850C0"/>
<stop offset="1" stop-color="#FFCC70"/>
</linearGradient>
<linearGradient id="paint2_linear" x1="0" y1="0" x2="1" y2="0" gradientUnits="userSpaceOnUse" gradientTransform="matrix(5.3128 3.34418 -2.55776 58.7851 2.452 -25.2649)">
<stop offset="0" stop-color="#B721FF"/>
<stop offset="0.469613" stop-color="#C850C0"/>
<stop offset="1" stop-color="#FFCC70"/>
</linearGradient>
<linearGradient id="paint3_linear" x1="0" y1="0" x2="1" y2="0" gradientUnits="userSpaceOnUse" gradientTransform="matrix(5.3128 3.34418 -2.55776 58.7851 2.452 -25.2649)">
<stop offset="0" stop-color="#B721FF"/>
<stop offset="0.469613" stop-color="#C850C0"/>
<stop offset="1" stop-color="#FFCC70"/>
</linearGradient>
<linearGradient id="paint4_linear" x1="0" y1="0" x2="1" y2="0" gradientUnits="userSpaceOnUse" gradientTransform="matrix(40.2255 28.1867 -19.3659 495.475 18.5652 -212.947)">
<stop offset="0" stop-color="#B721FF"/>
<stop offset="0.469613" stop-color="#C850C0"/>
<stop offset="1" stop-color="#FFCC70"/>
</linearGradient>
<path id="path0_fill" d="M 78 39C 78 60.5391 60.5391 78 39 78C 17.4609 78 0 60.5391 0 39C 0 17.4609 17.4609 0 39 0C 60.5391 0 78 17.4609 78 39Z"/>
<path id="path1_fill" d="M 2.64151 5.33898C 4.09811 5.33898 5.28302 4.14153 5.28302 2.66949C 5.28302 1.19746 4.09811 0 2.64151 0C 1.18491 0 0 1.19746 0 2.66949C 0 4.14153 1.18491 5.33898 2.64151 5.33898ZM 2.64151 1.52542C 3.26566 1.52542 3.77359 2.03873 3.77359 2.66949C 3.77359 3.30025 3.26566 3.81356 2.64151 3.81356C 2.01736 3.81356 1.50943 3.30025 1.50943 2.66949C 1.50943 2.03873 2.01736 1.52542 2.64151 1.52542Z"/>
<path id="path2_fill" d="M 2.64151 0C 1.18491 0 0 1.19746 0 2.66949C 0 4.14153 1.18491 5.33898 2.64151 5.33898C 4.09811 5.33898 5.28302 4.14153 5.28302 2.66949C 5.28302 1.19746 4.09811 0 2.64151 0ZM 2.64151 3.81356C 2.01736 3.81356 1.50943 3.30025 1.50943 2.66949C 1.50943 2.03873 2.01736 1.52542 2.64151 1.52542C 3.26566 1.52542 3.77359 2.03873 3.77359 2.66949C 3.77359 3.30025 3.26566 3.81356 2.64151 3.81356Z"/>
<path id="path3_fill" d="M 32.4528 12.9783L 32.4528 0L 30.1887 0L 28.6792 0L 27.9245 0L 26.4151 0L 25.6604 0L 24.1509 0L 0 0L 0 44.2373L 18.1426 44.2373C 19.3381 44.7193 20.7419 45 22.2642 45C 24.1419 45 25.843 44.5775 27.1872 43.8681C 28.5774 44.598 30.2913 45 32.0755 45C 36.5192 45 40 42.6547 40 39.661L 40 36.6102L 40 33.5593L 40 30.5085L 40 27.4576L 40 24.4068L 40 21.3559L 40 18.3051C 40 15.3969 36.7132 13.108 32.4528 12.9783ZM 38.4906 18.3051C 38.4906 20.372 35.5525 22.1186 32.0755 22.1186C 28.5985 22.1186 25.6604 20.372 25.6604 18.3051C 25.6604 18.1777 25.6717 18.0519 25.6936 17.9275C 25.6996 17.8917 25.7125 17.8566 25.7208 17.8215C 25.7404 17.733 25.7608 17.6438 25.7909 17.5569C 25.8045 17.518 25.8249 17.4798 25.8408 17.4409C 25.874 17.3593 25.9064 17.2769 25.9494 17.1969C 25.9728 17.1526 26.003 17.1107 26.0294 17.0672C 26.0725 16.9947 26.1147 16.9223 26.1653 16.8521C 26.206 16.7957 26.2543 16.7408 26.3004 16.6851C 26.3442 16.6309 26.3849 16.5768 26.4332 16.5242C 26.5072 16.4433 26.5902 16.3647 26.6747 16.2869C 26.7011 16.2625 26.7245 16.2366 26.7517 16.213C 26.9849 16.007 27.2536 15.8118 27.557 15.6303C 27.8506 15.4541 28.1675 15.2985 28.5034 15.1612C 28.523 15.1528 28.5442 15.1459 28.5645 15.1375C 28.8966 15.0048 29.2453 14.8897 29.6136 14.7966C 29.6264 14.7936 29.64 14.7913 29.6528 14.7875C 29.9653 14.7097 30.2883 14.6471 30.6189 14.6006C 30.6325 14.5983 30.6453 14.596 30.6589 14.5945C 31.0068 14.5472 31.3623 14.5167 31.7245 14.5045L 32.0792 14.4915C 35.5547 14.4931 38.4906 16.2381 38.4906 18.3051ZM 38.4415 37.051C 38.4287 37.1151 38.4098 37.1784 38.3909 37.2425C 38.3736 37.3019 38.357 37.3614 38.3351 37.4194C 38.3109 37.4819 38.2815 37.5437 38.2521 37.6055C 38.2249 37.6627 38.1992 37.7199 38.1675 37.7764C 38.1336 37.8366 38.0943 37.8961 38.0551 37.9548C 38.0189 38.0097 37.9842 38.0654 37.9434 38.1188C 37.8996 38.1775 37.8506 38.234 37.8015 38.2904C 37.757 38.3423 37.7147 38.3949 37.6664 38.4453C 37.6128 38.5017 37.554 38.5558 37.4958 38.61C 37.4445 38.6588 37.3947 38.7076 37.3396 38.7549C 37.2777 38.8083 37.2098 38.8586 37.1434 38.9097C 37.0845 38.9547 37.0279 39.0005 36.966 39.0447C 36.8958 39.0943 36.8204 39.1409 36.7457 39.1881C 36.6808 39.2301 36.6174 39.272 36.5494 39.3125C 36.4717 39.3582 36.3894 39.4002 36.3079 39.4436C 36.2362 39.4818 36.1668 39.5207 36.0928 39.5565C 36.0075 39.5977 35.9177 39.6358 35.8287 39.6747C 35.7532 39.7083 35.6792 39.7426 35.6008 39.7739C 35.5072 39.8113 35.4083 39.8448 35.3109 39.8799C 35.2325 39.9081 35.1562 39.9379 35.0755 39.9638C 34.9751 39.9966 34.8694 40.0248 34.766 40.0538C 34.6838 40.0775 34.6038 40.1026 34.52 40.124C 34.4121 40.1514 34.3004 40.1736 34.1902 40.1972C 34.1064 40.2155 34.0249 40.2361 33.9396 40.2514C 33.8196 40.2735 33.6966 40.2903 33.5743 40.3086C 33.4951 40.3208 33.4166 40.3353 33.3358 40.3452C 33.1992 40.3619 33.0596 40.3726 32.9208 40.3841C 32.8513 40.3902 32.7834 40.3986 32.7132 40.4031C 32.5034 40.4169 32.2906 40.4237 32.0755 40.4237C 31.7804 40.4237 31.4898 40.4069 31.2015 40.3825C 31.123 40.3757 31.0453 40.368 30.9675 40.3597C 30.7253 40.3337 30.4853 40.2994 30.2483 40.2559C 30.2136 40.2498 30.1781 40.2453 30.1426 40.2384C 30.1721 40.0485 30.1887 39.8563 30.1887 39.661L 30.1887 38.7458C 30.2415 38.7542 30.2951 38.7572 30.3479 38.7648C 30.5517 38.7953 30.757 38.8205 30.963 38.8396C 31.0483 38.848 31.1328 38.8571 31.2181 38.8632C 31.5026 38.8846 31.7879 38.8983 32.0755 38.8983C 32.3842 38.8983 32.6868 38.8846 32.9857 38.8625C 33.0823 38.8556 33.1751 38.8434 33.2709 38.8342C 33.4725 38.8144 33.6717 38.7915 33.8672 38.7625C 33.9743 38.7465 34.0792 38.7275 34.1842 38.7092C 34.3653 38.6764 34.5434 38.6405 34.7185 38.5993C 34.8211 38.5757 34.9223 38.552 35.0226 38.5253C 35.2038 38.4781 35.3789 38.4247 35.5532 38.3682C 35.6377 38.3408 35.7238 38.3164 35.806 38.2874C 36.0475 38.202 36.283 38.1104 36.5079 38.0097C 36.517 38.0059 36.526 38.0029 36.5351 37.9991C 36.7683 37.8938 36.9902 37.7786 37.2045 37.6574C 37.2732 37.6185 37.3366 37.5765 37.403 37.5361C 37.5457 37.4492 37.6853 37.3607 37.8181 37.2676C 37.8891 37.2173 37.957 37.1654 38.0257 37.1136C 38.1472 37.0213 38.2626 36.9259 38.3743 36.8283C 38.4075 36.7986 38.4468 36.7726 38.4792 36.7429C 38.477 36.7848 38.4732 36.8275 38.4679 36.8695C 38.4604 36.929 38.4536 36.99 38.4415 37.051ZM 28.6302 37.051C 28.6174 37.1151 28.5985 37.1784 28.5796 37.2425C 28.5623 37.3019 28.5457 37.3614 28.5238 37.4194C 28.4996 37.4819 28.4702 37.5437 28.4408 37.6055C 28.4136 37.6627 28.3879 37.7199 28.3562 37.7764C 28.3223 37.8366 28.283 37.8961 28.2438 37.9548C 28.2075 38.0097 28.1728 38.0654 28.1321 38.1188C 28.0883 38.1775 28.0392 38.234 27.9902 38.2904C 27.9457 38.3423 27.9034 38.3949 27.8551 38.4453C 27.8015 38.5017 27.7426 38.5558 27.6845 38.61C 27.6332 38.6588 27.5834 38.7076 27.5283 38.7549C 27.4664 38.8083 27.3985 38.8586 27.3321 38.9097C 27.2732 38.9547 27.2166 39.0005 27.1547 39.0447C 27.0845 39.0943 27.0091 39.1409 26.9343 39.1881C 26.8694 39.2301 26.806 39.272 26.7381 39.3125C 26.6604 39.3582 26.5781 39.4002 26.4966 39.4436C 26.4249 39.4818 26.3555 39.5207 26.2815 39.5565C 26.1962 39.5977 26.1064 39.6358 26.0174 39.6747C 25.9419 39.7083 25.8679 39.7426 25.7894 39.7739C 25.6959 39.8113 25.597 39.8448 25.4996 39.8799C 25.4211 39.9081 25.3449 39.9379 25.2642 39.9638C 25.1638 39.9966 25.0581 40.0248 24.9547 40.0538C 24.8725 40.0775 24.7925 40.1026 24.7087 40.124C 24.6008 40.1514 24.4891 40.1736 24.3789 40.1972C 24.2951 40.2155 24.2136 40.2361 24.1283 40.2514C 24.0083 40.2735 23.8853 40.2903 23.763 40.3086C 23.6838 40.3208 23.6053 40.3353 23.5245 40.3452C 23.3879 40.3619 23.2483 40.3726 23.1094 40.3841C 23.04 40.3902 22.9721 40.3986 22.9019 40.4031C 22.6921 40.4169 22.4792 40.4237 22.2642 40.4237C 22.0491 40.4237 21.8362 40.4169 21.6257 40.4039C 21.5555 40.3993 21.4875 40.3909 21.4181 40.3848C 21.2785 40.3734 21.1389 40.3627 21.003 40.3459C 20.9223 40.336 20.8445 40.3215 20.7645 40.3093C 20.6423 40.291 20.5192 40.2742 20.3992 40.2521C 20.3147 40.2361 20.2332 40.2155 20.1494 40.198C 20.0385 40.1743 19.9268 40.1514 19.8181 40.124C 19.7343 40.1026 19.6551 40.0775 19.5736 40.0546C 19.4694 40.0248 19.3638 39.9966 19.2626 39.9638C 19.1819 39.9379 19.1057 39.9081 19.0272 39.8799C 18.9298 39.8448 18.8317 39.812 18.7374 39.7739C 18.6589 39.7426 18.5857 39.7075 18.5094 39.6747C 18.4211 39.6358 18.3306 39.5977 18.2453 39.5565C 18.1713 39.5207 18.1019 39.481 18.0302 39.4436C 17.9487 39.4002 17.8664 39.3582 17.7887 39.3125C 17.7208 39.2728 17.6574 39.2301 17.5925 39.1881C 17.5185 39.1409 17.4423 39.0943 17.3721 39.0447C 17.3102 39.0013 17.2536 38.9555 17.1947 38.9097C 17.1283 38.8586 17.0604 38.8083 16.9985 38.7549C 16.9434 38.7076 16.8936 38.6588 16.8423 38.61C 16.7842 38.5558 16.7253 38.5017 16.6717 38.4453C 16.6242 38.3949 16.5811 38.3423 16.5374 38.2912C 16.4891 38.234 16.4392 38.1775 16.3955 38.1188C 16.3555 38.0654 16.3208 38.0105 16.2845 37.9556C 16.2453 37.8961 16.2053 37.8366 16.1713 37.7764C 16.1396 37.7207 16.114 37.6627 16.0868 37.6055C 16.0574 37.5437 16.0279 37.4819 16.0038 37.4194C 15.9819 37.3614 15.9653 37.3019 15.9479 37.2425C 15.9291 37.1791 15.9102 37.1158 15.8974 37.051C 15.8853 36.9908 15.8785 36.929 15.8709 36.868C 15.8657 36.826 15.8626 36.7841 15.8596 36.7414C 15.8921 36.7711 15.9306 36.7978 15.9638 36.8268C 16.0755 36.9252 16.1917 37.0205 16.3132 37.1128C 16.3811 37.1647 16.4491 37.2165 16.52 37.2661C 16.6528 37.3599 16.7925 37.4484 16.9359 37.5353C 17.0023 37.5758 17.0657 37.6177 17.1343 37.6566C 17.3487 37.7779 17.5706 37.8931 17.8038 37.9983C 17.8121 38.0021 17.8204 38.0044 17.8287 38.0082C 18.0551 38.1097 18.2906 38.202 18.5328 38.2866C 18.6151 38.3156 18.7011 38.34 18.7857 38.3675C 18.9592 38.4231 19.1351 38.4765 19.3162 38.5246C 19.4166 38.5505 19.5177 38.5742 19.6204 38.5978C 19.7955 38.6382 19.9736 38.6748 20.1547 38.7076C 20.2596 38.7267 20.3645 38.745 20.4717 38.761C 20.6672 38.7908 20.8664 38.8129 21.0679 38.8327C 21.163 38.8419 21.2566 38.8541 21.3525 38.8609C 21.6528 38.8846 21.9555 38.8983 22.2642 38.8983C 22.5728 38.8983 22.8755 38.8846 23.1743 38.8625C 23.2709 38.8556 23.3638 38.8434 23.4596 38.8342C 23.6611 38.8144 23.8604 38.7915 24.0558 38.7625C 24.163 38.7465 24.2679 38.7275 24.3728 38.7092C 24.554 38.6764 24.7321 38.6405 24.9072 38.5993C 25.0098 38.5757 25.1109 38.552 25.2113 38.5253C 25.3925 38.4781 25.5675 38.4247 25.7419 38.3682C 25.8264 38.3408 25.9125 38.3164 25.9947 38.2874C 26.2362 38.202 26.4717 38.1104 26.6966 38.0097C 26.7057 38.0059 26.7147 38.0029 26.7238 37.9991C 26.957 37.8938 27.1789 37.7786 27.3932 37.6574C 27.4619 37.6185 27.5253 37.5765 27.5917 37.5361C 27.7343 37.4492 27.874 37.3607 28.0068 37.2676C 28.0777 37.2173 28.1457 37.1654 28.2143 37.1136C 28.3358 37.0213 28.4513 36.9259 28.563 36.8283C 28.5962 36.7986 28.6355 36.7726 28.6679 36.7429C 28.6657 36.7848 28.6619 36.8275 28.6566 36.8695C 28.6491 36.929 28.6423 36.99 28.6302 37.051ZM 5.28302 14.654L 5.28302 9.90076C 7.6883 9.71466 9.61283 7.76975 9.79698 5.33898L 15.8626 5.33898C 16.0468 7.76975 17.9721 9.71466 20.3766 9.90076L 20.3766 14.654C 20.3653 14.6425 20.3532 14.6326 20.3419 14.6212C 20.2151 14.4915 20.0792 14.3718 19.9457 14.249C 19.8166 14.1292 19.6913 14.0049 19.5577 13.892C 19.5087 13.8508 19.4558 13.8158 19.406 13.7761C 17.8581 12.5222 15.9879 11.7275 13.9804 11.507C 13.9555 11.504 13.9321 11.4986 13.9072 11.4956C 13.5525 11.4597 13.1932 11.4407 12.8302 11.4407C 12.4672 11.4407 12.1079 11.4597 11.7525 11.4956C 11.7275 11.4979 11.7042 11.504 11.6792 11.507C 9.6717 11.7267 7.80151 12.5222 6.25358 13.7761C 6.20377 13.8158 6.15094 13.8516 6.10189 13.892C 5.96755 14.0049 5.84226 14.1292 5.71396 14.249C 5.58113 14.3718 5.44453 14.4915 5.31774 14.6212C 5.30641 14.6326 5.29434 14.6425 5.28302 14.654ZM 23.4875 23.7181C 23.4989 23.7196 23.5102 23.7196 23.5215 23.7211C 23.92 23.7707 24.3117 23.8439 24.6958 23.94C 25.0264 24.0231 25.3404 24.1246 25.6415 24.239C 25.7887 24.2947 25.9321 24.3542 26.0717 24.4167C 26.1487 24.451 26.2287 24.4838 26.3026 24.5204C 26.5109 24.6234 26.7079 24.7347 26.8943 24.853C 26.9366 24.8789 26.9766 24.9064 27.0174 24.9331C 27.4257 25.2061 27.7759 25.5119 28.0438 25.8414C 28.0513 25.8506 28.0596 25.8605 28.0672 25.8697C 28.1585 25.9841 28.2385 26.1 28.3087 26.2167C 28.317 26.2304 28.326 26.2434 28.3336 26.2564C 28.3985 26.3669 28.4506 26.4791 28.4974 26.5912C 28.5064 26.6133 28.5177 26.6339 28.526 26.656C 28.566 26.7613 28.594 26.8673 28.6181 26.9741C 28.6241 27.0015 28.6347 27.029 28.64 27.0564C 28.6657 27.1907 28.6792 27.3234 28.6792 27.4576C 28.6792 29.5246 25.7411 31.2712 22.2642 31.2712C 18.7872 31.2712 15.8491 29.5246 15.8491 27.4576C 15.8491 27.1258 15.9321 26.804 16.074 26.4943C 16.2808 26.0413 16.6332 25.6126 17.1057 25.2297C 17.1358 25.2053 17.1668 25.1809 17.1985 25.1565C 17.3306 25.0543 17.4725 24.9559 17.6219 24.8614C 18.8008 24.1185 20.4574 23.6441 22.2642 23.6441C 22.6762 23.6441 23.0845 23.67 23.4875 23.7181ZM 26.126 21.8586C 26.194 21.9104 26.2619 21.9623 26.3328 22.0119C 26.4657 22.1057 26.6053 22.1942 26.7487 22.2811C 26.8151 22.3215 26.8785 22.3635 26.9472 22.4024C 27.1615 22.5236 27.3834 22.6388 27.6166 22.7441C 27.6249 22.7479 27.6332 22.7502 27.6415 22.754C 27.8679 22.8554 28.1034 22.9477 28.3457 23.0324C 28.4279 23.0614 28.514 23.0858 28.5985 23.1132C 28.7721 23.1689 28.9479 23.2223 29.1291 23.2703C 29.2294 23.2963 29.3306 23.3199 29.4332 23.3436C 29.6083 23.384 29.7864 23.4206 29.9675 23.4534C 30.0725 23.4725 30.1774 23.4908 30.2845 23.5068C 30.48 23.5365 30.6792 23.5586 30.8808 23.5785C 30.9758 23.5876 31.0694 23.5998 31.1653 23.6067C 31.4641 23.6303 31.7668 23.6441 32.0755 23.6441C 32.3842 23.6441 32.6868 23.6303 32.9857 23.6082C 33.0823 23.6014 33.1751 23.5892 33.2709 23.58C 33.4725 23.5602 33.6717 23.5373 33.8672 23.5083C 33.9743 23.4923 34.0792 23.4732 34.1842 23.4549C 34.3653 23.4221 34.5434 23.3863 34.7185 23.3451C 34.8211 23.3214 34.9223 23.2978 35.0226 23.2711C 35.2038 23.2238 35.3789 23.1704 35.5532 23.114C 35.6377 23.0865 35.7238 23.0621 35.806 23.0331C 36.0475 22.9477 36.283 22.8562 36.5079 22.7555C 36.517 22.7517 36.526 22.7486 36.5351 22.7448C 36.7683 22.6396 36.9902 22.5244 37.2045 22.4031C 37.2732 22.3642 37.3366 22.3223 37.403 22.2819C 37.5457 22.1949 37.6853 22.1064 37.8181 22.0134C 37.8891 21.9631 37.957 21.9112 38.0257 21.8593C 38.1472 21.767 38.2626 21.6717 38.3743 21.5741C 38.4075 21.5443 38.4468 21.5184 38.4792 21.4886C 38.477 21.5306 38.4732 21.5733 38.4679 21.6153C 38.4604 21.6763 38.4543 21.7381 38.4415 21.7983C 38.4287 21.8624 38.4098 21.9257 38.3909 21.9897C 38.3736 22.0492 38.357 22.1087 38.3351 22.1667C 38.3109 22.2292 38.2815 22.291 38.2521 22.3528C 38.2249 22.41 38.1992 22.4672 38.1675 22.5236C 38.1336 22.5839 38.0943 22.6434 38.0551 22.7021C 38.0189 22.757 37.9842 22.8127 37.9434 22.8661C 37.8996 22.9248 37.8506 22.9813 37.8015 23.0377C 37.757 23.0896 37.7147 23.1422 37.6664 23.1925C 37.6128 23.249 37.554 23.3031 37.4958 23.3573C 37.4445 23.4061 37.3947 23.4549 37.3396 23.5022C 37.2777 23.5556 37.2098 23.6059 37.1434 23.657C 37.0845 23.702 37.0279 23.7478 36.966 23.792C 36.8958 23.8416 36.8204 23.8881 36.7457 23.9354C 36.6808 23.9774 36.6174 24.0193 36.5494 24.0597C 36.4717 24.1055 36.3894 24.1475 36.3079 24.1909C 36.2362 24.2291 36.1668 24.268 36.0928 24.3038C 36.0075 24.345 35.9177 24.3831 35.8287 24.422C 35.7532 24.4556 35.6792 24.4899 35.6008 24.5212C 35.5072 24.5586 35.4083 24.5921 35.3109 24.6272C 35.2325 24.6554 35.1562 24.6852 35.0755 24.7111C 34.9751 24.7439 34.8694 24.7721 34.766 24.8011C 34.6838 24.8247 34.6038 24.8499 34.52 24.8713C 34.4121 24.8987 34.3004 24.9208 34.1902 24.9445C 34.1064 24.9628 34.0249 24.9834 33.9396 24.9986C 33.8196 25.0208 33.6966 25.0375 33.5743 25.0558C 33.4951 25.0681 33.4166 25.0825 33.3358 25.0925C 33.1992 25.1092 33.0596 25.1199 32.9208 25.1314C 32.8513 25.1375 32.7834 25.1458 32.7132 25.1504C 32.5034 25.1626 32.2906 25.1695 32.0755 25.1695C 31.8045 25.1695 31.5351 25.1581 31.2679 25.1375C 31.1826 25.1306 31.0996 25.1176 31.0151 25.1092C 30.834 25.0909 30.6536 25.0719 30.4762 25.0444C 30.3774 25.0292 30.2815 25.007 30.1834 24.9887C 30.0242 24.959 29.8641 24.9292 29.7087 24.8911C 29.6091 24.8667 29.5125 24.8369 29.4151 24.8103C 29.3026 24.779 29.1917 24.7462 29.083 24.7111C 28.3781 23.9057 27.3721 23.2421 26.1547 22.7883C 25.8551 22.3658 25.6898 21.9272 25.6642 21.481C 25.6989 21.5131 25.7404 21.5413 25.7766 21.5733C 25.8883 21.6709 26.0045 21.7663 26.126 21.8586ZM 37.8181 25.0635C 37.8891 25.0131 37.957 24.9613 38.0257 24.9094C 38.1472 24.8171 38.2626 24.7218 38.3743 24.6242C 38.4075 24.5944 38.4468 24.5685 38.4792 24.5387C 38.477 24.5807 38.4732 24.6234 38.4679 24.6653C 38.4604 24.7264 38.4543 24.7881 38.4415 24.8484C 38.4287 24.9125 38.4098 24.9758 38.3909 25.0398C 38.3736 25.0993 38.357 25.1588 38.3351 25.2168C 38.3109 25.2793 38.2815 25.3411 38.2521 25.4029C 38.2249 25.4601 38.1992 25.5173 38.1675 25.5737C 38.1336 25.634 38.0943 25.6935 38.0551 25.7522C 38.0189 25.8071 37.9842 25.8628 37.9434 25.9162C 37.8996 25.9749 37.8506 26.0314 37.8015 26.0878C 37.757 26.1397 37.7147 26.1923 37.6664 26.2426C 37.6128 26.2991 37.554 26.3532 37.4958 26.4074C 37.4445 26.4562 37.3947 26.505 37.3396 26.5523C 37.2777 26.6057 37.2098 26.656 37.1434 26.7071C 37.0845 26.7521 37.0279 26.7979 36.966 26.8421C 36.8958 26.8917 36.8204 26.9382 36.7457 26.9855C 36.6808 27.0275 36.6174 27.0694 36.5494 27.1098C 36.4717 27.1556 36.3894 27.1975 36.3079 27.241C 36.2362 27.2792 36.1668 27.3181 36.0928 27.3539C 36.0075 27.3951 35.9177 27.4332 35.8287 27.4721C 35.7532 27.5057 35.6792 27.54 35.6008 27.5713C 35.5072 27.6086 35.4083 27.6422 35.3109 27.6773C 35.2325 27.7055 35.1562 27.7353 35.0755 27.7612C 34.9751 27.794 34.8694 27.8222 34.766 27.8512C 34.6838 27.8748 34.6038 27.9 34.52 27.9214C 34.4121 27.9488 34.3004 27.9709 34.1902 27.9946C 34.1064 28.0129 34.0249 28.0335 33.9396 28.0487C 33.8196 28.0708 33.6966 28.0876 33.5743 28.1059C 33.4951 28.1181 33.4166 28.1326 33.3358 28.1425C 33.1992 28.1593 33.0596 28.17 32.9208 28.1814C 32.8513 28.1875 32.7834 28.1959 32.7132 28.2005C 32.5034 28.2135 32.2906 28.2203 32.0755 28.2203C 31.6958 28.2203 31.32 28.1929 30.9479 28.1517C 30.837 28.1395 30.7268 28.1212 30.6166 28.1052C 30.4725 28.0846 30.3313 28.0525 30.1887 28.0251L 30.1887 27.4576C 30.1887 27.2906 30.1751 27.1236 30.1525 26.9573C 30.1389 26.8528 30.1147 26.7514 30.0921 26.6484C 30.083 26.6064 30.0785 26.5645 30.0679 26.5233C 30.0853 26.5264 30.1026 26.5271 30.12 26.5302C 30.3336 26.566 30.5517 26.5897 30.7691 26.6141C 30.8762 26.6263 30.9811 26.6438 31.0891 26.653C 31.4158 26.6804 31.7449 26.6949 32.0755 26.6949C 32.3842 26.6949 32.6868 26.6812 32.9857 26.6591C 33.0823 26.6522 33.1751 26.64 33.2709 26.6308C 33.4725 26.611 33.6717 26.5881 33.8672 26.5592C 33.9743 26.5431 34.0792 26.5241 34.1842 26.5058C 34.3653 26.473 34.5434 26.4371 34.7185 26.3959C 34.8211 26.3723 34.9223 26.3486 35.0226 26.322C 35.2038 26.2747 35.3789 26.2213 35.5532 26.1648C 35.6377 26.1374 35.7238 26.113 35.806 26.084C 36.0475 25.9986 36.283 25.907 36.5079 25.8064C 36.517 25.8025 36.526 25.7995 36.5351 25.7957C 36.7683 25.6904 36.9902 25.5753 37.2045 25.454C 37.2732 25.4151 37.3366 25.3731 37.403 25.3327C 37.5457 25.2458 37.6853 25.1565 37.8181 25.0635ZM 37.8181 28.1143C 37.8891 28.064 37.957 28.0121 38.0257 27.9603C 38.1472 27.868 38.2626 27.7726 38.3743 27.675C 38.4075 27.6453 38.4468 27.6193 38.4792 27.5896C 38.477 27.6315 38.4732 27.6742 38.4679 27.7162C 38.4604 27.7772 38.4543 27.839 38.4415 27.8992C 38.4287 27.9633 38.4098 28.0266 38.3909 28.0907C 38.3736 28.1502 38.357 28.2097 38.3351 28.2676C 38.3109 28.3302 38.2815 28.3919 38.2521 28.4537C 38.2249 28.5109 38.1992 28.5681 38.1675 28.6246C 38.1336 28.6848 38.0943 28.7443 38.0551 28.8031C 38.0189 28.858 37.9842 28.9136 37.9434 28.967C 37.8996 29.0258 37.8506 29.0822 37.8015 29.1386C 37.757 29.1905 37.7147 29.2431 37.6664 29.2935C 37.6128 29.3499 37.554 29.4041 37.4958 29.4582C 37.4445 29.507 37.3947 29.5558 37.3396 29.6031C 37.2777 29.6565 37.2098 29.7069 37.1434 29.758C 37.0845 29.803 37.0279 29.8487 36.966 29.893C 36.8958 29.9425 36.8204 29.9891 36.7457 30.0364C 36.6808 30.0783 36.6174 30.1203 36.5494 30.1607C 36.4717 30.2064 36.3894 30.2484 36.3079 30.2919C 36.2362 30.33 36.1668 30.3689 36.0928 30.4047C 36.0075 30.4459 35.9177 30.4841 35.8287 30.523C 35.7532 30.5565 35.6792 30.5908 35.6008 30.6221C 35.5072 30.6595 35.4083 30.6931 35.3109 30.7281C 35.2325 30.7564 35.1562 30.7861 35.0755 30.812C 34.9751 30.8448 34.8694 30.8731 34.766 30.902C 34.6838 30.9257 34.6038 30.9508 34.52 30.9722C 34.4121 30.9997 34.3004 31.0218 34.1902 31.0454C 34.1064 31.0637 34.0249 31.0843 33.9396 31.0996C 33.8196 31.1217 33.6966 31.1385 33.5743 31.1568C 33.4951 31.169 33.4166 31.1835 33.3358 31.1934C 33.1992 31.2102 33.0596 31.2208 32.9208 31.2323C 32.8513 31.2384 32.7834 31.2468 32.7132 31.2514C 32.5034 31.2643 32.2906 31.2712 32.0755 31.2712C 31.6958 31.2712 31.32 31.2437 30.9479 31.2025C 30.837 31.1903 30.7268 31.172 30.6166 31.156C 30.4725 31.1354 30.3313 31.1034 30.1887 31.0759L 30.1887 30.5085L 30.1887 29.5932C 30.2415 29.6016 30.2951 29.6047 30.3479 29.6123C 30.5517 29.6428 30.757 29.668 30.963 29.687C 31.0483 29.6954 31.1328 29.7046 31.2181 29.7107C 31.5026 29.732 31.7879 29.7458 32.0755 29.7458C 32.3842 29.7458 32.6868 29.732 32.9857 29.7099C 33.0823 29.7031 33.1751 29.6908 33.2709 29.6817C 33.4725 29.6619 33.6717 29.639 33.8672 29.61C 33.9743 29.594 34.0792 29.5749 34.1842 29.5566C 34.3653 29.5238 34.5434 29.488 34.7185 29.4468C 34.8211 29.4231 34.9223 29.3995 35.0226 29.3728C 35.2038 29.3255 35.3789 29.2721 35.5532 29.2157C 35.6377 29.1882 35.7238 29.1638 35.806 29.1348C 36.0475 29.0494 36.283 28.9579 36.5079 28.8572C 36.517 28.8534 36.526 28.8503 36.5351 28.8465C 36.7683 28.7413 36.9902 28.6261 37.2045 28.5048C 37.2732 28.4659 37.3366 28.424 37.403 28.3836C 37.5457 28.2966 37.6853 28.2074 37.8181 28.1143ZM 37.8181 31.1652C 37.8891 31.1148 37.957 31.063 38.0257 31.0111C 38.1472 30.9188 38.2626 30.8235 38.3743 30.7258C 38.4075 30.6961 38.4468 30.6702 38.4792 30.6404C 38.477 30.6824 38.4732 30.7251 38.4679 30.767C 38.4604 30.8281 38.4543 30.8898 38.4415 30.9501C 38.4287 31.0142 38.4098 31.0775 38.3909 31.1415C 38.3736 31.201 38.357 31.2605 38.3351 31.3185C 38.3109 31.381 38.2815 31.4428 38.2521 31.5046C 38.2249 31.5618 38.1992 31.619 38.1675 31.6754C 38.1336 31.7357 38.0943 31.7952 38.0551 31.8539C 38.0189 31.9088 37.9842 31.9645 37.9434 32.0179C 37.8996 32.0766 37.8506 32.133 37.8015 32.1895C 37.757 32.2414 37.7147 32.294 37.6664 32.3443C 37.6128 32.4008 37.554 32.4549 37.4958 32.5091C 37.4445 32.5579 37.3947 32.6067 37.3396 32.654C 37.2777 32.7074 37.2098 32.7577 37.1434 32.8088C 37.0845 32.8538 37.0279 32.8996 36.966 32.9438C 36.8958 32.9934 36.8204 33.0399 36.7457 33.0872C 36.6808 33.1292 36.6174 33.1711 36.5494 33.2115C 36.4717 33.2573 36.3894 33.2992 36.3079 33.3427C 36.2362 33.3808 36.1668 33.4197 36.0928 33.4556C 36.0075 33.4968 35.9177 33.5349 35.8287 33.5738C 35.7532 33.6074 35.6792 33.6417 35.6008 33.673C 35.5072 33.7103 35.4083 33.7439 35.3109 33.779C 35.2325 33.8072 35.1562 33.8369 35.0755 33.8629C 34.9751 33.8957 34.8694 33.9239 34.766 33.9529C 34.6838 33.9765 34.6038 34.0017 34.52 34.0231C 34.4121 34.0505 34.3004 34.0726 34.1902 34.0963C 34.1064 34.1146 34.0249 34.1352 33.9396 34.1504C 33.8196 34.1725 33.6966 34.1893 33.5743 34.2076C 33.4951 34.2198 33.4166 34.2343 33.3358 34.2442C 33.1992 34.261 33.0596 34.2717 32.9208 34.2831C 32.8513 34.2892 32.7834 34.2976 32.7132 34.3022C 32.5034 34.3152 32.2906 34.322 32.0755 34.322C 31.6958 34.322 31.32 34.2946 30.9479 34.2534C 30.837 34.2412 30.7268 34.2229 30.6166 34.2069C 30.4725 34.1863 30.3313 34.1542 30.1887 34.1268L 30.1887 33.5593L 30.1887 32.6441C 30.2415 32.6525 30.2951 32.6555 30.3479 32.6631C 30.5517 32.6936 30.757 32.7188 30.963 32.7379C 31.0483 32.7463 31.1328 32.7554 31.2181 32.7615C 31.5026 32.7829 31.7879 32.7966 32.0755 32.7966C 32.3842 32.7966 32.6868 32.7829 32.9857 32.7608C 33.0823 32.7539 33.1751 32.7417 33.2709 32.7325C 33.4725 32.7127 33.6717 32.6898 33.8672 32.6608C 33.9743 32.6448 34.0792 32.6258 34.1842 32.6075C 34.3653 32.5747 34.5434 32.5388 34.7185 32.4976C 34.8211 32.474 34.9223 32.4503 35.0226 32.4236C 35.2038 32.3764 35.3789 32.323 35.5532 32.2665C 35.6377 32.2391 35.7238 32.2147 35.806 32.1857C 36.0475 32.1003 36.283 32.0087 36.5079 31.9081C 36.517 31.9042 36.526 31.9012 36.5351 31.8974C 36.7683 31.7921 36.9902 31.677 37.2045 31.5557C 37.2732 31.5168 37.3366 31.4748 37.403 31.4344C 37.5457 31.3475 37.6853 31.2582 37.8181 31.1652ZM 37.8181 34.216C 37.8891 34.1657 37.957 34.1138 38.0257 34.062C 38.1472 33.9697 38.2626 33.8743 38.3743 33.7767C 38.4075 33.7469 38.4468 33.721 38.4792 33.6913C 38.477 33.7332 38.4732 33.7759 38.4679 33.8179C 38.4604 33.8789 38.4543 33.9407 38.4415 34.0009C 38.4287 34.065 38.4098 34.1283 38.3909 34.1924C 38.3736 34.2519 38.357 34.3114 38.3351 34.3693C 38.3109 34.4319 38.2815 34.4936 38.2521 34.5554C 38.2249 34.6126 38.1992 34.6698 38.1675 34.7263C 38.1336 34.7865 38.0943 34.846 38.0551 34.9047C 38.0189 34.9597 37.9842 35.0153 37.9434 35.0687C 37.8996 35.1275 37.8506 35.1839 37.8015 35.2403C 37.757 35.2922 37.7147 35.3448 37.6664 35.3952C 37.6128 35.4516 37.554 35.5058 37.4958 35.5599C 37.4445 35.6087 37.3947 35.6575 37.3396 35.7048C 37.2777 35.7582 37.2098 35.8086 37.1434 35.8597C 37.0845 35.9047 37.0279 35.9504 36.966 35.9947C 36.8958 36.0442 36.8204 36.0908 36.7457 36.1381C 36.6808 36.18 36.6174 36.2219 36.5494 36.2624C 36.4717 36.3081 36.3894 36.3501 36.3079 36.3936C 36.2362 36.4317 36.1668 36.4706 36.0928 36.5064C 36.0075 36.5476 35.9177 36.5858 35.8287 36.6247C 35.7532 36.6582 35.6792 36.6925 35.6008 36.7238C 35.5072 36.7612 35.4083 36.7947 35.3109 36.8298C 35.2325 36.8581 35.1562 36.8878 35.0755 36.9137C 34.9751 36.9465 34.8694 36.9747 34.766 37.0037C 34.6838 37.0274 34.6038 37.0525 34.52 37.0739C 34.4121 37.1014 34.3004 37.1235 34.1902 37.1471C 34.1064 37.1654 34.0249 37.186 33.9396 37.2013C 33.8196 37.2234 33.6966 37.2402 33.5743 37.2585C 33.4951 37.2707 33.4166 37.2852 33.3358 37.2951C 33.1992 37.3119 33.0596 37.3225 32.9208 37.334C 32.8513 37.3401 32.7834 37.3485 32.7132 37.3531C 32.5034 37.366 32.2906 37.3729 32.0755 37.3729C 31.6958 37.3729 31.32 37.3454 30.9479 37.3042C 30.837 37.292 30.7268 37.2737 30.6166 37.2577C 30.4725 37.2371 30.3313 37.2051 30.1887 37.1776L 30.1887 36.6102L 30.1887 35.6949C 30.2415 35.7033 30.2951 35.7064 30.3479 35.714C 30.5517 35.7445 30.757 35.7697 30.963 35.7887C 31.0483 35.7971 31.1328 35.8063 31.2181 35.8124C 31.5026 35.8337 31.7879 35.8475 32.0755 35.8475C 32.3842 35.8475 32.6868 35.8337 32.9857 35.8116C 33.0823 35.8047 33.1751 35.7925 33.2709 35.7834C 33.4725 35.7636 33.6717 35.7407 33.8672 35.7117C 33.9743 35.6957 34.0792 35.6766 34.1842 35.6583C 34.3653 35.6255 34.5434 35.5897 34.7185 35.5485C 34.8211 35.5248 34.9223 35.5012 35.0226 35.4745C 35.2038 35.4272 35.3789 35.3738 35.5532 35.3174C 35.6377 35.2899 35.7238 35.2655 35.806 35.2365C 36.0475 35.1511 36.283 35.0596 36.5079 34.9589C 36.517 34.9551 36.526 34.952 36.5351 34.9482C 36.7683 34.843 36.9902 34.7278 37.2045 34.6065C 37.2732 34.5676 37.3366 34.5257 37.403 34.4853C 37.5457 34.3983 37.6853 34.3091 37.8181 34.216ZM 28.6302 34.0002C 28.6174 34.0642 28.5985 34.1275 28.5796 34.1916C 28.5623 34.2511 28.5457 34.3106 28.5238 34.3686C 28.4996 34.4311 28.4702 34.4929 28.4408 34.5547C 28.4136 34.6119 28.3879 34.6691 28.3562 34.7255C 28.3223 34.7858 28.283 34.8453 28.2438 34.904C 28.2075 34.9589 28.1728 35.0146 28.1321 35.068C 28.0883 35.1267 28.0392 35.1831 27.9902 35.2396C 27.9457 35.2914 27.9034 35.3441 27.8551 35.3944C 27.8015 35.4508 27.7426 35.505 27.6845 35.5592C 27.6332 35.608 27.5834 35.6568 27.5283 35.7041C 27.4664 35.7575 27.3985 35.8078 27.3321 35.8589C 27.2732 35.9039 27.2166 35.9497 27.1547 35.9939C 27.0845 36.0435 27.0091 36.09 26.9343 36.1373C 26.8694 36.1792 26.806 36.2212 26.7381 36.2616C 26.6604 36.3074 26.5781 36.3493 26.4966 36.3928C 26.4249 36.4309 26.3555 36.4698 26.2815 36.5057C 26.1962 36.5469 26.1064 36.585 26.0174 36.6239C 25.9419 36.6575 25.8679 36.6918 25.7894 36.723C 25.6959 36.7604 25.597 36.794 25.4996 36.8291C 25.4211 36.8573 25.3449 36.887 25.2642 36.913C 25.1638 36.9458 25.0581 36.974 24.9547 37.003C 24.8725 37.0266 24.7925 37.0518 24.7087 37.0731C 24.6008 37.1006 24.4891 37.1227 24.3789 37.1464C 24.2951 37.1647 24.2136 37.1853 24.1283 37.2005C 24.0083 37.2226 23.8853 37.2394 23.763 37.2577C 23.6838 37.2699 23.6053 37.2844 23.5245 37.2943C 23.3879 37.3111 23.2483 37.3218 23.1094 37.3332C 23.04 37.3393 22.9721 37.3477 22.9019 37.3523C 22.6921 37.366 22.4792 37.3729 22.2642 37.3729C 22.0491 37.3729 21.8362 37.366 21.6257 37.3531C 21.5555 37.3485 21.4875 37.3401 21.4181 37.334C 21.2785 37.3225 21.1389 37.3119 21.003 37.2951C 20.9223 37.2852 20.8445 37.2707 20.7645 37.2585C 20.6423 37.2402 20.5192 37.2234 20.3992 37.2013C 20.3147 37.1853 20.2332 37.1647 20.1494 37.1471C 20.0385 37.1235 19.9268 37.1006 19.8181 37.0731C 19.7343 37.0518 19.6551 37.0266 19.5736 37.0037C 19.4694 36.974 19.3638 36.9458 19.2626 36.913C 19.1819 36.887 19.1057 36.8573 19.0272 36.8291C 18.9298 36.794 18.8317 36.7612 18.7374 36.723C 18.6589 36.6918 18.5857 36.6567 18.5094 36.6239C 18.4211 36.585 18.3306 36.5469 18.2453 36.5057C 18.1713 36.4698 18.1019 36.4302 18.0302 36.3928C 17.9487 36.3493 17.8664 36.3074 17.7887 36.2616C 17.7208 36.2219 17.6574 36.1792 17.5925 36.1373C 17.5185 36.09 17.4423 36.0435 17.3721 35.9939C 17.3102 35.9504 17.2536 35.9047 17.1947 35.8589C 17.1283 35.8078 17.0604 35.7575 16.9985 35.7041C 16.9434 35.6568 16.8936 35.608 16.8423 35.5592C 16.7842 35.505 16.7253 35.4508 16.6717 35.3944C 16.6242 35.3441 16.5811 35.2914 16.5374 35.2403C 16.4891 35.1831 16.4392 35.1267 16.3955 35.068C 16.3555 35.0146 16.3208 34.9597 16.2845 34.9047C 16.2453 34.8453 16.2053 34.7858 16.1713 34.7255C 16.1396 34.6698 16.114 34.6119 16.0868 34.5547C 16.0574 34.4929 16.0279 34.4311 16.0038 34.3686C 15.9819 34.3106 15.9653 34.2511 15.9479 34.1916C 15.9291 34.1283 15.9102 34.065 15.8974 34.0002C 15.8853 33.9399 15.8785 33.8781 15.8709 33.8171C 15.8657 33.7752 15.8626 33.7332 15.8596 33.6905C 15.8921 33.7203 15.9306 33.7469 15.9638 33.7759C 16.0755 33.8743 16.1917 33.9697 16.3132 34.062C 16.3811 34.1138 16.4491 34.1657 16.52 34.2153C 16.6528 34.3091 16.7925 34.3975 16.9359 34.4845C 17.0023 34.5249 17.0657 34.5669 17.1343 34.6058C 17.3487 34.727 17.5706 34.8422 17.8038 34.9475C 17.8121 34.9513 17.8204 34.9536 17.8287 34.9574C 18.0551 35.0588 18.2906 35.1511 18.5328 35.2358C 18.6151 35.2647 18.7011 35.2892 18.7857 35.3166C 18.9592 35.3723 19.1351 35.4257 19.3162 35.4737C 19.4166 35.4997 19.5177 35.5233 19.6204 35.5469C 19.7955 35.5874 19.9736 35.624 20.1547 35.6568C 20.2596 35.6758 20.3645 35.6942 20.4717 35.7102C 20.6672 35.7399 20.8664 35.762 21.0679 35.7819C 21.163 35.791 21.2566 35.8032 21.3525 35.8101C 21.6528 35.8337 21.9555 35.8475 22.2642 35.8475C 22.5728 35.8475 22.8755 35.8337 23.1743 35.8116C 23.2709 35.8047 23.3638 35.7925 23.4596 35.7834C 23.6611 35.7636 23.8604 35.7407 24.0558 35.7117C 24.163 35.6957 24.2679 35.6766 24.3728 35.6583C 24.554 35.6255 24.7321 35.5897 24.9072 35.5485C 25.0098 35.5248 25.1109 35.5012 25.2113 35.4745C 25.3925 35.4272 25.5675 35.3738 25.7419 35.3174C 25.8264 35.2899 25.9125 35.2655 25.9947 35.2365C 26.2362 35.1511 26.4717 35.0596 26.6966 34.9589C 26.7057 34.9551 26.7147 34.952 26.7238 34.9482C 26.957 34.843 27.1789 34.7278 27.3932 34.6065C 27.4619 34.5676 27.5253 34.5257 27.5917 34.4853C 27.7343 34.3983 27.874 34.3098 28.0068 34.2168C 28.0777 34.1664 28.1457 34.1146 28.2143 34.0627C 28.3358 33.9704 28.4513 33.8751 28.563 33.7775C 28.5962 33.7477 28.6355 33.7218 28.6679 33.692C 28.6657 33.734 28.6619 33.7767 28.6566 33.8186C 28.6491 33.8781 28.6423 33.9392 28.6302 34.0002ZM 13.7313 31.217C 13.4302 31.2483 13.1291 31.2712 12.8302 31.2712C 12.474 31.2712 12.1223 31.2445 11.7743 31.2033C 11.6626 31.1903 11.5525 31.169 11.4423 31.1522C 11.2068 31.1156 10.9743 31.0714 10.7442 31.0164C 10.6189 30.9867 10.4943 30.9547 10.3706 30.9188C 10.1517 30.8563 9.9366 30.7831 9.72377 30.7045C 9.61057 30.6625 9.49509 30.6252 9.3834 30.5786C 9.08226 30.4536 8.78792 30.314 8.50264 30.1561C 8.41509 30.1073 8.33283 30.0501 8.24679 29.999C 8.03774 29.8739 7.83094 29.7435 7.6317 29.6016C 7.53132 29.5299 7.43472 29.4544 7.33736 29.3789C 7.1434 29.2279 6.95472 29.07 6.77208 28.903C 6.70264 28.8397 6.6317 28.7779 6.56453 28.7123C 6.41132 28.5628 6.27019 28.3988 6.12679 28.2379L 8.45887 25.6477C 8.77434 25.2984 9.20528 25.1207 9.57434 25.1878C 9.60906 25.1939 9.64377 25.2015 9.67849 25.2107C 9.79245 25.3007 10.0377 25.528 10.2053 25.6843C 10.6166 26.068 10.8853 26.3105 11.1026 26.4585C 11.5291 27.2883 12.12 27.6178 12.5585 27.7459C 13.0898 27.9015 13.6868 27.8535 14.3389 27.6155L 14.3389 30.5085L 14.3389 31.1247C 14.2574 31.1385 14.1766 31.1568 14.0951 31.1682C 13.9743 31.1865 13.8521 31.2041 13.7313 31.217ZM 3.81585 21.2797C 3.82189 21.2095 3.83019 21.1401 3.83774 21.0707C 3.86491 20.8297 3.90038 20.5917 3.94566 20.3568C 3.95245 20.3209 3.95698 20.2851 3.96453 20.25C 4.02038 19.98 4.08906 19.7138 4.16755 19.453C 4.18415 19.3981 4.20377 19.3439 4.22113 19.289C 4.28679 19.0861 4.35924 18.887 4.43849 18.6903C 4.46792 18.617 4.4966 18.5438 4.52755 18.4721C 4.61736 18.2647 4.71472 18.0618 4.81811 17.8627C 4.87245 17.7597 4.93057 17.6591 4.98868 17.5576C 5.05208 17.447 5.11774 17.3387 5.18566 17.2312C 5.18717 17.2289 5.18943 17.2258 5.19094 17.2236L 7.3683 19.6383C 7.92528 20.2569 8.66566 20.5879 9.40604 20.5917C 9.68 20.5871 9.94868 20.5406 10.2038 20.4514C 10.517 20.3415 10.7268 20.0914 10.9487 19.8267C 11.323 19.3836 11.6219 19.0678 12.0755 19.0678C 12.8249 19.0678 13.5457 19.3508 14.1049 19.8648L 14.9125 20.7046L 15.2913 19.6215C 15.4725 19.3942 16.3238 19.0937 16.8445 19.0342C 17.1381 19.8328 17.6566 21.7556 16.7343 23.6044C 16.6823 23.6387 16.6294 23.6723 16.5789 23.7074C 16.486 23.7714 16.4 23.8386 16.3117 23.9057C 16.2347 23.9644 16.1562 24.0216 16.083 24.0826C 15.9992 24.1528 15.9223 24.2268 15.8438 24.2992C 15.7758 24.3625 15.7057 24.4236 15.6423 24.4892C 15.5675 24.5654 15.5011 24.6455 15.4325 24.7248C 15.3743 24.7912 15.3132 24.8568 15.2596 24.9254C 15.1947 25.0078 15.1389 25.094 15.0808 25.1794C 15.0332 25.2488 14.9819 25.3167 14.9389 25.3876C 14.8838 25.4784 14.8385 25.5722 14.7909 25.6645C 14.7879 25.6706 14.7849 25.6759 14.7819 25.682C 14.0309 26.1793 13.3758 26.3975 12.9789 26.2792C 12.8875 26.2525 12.6121 26.1725 12.3721 25.6012L 12.1992 25.1908L 11.8958 25.1565C 11.7366 25.036 11.4249 24.7454 11.2279 24.5624C 10.7019 24.0735 10.4785 23.8714 10.2279 23.7859C 10.0981 23.7417 9.96679 23.7081 9.83472 23.6853C 8.9434 23.5266 8.01208 23.8775 7.3434 24.6211L 5.19094 27.0122C 5.18943 27.0099 5.18717 27.0076 5.18566 27.0053C 5.12302 26.9054 5.06189 26.804 5.00226 26.701C 4.93585 26.5866 4.87094 26.4722 4.80981 26.3563C 4.70943 26.1633 4.61509 25.9681 4.52906 25.7675C 4.4966 25.6935 4.46792 25.618 4.43774 25.5432C 4.36 25.3487 4.28755 25.1512 4.22264 24.9506C 4.20453 24.8949 4.18491 24.8392 4.16755 24.7828C 4.08906 24.5219 4.02038 24.2573 3.96453 23.9873C 3.95698 23.9514 3.95245 23.9148 3.94566 23.879C 3.90038 23.6448 3.86491 23.4061 3.83774 23.1658C 3.83019 23.0964 3.82189 23.027 3.81585 22.9569C 3.79094 22.6808 3.77358 22.4016 3.77358 22.1186C 3.77358 21.8357 3.79094 21.5565 3.81585 21.2797ZM 16.3147 31.0111C 16.3826 31.063 16.4506 31.1148 16.5215 31.1644C 16.6543 31.2582 16.794 31.3467 16.9374 31.4336C 17.0038 31.4741 17.0672 31.516 17.1358 31.5549C 17.3502 31.6762 17.5721 31.7914 17.8053 31.8966C 17.8136 31.9004 17.8219 31.9027 17.8302 31.9065C 18.0566 32.008 18.2921 32.1003 18.5343 32.1849C 18.6166 32.2139 18.7026 32.2383 18.7872 32.2658C 18.9608 32.3214 19.1366 32.3748 19.3177 32.4229C 19.4181 32.4488 19.5192 32.4725 19.6219 32.4961C 19.797 32.5365 19.9751 32.5731 20.1562 32.6059C 20.2611 32.625 20.366 32.6433 20.4732 32.6593C 20.6687 32.6891 20.8679 32.7112 21.0694 32.731C 21.1645 32.7402 21.2581 32.7524 21.354 32.7592C 21.6528 32.7829 21.9555 32.7966 22.2642 32.7966C 22.5728 32.7966 22.8755 32.7829 23.1743 32.7608C 23.2709 32.7539 23.3638 32.7417 23.4596 32.7325C 23.6611 32.7127 23.8604 32.6898 24.0558 32.6608C 24.163 32.6448 24.2679 32.6258 24.3728 32.6075C 24.554 32.5747 24.7321 32.5388 24.9072 32.4976C 25.0098 32.474 25.1109 32.4503 25.2113 32.4236C 25.3925 32.3764 25.5675 32.323 25.7419 32.2665C 25.8264 32.2391 25.9125 32.2147 25.9947 32.1857C 26.2362 32.1003 26.4717 32.0087 26.6966 31.9081C 26.7057 31.9042 26.7147 31.9012 26.7238 31.8974C 26.957 31.7921 27.1789 31.677 27.3932 31.5557C 27.4619 31.5168 27.5253 31.4748 27.5917 31.4344C 27.7343 31.3475 27.874 31.259 28.0068 31.1659C 28.0777 31.1156 28.1457 31.0637 28.2143 31.0119C 28.3358 30.9196 28.4513 30.8242 28.563 30.7266C 28.5962 30.6969 28.6355 30.6709 28.6679 30.6412C 28.6657 30.6831 28.6619 30.7258 28.6566 30.7678C 28.6491 30.8288 28.643 30.8906 28.6302 30.9508C 28.6174 31.0149 28.5985 31.0782 28.5796 31.1423C 28.5623 31.2018 28.5457 31.2613 28.5238 31.3192C 28.4996 31.3818 28.4702 31.4436 28.4408 31.5053C 28.4136 31.5625 28.3879 31.6197 28.3562 31.6762C 28.3223 31.7364 28.283 31.7959 28.2438 31.8547C 28.2075 31.9096 28.1728 31.9653 28.1321 32.0186C 28.0883 32.0774 28.0392 32.1338 27.9902 32.1903C 27.9457 32.2421 27.9034 32.2947 27.8551 32.3451C 27.8015 32.4015 27.7426 32.4557 27.6845 32.5098C 27.6332 32.5586 27.5834 32.6075 27.5283 32.6547C 27.4664 32.7081 27.3985 32.7585 27.3321 32.8096C 27.2732 32.8546 27.2166 32.9003 27.1547 32.9446C 27.0845 32.9942 27.0091 33.0407 26.9343 33.088C 26.8694 33.1299 26.806 33.1719 26.7381 33.2123C 26.6604 33.258 26.5781 33.3 26.4966 33.3435C 26.4249 33.3816 26.3555 33.4205 26.2815 33.4564C 26.1962 33.4975 26.1064 33.5357 26.0174 33.5746C 25.9419 33.6081 25.8679 33.6425 25.7894 33.6737C 25.6959 33.7111 25.597 33.7447 25.4996 33.7797C 25.4211 33.808 25.3449 33.8377 25.2642 33.8636C 25.1638 33.8964 25.0581 33.9247 24.9547 33.9536C 24.8725 33.9773 24.7925 34.0025 24.7087 34.0238C 24.6008 34.0513 24.4891 34.0734 24.3789 34.097C 24.2951 34.1153 24.2136 34.1359 24.1283 34.1512C 24.0083 34.1733 23.8853 34.1901 23.763 34.2084C 23.6838 34.2206 23.6053 34.2351 23.5245 34.245C 23.3879 34.2618 23.2483 34.2725 23.1094 34.2839C 23.04 34.29 22.9721 34.2984 22.9019 34.303C 22.6921 34.3152 22.4792 34.322 22.2642 34.322C 22.0491 34.322 21.8362 34.3152 21.6257 34.3022C 21.5555 34.2976 21.4875 34.2892 21.4181 34.2831C 21.2785 34.2717 21.1389 34.261 21.003 34.2442C 20.9223 34.2343 20.8445 34.2198 20.7645 34.2076C 20.6423 34.1893 20.5192 34.1725 20.3992 34.1504C 20.3147 34.1344 20.2332 34.1138 20.1494 34.0963C 20.0385 34.0726 19.9268 34.0497 19.8181 34.0223C 19.7343 34.0009 19.6551 33.9758 19.5736 33.9529C 19.4694 33.9231 19.3638 33.8949 19.2626 33.8621C 19.1819 33.8362 19.1057 33.8064 19.0272 33.7782C 18.9298 33.7431 18.8317 33.7103 18.7374 33.6722C 18.6589 33.6409 18.5857 33.6059 18.5094 33.5731C 18.4211 33.5342 18.3306 33.496 18.2453 33.4548C 18.1713 33.419 18.1019 33.3793 18.0302 33.3419C 17.9487 33.2985 17.8664 33.2565 17.7887 33.2108C 17.7208 33.1711 17.6574 33.1284 17.5925 33.0864C 17.5185 33.0392 17.4423 32.9926 17.3721 32.9431C 17.3102 32.8996 17.2536 32.8538 17.1947 32.8081C 17.1283 32.757 17.0604 32.7066 16.9985 32.6532C 16.9434 32.6059 16.8936 32.5571 16.8423 32.5083C 16.7842 32.4542 16.7253 32.4 16.6717 32.3436C 16.6242 32.2932 16.5811 32.2406 16.5374 32.1895C 16.4891 32.1323 16.4392 32.0758 16.3955 32.0171C 16.3555 31.9637 16.3208 31.9088 16.2845 31.8539C 16.2453 31.7944 16.2053 31.7349 16.1713 31.6747C 16.1396 31.619 16.114 31.561 16.0868 31.5038C 16.0574 31.442 16.0279 31.3803 16.0038 31.3177C 15.9819 31.2597 15.9653 31.2003 15.9479 31.1408C 15.9291 31.0775 15.9102 31.0142 15.8974 30.9493C 15.8853 30.8891 15.8785 30.8273 15.8709 30.7663C 15.8657 30.7243 15.8626 30.6824 15.8596 30.6397C 15.8921 30.6694 15.9306 30.6961 15.9638 30.7251C 16.077 30.8235 16.1932 30.9188 16.3147 31.0111ZM 21.277 22.1621C 21.1374 22.1736 21 22.1881 20.8634 22.2033C 20.7411 22.2178 20.6189 22.2323 20.4981 22.2498C 20.3638 22.2697 20.2317 22.2925 20.1004 22.3169C 19.9826 22.3391 19.8649 22.3604 19.7494 22.3864C 19.6204 22.4146 19.4943 22.4458 19.3691 22.4786C 19.2566 22.5076 19.1442 22.5366 19.0347 22.5686C 18.9117 22.6045 18.7917 22.6442 18.6725 22.6846C 18.6596 22.6892 18.646 22.693 18.6325 22.6975C 19.1441 20.2065 18.0845 18.0671 18.0287 17.9565L 17.8808 17.6652L 17.5698 17.5729C 16.9215 17.3814 15.4294 17.6629 14.5426 18.2853C 13.8121 17.8025 12.9577 17.5424 12.0755 17.5424C 10.8883 17.5424 10.1781 18.3875 9.79774 18.842C 9.73585 18.9153 9.68377 18.9831 9.63321 19.0342C 9.55396 19.0548 9.46868 19.0663 9.38189 19.067C 9.05811 19.0556 8.74943 18.9061 8.48453 18.6117L 6.1283 15.9986C 6.2717 15.8377 6.41208 15.6737 6.56528 15.525C 6.63245 15.4594 6.7034 15.3976 6.77283 15.3343C 6.95472 15.1673 7.14415 15.0094 7.33811 14.8584C 7.43547 14.7829 7.53208 14.7074 7.63245 14.6357C 7.8317 14.4938 8.03774 14.3634 8.24755 14.2383C 8.33358 14.1872 8.41585 14.1292 8.5034 14.0812C 8.78868 13.9241 9.08302 13.7845 9.38415 13.6586C 9.49509 13.6121 9.61057 13.5747 9.72453 13.5328C 9.93736 13.4542 10.1525 13.381 10.3713 13.3185C 10.4951 13.2834 10.6196 13.2514 10.7449 13.2208C 10.9751 13.1659 11.2075 13.1217 11.443 13.0851C 11.554 13.0675 11.6634 13.0469 11.7751 13.034C 12.1223 12.9928 12.474 12.9661 12.8302 12.9661C 13.1864 12.9661 13.5381 12.9928 13.886 13.034C 13.9977 13.0469 14.1079 13.0683 14.2181 13.0851C 14.4536 13.1217 14.686 13.1659 14.9162 13.2208C 15.0415 13.2506 15.166 13.2826 15.2898 13.3185C 15.5087 13.381 15.7238 13.4542 15.9366 13.5328C 16.0498 13.5747 16.1653 13.6121 16.277 13.6586C 16.5781 13.7837 16.8725 13.9233 17.1577 14.0812C 17.2453 14.13 17.3275 14.1872 17.4136 14.2383C 17.6226 14.3634 17.8294 14.4938 18.0287 14.6357C 18.1291 14.7074 18.2257 14.7829 18.323 14.8584C 18.517 15.0094 18.7057 15.1673 18.8883 15.3343C 18.9577 15.3976 19.0287 15.4594 19.0958 15.525C 19.6128 16.0299 20.0785 16.5997 20.4755 17.2319C 21.3638 18.6475 21.8868 20.3209 21.8868 22.1186C 21.8868 22.1202 21.8868 22.1225 21.8868 22.124C 21.8083 22.1263 21.7328 22.1347 21.6543 22.1385C 21.5275 22.1446 21.4023 22.1522 21.277 22.1621ZM 5.28302 29.5833C 5.29283 29.594 5.30491 29.6024 5.31472 29.6123C 5.57887 29.8823 5.85509 30.1393 6.14642 30.3803C 6.24906 30.4658 6.35849 30.5397 6.46415 30.6206C 6.6566 30.7678 6.84981 30.9135 7.05208 31.0477C 7.19245 31.1408 7.3366 31.2254 7.48151 31.3116C 7.66264 31.4199 7.84604 31.5244 8.03472 31.6213C 8.18717 31.6998 8.34038 31.7753 8.4966 31.8463C 8.69132 31.9355 8.88981 32.0156 9.09057 32.0926C 9.24528 32.1521 9.39925 32.2131 9.55698 32.265C 9.77962 32.339 10.0083 32.3985 10.2377 32.4572C 10.3796 32.4938 10.5185 32.5373 10.6619 32.5678C 11.0242 32.6441 11.3917 32.7036 11.766 32.7417C 11.8898 32.7539 12.0158 32.7531 12.1404 32.7608C 12.3691 32.776 12.597 32.7966 12.8302 32.7966C 12.8664 32.7966 12.9042 32.7905 12.9411 32.7897C 13.1502 32.7875 13.3608 32.7661 13.5713 32.7508C 13.7675 32.7364 13.963 32.7264 14.1615 32.6997C 14.2211 32.6921 14.2808 32.6929 14.3404 32.6845L 14.3404 33.5593L 14.3404 36.6102L 14.3404 38.8983L 9.79774 38.8983C 9.61359 36.4675 7.6883 34.5226 5.28377 34.3365L 5.28377 29.5833L 5.28302 29.5833ZM 30.9434 1.52542L 30.9434 13.0241C 30.6875 13.0477 30.4355 13.079 30.1887 13.1186L 30.1887 1.52542L 30.9434 1.52542ZM 28.6792 1.52542L 28.6792 13.4703C 28.4189 13.5519 28.1675 13.6419 27.9245 13.741L 27.9245 1.52542L 28.6792 1.52542ZM 26.4151 1.52542L 26.4151 14.5365C 26.1396 14.7242 25.8913 14.9286 25.6604 15.1429L 25.6604 1.52542L 26.4151 1.52542ZM 1.50943 42.7119L 1.50943 1.52542L 24.1509 1.52542L 24.1509 18.3051L 24.1509 21.3559L 24.1509 22.2712C 24.1502 22.2712 24.1494 22.2712 24.1487 22.2712C 23.9011 22.2315 23.6498 22.201 23.3932 22.1766C 23.394 22.1568 23.3962 22.1385 23.3962 22.1186C 23.3962 20.1173 22.8385 18.2494 21.8868 16.6469L 21.8868 8.29754L 21.0626 8.37381C 20.9608 8.38297 20.8589 8.38983 20.7547 8.38983C 18.8823 8.38983 17.3585 6.84992 17.3585 4.95763C 17.3585 4.85161 17.366 4.74712 17.3743 4.64339L 17.4475 3.81356L 8.21283 3.81356L 8.28604 4.64339C 8.29434 4.74712 8.30189 4.85161 8.30189 4.95763C 8.30189 6.84992 6.77811 8.38983 4.90566 8.38983C 4.80151 8.38983 4.69962 8.38297 4.59774 8.37381L 3.77358 8.29754L 3.77358 16.6469C 3.76377 16.6637 3.75321 16.6813 3.74264 16.6981C 3.64226 16.8689 3.54415 17.0405 3.45283 17.2175C 3.33585 17.4432 3.22491 17.6713 3.12528 17.9039C 3.0883 17.9893 3.05811 18.0778 3.0234 18.1647C 2.93509 18.3859 2.85283 18.6086 2.78038 18.8352C 2.75019 18.9305 2.72302 19.0266 2.69509 19.1227C 2.63019 19.3469 2.57208 19.5727 2.52226 19.8015C 2.49962 19.903 2.47774 20.0044 2.45887 20.1066C 2.41434 20.3431 2.37962 20.581 2.35094 20.8213C 2.33962 20.9174 2.32453 21.0112 2.31547 21.108C 2.28377 21.4421 2.26415 21.7785 2.26415 22.1186C 2.26415 22.4588 2.28377 22.7952 2.31472 23.1292C 2.32377 23.2261 2.33887 23.3199 2.35019 23.416C 2.37887 23.6563 2.41358 23.8942 2.45811 24.1307C 2.47774 24.2329 2.49962 24.3343 2.52151 24.4358C 2.57132 24.6646 2.62943 24.8903 2.69434 25.1146C 2.72226 25.2107 2.74943 25.3068 2.77962 25.4021C 2.85208 25.6286 2.93509 25.8514 3.02264 26.0725C 3.05736 26.1595 3.08755 26.248 3.12453 26.3334C 3.22415 26.566 3.33585 26.7941 3.45208 27.0198C 3.54264 27.1968 3.64151 27.3684 3.74189 27.5392C 3.75321 27.5568 3.76377 27.5736 3.77358 27.5903L 3.77358 35.9397L 4.59774 35.8635C 4.69962 35.8543 4.80151 35.8475 4.90566 35.8475C 6.77811 35.8475 8.30189 37.3874 8.30189 39.2797C 8.30189 39.3857 8.29434 39.4902 8.28604 39.5939L 8.21283 40.4237L 14.4211 40.4237C 14.4347 40.4878 14.4513 40.5511 14.4679 40.6144C 14.4875 40.6914 14.5079 40.7677 14.5328 40.8432C 14.5532 40.905 14.5774 40.9653 14.6008 41.0263C 14.8332 41.6403 15.2136 42.2092 15.726 42.7119L 1.50943 42.7119ZM 18.3962 42.6753C 18.3208 42.6409 18.2468 42.6051 18.1743 42.5692C 18.0709 42.5174 17.9683 42.4647 17.8702 42.4091C 17.8045 42.3717 17.7434 42.3328 17.6808 42.2939C 17.5042 42.1856 17.3389 42.0712 17.1849 41.9514C 17.1328 41.911 17.0762 41.8721 17.0272 41.8302C 16.9577 41.7714 16.8958 41.7104 16.8317 41.6494C 16.7713 41.5922 16.7109 41.5342 16.6558 41.4755C 16.6023 41.4183 16.5525 41.3596 16.5034 41.3008C 16.446 41.2314 16.3925 41.1613 16.3426 41.0896C 16.3057 41.0369 16.2679 40.9836 16.2347 40.9302C 16.1774 40.8364 16.1275 40.741 16.083 40.6449C 16.0664 40.6098 16.046 40.5763 16.0317 40.5404C 15.9766 40.4069 15.9336 40.2712 15.9034 40.1339C 15.8958 40.0988 15.8943 40.0622 15.8883 40.0271C 15.8755 39.9501 15.8687 39.8715 15.8642 39.7937C 15.8958 39.8227 15.9336 39.8486 15.966 39.8776C 16.0777 39.976 16.194 40.0714 16.3155 40.1636C 16.3834 40.2155 16.4513 40.2674 16.5223 40.3169C 16.6551 40.4108 16.7947 40.4992 16.9381 40.5862C 17.0045 40.6266 17.0679 40.6686 17.1366 40.7075C 17.3509 40.8287 17.5728 40.9439 17.806 41.0492C 17.8143 41.053 17.8226 41.0553 17.8309 41.0591C 18.0574 41.1605 18.2928 41.2528 18.5351 41.3375C 18.6174 41.3664 18.7034 41.3908 18.7879 41.4183C 18.9615 41.474 19.1374 41.5274 19.3185 41.5754C 19.4189 41.6014 19.52 41.625 19.6226 41.6486C 19.7977 41.6891 19.9758 41.7257 20.157 41.7585C 20.2619 41.7775 20.3668 41.7958 20.474 41.8119C 20.6694 41.8416 20.8687 41.8637 21.0702 41.8836C 21.1653 41.8927 21.2589 41.9049 21.3547 41.9118C 21.6528 41.9354 21.9555 41.9492 22.2642 41.9492C 22.5728 41.9492 22.8755 41.9354 23.1743 41.9133C 23.2709 41.9064 23.3638 41.8942 23.4596 41.8851C 23.6611 41.8653 23.8604 41.8424 24.0558 41.8134C 24.163 41.7974 24.2679 41.7783 24.3728 41.76C 24.554 41.7272 24.7321 41.6914 24.9072 41.6502C 25.0098 41.6265 25.1109 41.6029 25.2113 41.5762C 25.3925 41.5289 25.5675 41.4755 25.7419 41.4191C 25.8264 41.3916 25.9125 41.3672 25.9947 41.3382C 26.2362 41.2528 26.4717 41.1613 26.6966 41.0606C 26.7057 41.0568 26.7147 41.0537 26.7238 41.0499C 26.957 40.9447 27.1789 40.8295 27.3932 40.7082C 27.4619 40.6693 27.5253 40.6274 27.5917 40.5869C 27.7343 40.5 27.874 40.4115 28.0068 40.3185C 28.0777 40.2681 28.1457 40.2163 28.2143 40.1644C 28.3358 40.0721 28.4513 39.9768 28.563 39.8792C 28.5955 39.8502 28.6332 39.825 28.6649 39.7953C 28.6596 39.8738 28.6543 39.9531 28.64 40.0332C 28.637 40.0531 28.6355 40.0729 28.6317 40.0919C 28.6023 40.2285 28.56 40.3673 28.5026 40.5107L 28.5011 40.5145C 28.2974 41.0217 27.9162 41.4992 27.3872 41.9202C 27.3721 41.9316 27.357 41.9431 27.3419 41.9545C 27.1826 42.0781 27.0098 42.1963 26.8249 42.3092C 26.7879 42.332 26.754 42.3564 26.7155 42.3778L 26.6996 42.387C 25.5374 43.0566 23.9653 43.4746 22.2642 43.4746C 20.8249 43.4746 19.4808 43.1725 18.3962 42.6753ZM 32.0755 43.4746C 30.8453 43.4746 29.6619 43.2603 28.637 42.8621C 29.0309 42.5036 29.3623 42.1108 29.6128 41.6883C 29.6264 41.6914 29.64 41.6921 29.6536 41.6952C 30.0023 41.7699 30.3577 41.8256 30.717 41.8668C 30.7962 41.8759 30.8755 41.8828 30.9547 41.8904C 31.3245 41.9255 31.6974 41.9492 32.0755 41.9492C 32.3842 41.9492 32.6868 41.9354 32.9857 41.9133C 33.0823 41.9064 33.1751 41.8942 33.2709 41.8851C 33.4725 41.8653 33.6717 41.8424 33.8672 41.8134C 33.9743 41.7974 34.0792 41.7783 34.1842 41.76C 34.3653 41.7272 34.5434 41.6914 34.7185 41.6502C 34.8211 41.6265 34.9223 41.6029 35.0226 41.5762C 35.2038 41.5289 35.3789 41.4755 35.5532 41.4191C 35.6377 41.3916 35.7238 41.3672 35.806 41.3382C 36.0475 41.2528 36.283 41.1613 36.5079 41.0606C 36.517 41.0568 36.526 41.0537 36.5351 41.0499C 36.7683 40.9447 36.9902 40.8295 37.2045 40.7082C 37.2732 40.6693 37.3366 40.6274 37.403 40.5869C 37.5457 40.5 37.6853 40.4115 37.8181 40.3185C 37.8891 40.2681 37.957 40.2163 38.0257 40.1644C 38.1472 40.0721 38.2626 39.9768 38.3743 39.8792C 38.4106 39.8471 38.4521 39.8189 38.4868 39.7869C 38.3721 41.7981 35.483 43.4746 32.0755 43.4746Z"/>
</defs>
</svg>
