<svg width="43" height="43" xmlns="http://www.w3.org/2000/svg" xmlns:xlink="http://www.w3.org/1999/xlink"><use xlink:href="#path0_fill" fill="#FFF"/><use xlink:href="#path1_fill" transform="translate(8 13.22)" fill="#8064FF"/><use xlink:href="#path2_fill" transform="translate(12.34 8)" fill="#8064FF"/><use xlink:href="#path3_fill" transform="translate(17.12 27.14)" fill="#8064FF"/><use xlink:href="#path4_fill" transform="translate(19.29 27.14)" fill="#8064FF"/><use xlink:href="#path5_fill" transform="translate(23.2 25.83)" fill="#8064FF"/><use xlink:href="#path6_fill" transform="translate(29.29 25.83)" fill="#8064FF"/><defs><path id="path0_fill" d="M43 21.5C43 33.374 33.374 43 21.5 43S0 33.374 0 21.5 9.626 0 21.5 0 43 9.626 43 21.5z"/><path id="path1_fill" d="M25.459 9.167l-5.476 2.35v-1.95a.434.434 0 0 0-.606-.4l-6 2.574h-1.214V8.426c0-.571-.462-1.034-1.032-1.034H9.72c-.57 0-1.033.463-1.033 1.034v3.315H6.92L6.08.403A.435.435 0 0 0 5.648 0H3.041a.435.435 0 0 0-.433.403l-.84 11.338h-.465a.435.435 0 0 0-.431.387l-.87 7.827a.435.435 0 0 0 .432.483H25.63c.24 0 .434-.195.434-.435V9.567a.434.434 0 0 0-.605-.4zM9.557 8.426c0-.09.073-.164.164-.164h1.41c.09 0 .163.073.163.164v3.315H9.557V8.426zm-.434 4.184h3.909v6.958h-4.39L7.87 12.61h1.253zM3.444.87h1.8l.804 10.87H2.64L3.444.87zM1.692 12.61h5.304l.344 3.095.428 3.863H6.082v-3.044a.435.435 0 0 0-.435-.435H3.041a.435.435 0 0 0-.434.435v3.044H.92l.772-6.958zm1.783 6.958v-2.609h1.738v2.609H3.475zm10.426-7.106l5.213-2.236v9.342H17.81V16.96a.435.435 0 0 0-.435-.435H15.64a.435.435 0 0 0-.435.435v2.61h-1.303v-7.107zm2.172 7.106v-2.174h.869v2.174h-.869zm6.95 0h-.868v-2.174h.868v2.174zm2.172 0h-1.303v-2.609a.435.435 0 0 0-.434-.435H21.72a.435.435 0 0 0-.434.435v2.609h-1.303v-7.106l5.212-2.236v9.342z"/><path id="path2_fill" d="M.593 4.323a7.796 7.796 0 0 1 .64-.205c.344-.094.682-.16.992-.189.77-.07 1.18.092 1.259.505.007.078.037.262.092.494.091.386.22.772.397 1.136.526 1.087 1.361 1.767 2.544 1.767.458.013.918-.003 1.365-.067.596-.086 1.07-.24 1.36-.504.649.65 1.28 1.059 1.885 1.275.42.15.774.192 1.042.168.875-.01 1.683-.374 2.428-.966a6.3 6.3 0 0 0 .648-.595c.73.572 1.489.744 2.118.693l.364-.008c3.25-.074 4.913-3.959 2.663-6.293a2.457 2.457 0 0 0-.116-.114.434.434 0 0 0-.725.323c0 1.139-.267 1.762-.675 2.033a.862.862 0 0 1-.552.148l-.076-.006c-.814 0-1.648-.747-2.35-1.845-.41-.645-.903-1.174-1.48-1.56-.603-.404-1.078-.54-1.409-.509-1.062.006-1.931.374-2.609.98a4.228 4.228 0 0 0-.256.25C9.94.954 9.64.747 9.272.613A2.94 2.94 0 0 0 8.253.439C7.25.439 6.417.615 5.75.91a3.441 3.441 0 0 0-.695.398h-.71c-1.505 0-2.644.45-3.448 1.204-.492.463-.762.932-.873 1.268a.435.435 0 0 0 .57.542zm3.752-2.145h.869a.434.434 0 0 0 .304-.125c.075-.073.265-.206.583-.347.557-.247 1.27-.397 2.153-.397a2.13 2.13 0 0 1 .721.121c.386.14.583.364.583.748 0 .462.624.605.825.19a2.952 2.952 0 0 1 .595-.735c.53-.476 1.205-.76 2.055-.76l.08-.007c-.005.002.055.008.154.036.18.052.403.158.667.334.47.314.88.756 1.23 1.305.843 1.32 1.856 2.231 3.051 2.246.366.035.76-.034 1.14-.286.464-.309.79-.828.95-1.576.808 1.755-.439 3.984-2.598 4.033-.107.002-.216.004-.33.004l-.064.004a1.905 1.905 0 0 1-.591-.05 2.439 2.439 0 0 1-1-.506 2.921 2.921 0 0 1-.21-.19.434.434 0 0 0-.652.042 5.46 5.46 0 0 1-.804.794c-.613.488-1.257.775-1.892.775l-.073.006c-.145.013-.373-.014-.671-.12-.481-.173-1.004-.511-1.555-1.063L9.43 6.22l-.868-.87a.434.434 0 1 0-.615.615l.67.67c-.125.1-.414.205-.859.269a7.134 7.134 0 0 1-1.22.059c-.822 0-1.39-.462-1.784-1.277a4.663 4.663 0 0 1-.332-.957 3.91 3.91 0 0 1-.08-.424c-.19-1.012-1.037-1.347-2.196-1.241-.22.02-.445.056-.675.103.663-.622 1.588-.988 2.874-.988z"/><path id="path3_fill" d="M.434 4.348c.24 0 .435-.194.435-.434V.434a.435.435 0 1 0-.869 0v3.48c0 .24.195.434.434.434z"/><path id="path4_fill" d="M.434 4.348c.24 0 .435-.194.435-.434V.434a.435.435 0 1 0-.869 0v3.48c0 .24.194.434.434.434z"/><path id="path5_fill" d="M.434 2.609h1.738c.24 0 .434-.195.434-.435V.434A.435.435 0 0 0 2.172 0H.434A.435.435 0 0 0 0 .435v1.74c0 .24.194.434.434.434zM.87.869h.869v.87h-.87V.87z"/><path id="path6_fill" d="M.434 2.609h1.738c.24 0 .434-.195.434-.435V.434A.435.435 0 0 0 2.172 0H.434A.435.435 0 0 0 0 .435v1.74c0 .24.194.434.434.434zM.87.869h.869v.87h-.87V.87z"/></defs></svg>