<svg width="43" height="43" xmlns="http://www.w3.org/2000/svg" xmlns:xlink="http://www.w3.org/1999/xlink"><use xlink:href="#path0_fill" fill="#FFF"/><use xlink:href="#path1_fill" transform="translate(8.32 8.32)" fill="#8064FF"/><use xlink:href="#path2_fill" transform="translate(14.07 17.72)" fill="#8064FF"/><use xlink:href="#path3_fill" transform="translate(22.04 17.72)" fill="#8064FF"/><use xlink:href="#path4_fill" transform="translate(14.07 25.63)" fill="#8064FF"/><use xlink:href="#path5_fill" transform="translate(22.04 25.63)" fill="#8064FF"/><defs><path id="path0_fill" d="M43 21.5C43 33.374 33.374 43 21.5 43S0 33.374 0 21.5 9.626 0 21.5 0 43 9.626 43 21.5z"/><path id="path1_fill" d="M25.52 11.71L12.83 0 .142 11.71a.438.438 0 0 0-.023.621.445.445 0 0 0 .625.023l1.469-1.355V25.66H23.45V10.998l1.468 1.355a.442.442 0 0 0 .626-.022.437.437 0 0 0-.023-.622zm-2.956 13.072H3.097v-14.6L12.83 1.2l9.734 8.982v14.6z"/><path id="path2_fill" d="M0 6.155h6.194V0H0v6.155zM.885.88h4.424v4.397H.885V.879z"/><path id="path3_fill" d="M6.194 0H0v6.155h6.194V0zM5.31 5.276H.885V.879h4.424v4.397z"/><path id="path4_fill" d="M0 6.155h6.194V0H0v6.155zM.885.88h4.424v4.397H.885V.879z"/><path id="path5_fill" d="M6.194 0H0v6.155h6.194V0zM5.31 5.276H.885V.879h4.424v4.397z"/></defs></svg>