<svg width="78" height="78" viewBox="0 0 78 78" version="1.1" xmlns="http://www.w3.org/2000/svg" xmlns:xlink="http://www.w3.org/1999/xlink">
<title>icon_gears</title>
<desc>Created using Figma</desc>
<g id="Canvas" transform="translate(-3165 -2205)">
<g id="icon_gears">
<g id="factory">
<g id="Ellipse">
<use xlink:href="#path0_fill" transform="translate(3165 2205)" fill="#FFFFFF"/>
</g>
</g>
<g id="003-gears">
<g id="Group">
<g id="Group">
<g id="Group">
<g id="Vector">
<use xlink:href="#path1_fill" transform="translate(3180 2219)" fill="url(#paint1_linear)"/>
<use xlink:href="#path1_fill" transform="translate(3180 2219)" fill="url(#paint2_linear)"/>
</g>
<g id="Vector">
<use xlink:href="#path2_fill" transform="translate(3192.52 2229.13)" fill="url(#paint3_linear)"/>
<use xlink:href="#path2_fill" transform="translate(3192.52 2229.13)" fill="url(#paint4_linear)"/>
</g>
<g id="Vector">
<use xlink:href="#path3_fill" transform="translate(3190.13 2234.47)" fill="url(#paint5_linear)"/>
<use xlink:href="#path3_fill" transform="translate(3190.13 2234.47)" fill="url(#paint6_linear)"/>
</g>
<g id="Vector">
<use xlink:href="#path4_fill" transform="translate(3203.73 2242.73)" fill="url(#paint7_linear)"/>
<use xlink:href="#path4_fill" transform="translate(3203.73 2242.73)" fill="url(#paint8_linear)"/>
</g>
<g id="Vector">
<use xlink:href="#path5_fill" transform="translate(3212.03 2251.03)" fill="url(#paint9_linear)"/>
<use xlink:href="#path5_fill" transform="translate(3212.03 2251.03)" fill="url(#paint10_linear)"/>
</g>
<g id="Vector">
<use xlink:href="#path6_fill" transform="translate(3194.11 2233.11)" fill="url(#paint11_linear)"/>
<use xlink:href="#path6_fill" transform="translate(3194.11 2233.11)" fill="url(#paint12_linear)"/>
</g>
</g>
</g>
</g>
</g>
</g>
</g>
<defs>
<linearGradient id="paint1_linear" x1="0" y1="0" x2="1" y2="0" gradientUnits="userSpaceOnUse" gradientTransform="matrix(39.968 -53.3609 56.5071 389.877 -28.2536 -150.933)">
<stop offset="0" stop-color="#81D76D"/>
<stop offset="0.142147" stop-color="#80D66E"/>
<stop offset="0.497913" stop-color="#67B788"/>
<stop offset="0.798272" stop-color="#458CAB"/>
<stop offset="0.98895" stop-color="#2D6EC4"/>
</linearGradient>
<linearGradient id="paint2_linear" x1="0" y1="0" x2="1" y2="0" gradientUnits="userSpaceOnUse" gradientTransform="matrix(37.8649 23.5846 -18.2295 414.578 17.4757 -178.178)">
<stop offset="0" stop-color="#B721FF"/>
<stop offset="0.469613" stop-color="#C850C0"/>
<stop offset="1" stop-color="#FFCC70"/>
</linearGradient>
<linearGradient id="paint3_linear" x1="0" y1="0" x2="1" y2="0" gradientUnits="userSpaceOnUse" gradientTransform="matrix(15.9234 -18.5384 22.5126 135.45 -11.2563 -52.4364)">
<stop offset="0" stop-color="#81D76D"/>
<stop offset="0.142147" stop-color="#80D66E"/>
<stop offset="0.497913" stop-color="#67B788"/>
<stop offset="0.798272" stop-color="#458CAB"/>
<stop offset="0.98895" stop-color="#2D6EC4"/>
</linearGradient>
<linearGradient id="paint4_linear" x1="0" y1="0" x2="1" y2="0" gradientUnits="userSpaceOnUse" gradientTransform="matrix(15.0855 8.19367 -7.26267 144.031 6.96237 -61.9021)">
<stop offset="0" stop-color="#B721FF"/>
<stop offset="0.469613" stop-color="#C850C0"/>
<stop offset="1" stop-color="#FFCC70"/>
</linearGradient>
<linearGradient id="paint5_linear" x1="0" y1="0" x2="1" y2="0" gradientUnits="userSpaceOnUse" gradientTransform="matrix(14.9806 -17.0765 21.1797 124.768 -10.5898 -48.3013)">
<stop offset="0" stop-color="#81D76D"/>
<stop offset="0.142147" stop-color="#80D66E"/>
<stop offset="0.497913" stop-color="#67B788"/>
<stop offset="0.798272" stop-color="#458CAB"/>
<stop offset="0.98895" stop-color="#2D6EC4"/>
</linearGradient>
<linearGradient id="paint6_linear" x1="0" y1="0" x2="1" y2="0" gradientUnits="userSpaceOnUse" gradientTransform="matrix(14.1923 7.54753 -6.83266 132.673 6.55014 -57.0206)">
<stop offset="0" stop-color="#B721FF"/>
<stop offset="0.469613" stop-color="#C850C0"/>
<stop offset="1" stop-color="#FFCC70"/>
</linearGradient>
<linearGradient id="paint7_linear" x1="0" y1="0" x2="1" y2="0" gradientUnits="userSpaceOnUse" gradientTransform="matrix(26.8279 -35.8173 37.9295 261.696 -18.9647 -101.31)">
<stop offset="0" stop-color="#81D76D"/>
<stop offset="0.142147" stop-color="#80D66E"/>
<stop offset="0.497913" stop-color="#67B788"/>
<stop offset="0.798272" stop-color="#458CAB"/>
<stop offset="0.98895" stop-color="#2D6EC4"/>
</linearGradient>
<linearGradient id="paint8_linear" x1="0" y1="0" x2="1" y2="0" gradientUnits="userSpaceOnUse" gradientTransform="matrix(25.4162 15.8306 -12.2362 278.276 11.7303 -119.598)">
<stop offset="0" stop-color="#B721FF"/>
<stop offset="0.469613" stop-color="#C850C0"/>
<stop offset="1" stop-color="#FFCC70"/>
</linearGradient>
<linearGradient id="paint9_linear" x1="0" y1="0" x2="1" y2="0" gradientUnits="userSpaceOnUse" gradientTransform="matrix(9.19822 -12.2804 13.0045 89.7257 -6.50226 -34.7353)">
<stop offset="0" stop-color="#81D76D"/>
<stop offset="0.142147" stop-color="#80D66E"/>
<stop offset="0.497913" stop-color="#67B788"/>
<stop offset="0.798272" stop-color="#458CAB"/>
<stop offset="0.98895" stop-color="#2D6EC4"/>
</linearGradient>
<linearGradient id="paint10_linear" x1="0" y1="0" x2="1" y2="0" gradientUnits="userSpaceOnUse" gradientTransform="matrix(8.71421 5.42772 -4.19532 95.4102 4.02185 -41.0057)">
<stop offset="0" stop-color="#B721FF"/>
<stop offset="0.469613" stop-color="#C850C0"/>
<stop offset="1" stop-color="#FFCC70"/>
</linearGradient>
<linearGradient id="paint11_linear" x1="0" y1="0" x2="1" y2="0" gradientUnits="userSpaceOnUse" gradientTransform="matrix(10.0071 -13.3603 14.1481 97.6158 -7.07404 -37.7898)">
<stop offset="0" stop-color="#81D76D"/>
<stop offset="0.142147" stop-color="#80D66E"/>
<stop offset="0.497913" stop-color="#67B788"/>
<stop offset="0.798272" stop-color="#458CAB"/>
<stop offset="0.98895" stop-color="#2D6EC4"/>
</linearGradient>
<linearGradient id="paint12_linear" x1="0" y1="0" x2="1" y2="0" gradientUnits="userSpaceOnUse" gradientTransform="matrix(9.4805 5.905 -4.56423 103.8 4.37551 -44.6115)">
<stop offset="0" stop-color="#B721FF"/>
<stop offset="0.469613" stop-color="#C850C0"/>
<stop offset="1" stop-color="#FFCC70"/>
</linearGradient>
<path id="path0_fill" d="M 78 39C 78 60.5391 60.5391 78 39 78C 17.4609 78 0 60.5391 0 39C 0 17.4609 17.4609 0 39 0C 60.5391 0 78 17.4609 78 39Z"/>
<path id="path1_fill" d="M 25.1494 30.3577C 24.9663 29.9718 24.5047 29.8072 24.1188 29.9905C 23.4908 30.2885 22.8323 30.5348 22.1618 30.7224C 21.8813 30.8009 21.6688 31.0301 21.6117 31.3158L 20.7933 35.4079C 20.7125 35.8119 20.3548 36.1052 19.9427 36.1052L 17.71 36.1052C 17.2979 36.1052 16.9403 35.812 16.8594 35.4079L 16.0409 31.3158C 15.9838 31.0301 15.7711 30.8009 15.4908 30.7224C 14.5436 30.4573 13.6294 30.0785 12.7737 29.5966C 12.5198 29.4536 12.2071 29.4654 11.9648 29.6269L 8.49214 31.942C 8.14933 32.1705 7.68899 32.1249 7.39748 31.8335L 5.81876 30.2547C 5.52734 29.9633 5.48189 29.503 5.71033 29.1601L 8.02539 25.6874C 8.18704 25.445 8.19881 25.1324 8.05573 24.8785C 7.57367 24.0227 7.19488 23.1085 6.92988 22.1614C 6.8514 21.8809 6.62219 21.6683 6.33652 21.6113L 2.24443 20.7928C 1.84037 20.7121 1.54704 20.3543 1.54704 19.9422L 1.54704 17.7096C 1.54704 17.2975 1.84028 16.9398 2.24443 16.859L 6.33652 16.0405C 6.62219 15.9834 6.8514 15.7707 6.92988 15.4904C 7.19498 14.5431 7.57377 13.629 8.05573 12.7733C 8.19871 12.5195 8.18694 12.2068 8.02539 11.9644L 5.71052 8.49212C 5.48198 8.14922 5.52754 7.68898 5.81895 7.39747L 7.39767 5.81875C 7.68909 5.52733 8.14952 5.48187 8.49233 5.71032L 11.965 8.02538C 12.2073 8.18702 12.5201 8.1987 12.7739 8.05571C 13.6296 7.57375 14.5437 7.19496 15.491 6.92986C 15.7715 6.85139 15.9841 6.62218 16.0411 6.3365L 16.8596 2.24443C 16.9403 1.84037 17.2981 1.54704 17.7102 1.54704L 19.9428 1.54704C 20.3549 1.54704 20.7126 1.84028 20.7935 2.24443L 21.6119 6.3365C 21.669 6.62218 21.8817 6.85139 22.162 6.92986C 23.1093 7.19496 24.0234 7.57375 24.8791 8.05571C 25.133 8.1987 25.4457 8.18692 25.688 8.02538L 29.1607 5.71032C 29.5035 5.48178 29.9637 5.52743 30.2554 5.81875L 31.8341 7.39747C 32.1255 7.68888 32.171 8.14922 31.9425 8.49212L 29.6274 11.9648C 29.4658 12.2072 29.454 12.5198 29.5971 12.7737C 30.0791 13.6294 30.4579 14.5435 30.723 15.4908C 30.8014 15.7713 31.0306 15.9839 31.3163 16.0409L 35.4084 16.8593C 35.8125 16.9401 36.1058 17.2979 36.1058 17.71L 36.1058 19.9426C 36.1058 20.3547 35.8126 20.7124 35.4084 20.7932L 31.3163 21.6117C 31.0306 21.6688 30.8014 21.8815 30.723 22.162C 30.5307 22.8491 30.277 23.5232 29.9688 24.1654C 29.7839 24.5506 29.9464 25.0128 30.3316 25.1976C 30.7168 25.3826 31.1791 25.22 31.3638 24.8348C 31.6419 24.2551 31.8807 23.6525 32.076 23.0378L 35.7119 22.3106C 36.8363 22.0855 37.6526 21.0896 37.6526 19.9425L 37.6526 17.7099C 37.6526 16.5628 36.8363 15.567 35.7114 15.3419L 32.0756 14.6147C 31.8371 13.864 31.5349 13.1342 31.1728 12.4357L 33.2296 9.35029C 33.8659 8.39584 33.7391 7.11438 32.9279 6.3032L 31.3492 4.72448C 30.5379 3.9133 29.2564 3.78659 28.3021 4.42273L 25.2167 6.47958C 24.5181 6.11754 23.7883 5.81521 23.0376 5.57672L 22.3105 1.94096C 22.0856 0.816348 21.0898 0 19.9427 0L 17.71 0C 16.5629 0 15.5671 0.816348 15.342 1.94124L 14.6149 5.577C 13.8642 5.8155 13.1343 6.11773 12.4358 6.47987L 9.3506 4.42302C 8.39624 3.78678 7.11468 3.91349 6.3035 4.72477L 4.72478 6.30349C 3.91369 7.11467 3.78679 8.39604 4.42302 9.35058L 6.47988 12.436C 6.11783 13.1345 5.81551 13.8642 5.57701 14.615L 1.94115 15.3422C 0.816349 15.5671 0 16.563 0 17.7101L 0 19.9427C 0 21.0898 0.816349 22.0856 1.94125 22.3107L 5.57701 23.0378C 5.81541 23.7884 6.11774 24.5183 6.47988 25.2169L 4.42302 28.3023C 3.78679 29.2567 3.9136 30.5382 4.72478 31.3494L 6.3035 32.9281C 7.11468 33.7393 8.39615 33.866 9.3506 33.2298L 12.436 31.173C 13.1345 31.535 13.8643 31.8374 14.615 32.0759L 15.3422 35.7118C 15.5671 36.8363 16.563 37.6528 17.7101 37.6528L 19.9428 37.6528C 21.0899 37.6528 22.0856 36.8364 22.3107 35.7115L 23.0379 32.0758C 23.634 31.8864 24.2192 31.656 24.7824 31.3886C 25.1683 31.2052 25.3328 30.7438 25.1494 30.3577Z"/>
<path id="path2_fill" d="M 13.0056 12.9957C 13.1185 13.0537 13.2391 13.0812 13.358 13.0812C 13.639 13.0812 13.9101 12.9276 14.047 12.6604C 14.671 11.4435 15.0009 10.0729 15.0009 8.69683C 15.0009 3.90143 11.0996 1.69396e-07 6.30408 1.69396e-07C 4.0227 1.69396e-07 1.86689 0.876832 0.233616 2.46924C -0.0723479 2.76745 -0.0785682 3.25735 0.219643 3.56322C 0.517855 3.86909 1.00766 3.8755 1.31363 3.57719C 2.65625 2.26836 4.42848 1.54742 6.30388 1.54742C 10.2461 1.54742 13.4534 4.75463 13.4534 8.69693C 13.4534 9.84479 13.1898 10.9408 12.6701 11.9545C 12.4752 12.3344 12.6254 12.8007 13.0056 12.9957Z"/>
<path id="path3_fill" d="M 1.4545 0.0423214C 1.05034 -0.0967353 0.6103 0.118119 0.471243 0.522178C 0.15858 1.43117 1.16825e-07 2.3836 1.16825e-07 3.35279C 1.16825e-07 8.14828 3.90144 12.0496 8.69685 12.0496C 10.5411 12.0496 12.3032 11.4796 13.7928 10.4009C 14.1388 10.1503 14.2162 9.66651 13.9657 9.32045C 13.7151 8.97439 13.2313 8.89697 12.8852 9.14752C 11.6614 10.0336 10.2131 10.5021 8.69675 10.5021C 4.75444 10.5021 1.54724 7.2948 1.54724 3.3526C 1.54724 2.55501 1.67739 1.77187 1.93426 1.02529C 2.07322 0.621325 1.85846 0.181187 1.4545 0.0423214Z"/>
<path id="path4_fill" d="M 23.7849 10.087L 21.5476 9.6396C 21.4113 9.23411 21.2472 8.83818 21.0569 8.45547L 22.3227 6.55691C 22.8107 5.82478 22.7135 4.84191 22.0913 4.21984L 21.0539 3.18242C 20.4317 2.56035 19.4488 2.46302 18.7168 2.95101L 16.8182 4.21677C 16.4355 4.02652 16.0396 3.86239 15.6341 3.7262L 15.1867 1.48895C 15.0141 0.626186 14.2503 7.12633e-07 13.3705 7.12633e-07L 11.9033 7.12633e-07C 11.0236 7.12633e-07 10.2597 0.626186 10.0871 1.48895L 9.63972 3.7262C 9.23422 3.86248 8.8383 4.02661 8.45558 4.21677L 6.55701 2.95101C 5.82488 2.46311 4.84201 2.56025 4.21994 3.18242L 3.18252 4.21984C 2.56035 4.842 2.46312 5.82487 2.95111 6.55691L 4.21688 8.45547C 3.95523 8.98164 3.74324 9.5327 3.58476 10.0994C 3.46963 10.5109 3.70994 10.9377 4.12137 11.0529C 4.53289 11.1681 4.95973 10.9279 5.07495 10.5163C 5.24339 9.91417 5.48418 9.33326 5.79043 8.78957C 5.93341 8.53567 5.92164 8.223 5.76009 7.98068L 4.2387 5.69864C 4.1584 5.57815 4.17439 5.41641 4.27679 5.31401L 5.31421 4.27659C 5.41662 4.17428 5.57835 4.1584 5.69885 4.2385L 7.98089 5.75989C 8.22321 5.92153 8.53587 5.93321 8.78977 5.79023C 9.33356 5.48398 9.91438 5.24319 10.5166 5.07475C 10.7971 4.99628 11.0096 4.76707 11.0667 4.4814L 11.6044 1.79242C 11.6327 1.6505 11.7585 1.54742 11.9033 1.54742L 13.3705 1.54742C 13.5152 1.54742 13.641 1.6505 13.6694 1.79242L 14.2072 4.48159C 14.2643 4.76726 14.4769 4.99647 14.7573 5.07495C 15.3594 5.24338 15.9403 5.48417 16.484 5.79042C 16.7378 5.9334 17.0506 5.92163 17.2929 5.76008L 19.575 4.23869C 19.6955 4.1584 19.8572 4.17428 19.9596 4.27678L 20.997 5.3142C 21.0993 5.41661 21.1153 5.57834 21.0351 5.69883L 19.5137 7.98087C 19.3521 8.22329 19.3403 8.53586 19.4834 8.78976C 19.7896 9.33354 20.0304 9.91436 20.1989 10.5165C 20.2773 10.797 20.5065 11.0096 20.7922 11.0666L 23.4812 11.6044C 23.6231 11.6327 23.7262 11.7585 23.7262 11.9033L 23.7262 13.3705C 23.7262 13.5152 23.6231 13.6409 23.4812 13.6694L 20.792 14.2071C 20.5063 14.2643 20.2771 14.4769 20.1987 14.7572C 20.0302 15.3594 19.7894 15.9403 19.4832 16.484C 19.3402 16.7379 19.352 17.0506 19.5135 17.2929L 21.0349 19.5749C 21.1152 19.6954 21.0992 19.8572 20.9968 19.9596L 19.9594 20.997C 19.8571 21.0994 19.6954 21.1153 19.5748 21.0351L 17.2927 19.5137C 17.0504 19.3521 16.7376 19.3404 16.4838 19.4833C 15.9401 19.7896 15.3592 20.0304 14.7571 20.1988C 14.4766 20.2773 14.264 20.5065 14.207 20.7922L 13.6692 23.4811C 13.6409 23.6231 13.5151 23.7261 13.3703 23.7261L 11.9031 23.7261C 11.7584 23.7261 11.6326 23.6231 11.6042 23.4811L 11.0665 20.792C 11.0093 20.5063 10.7967 20.2771 10.5164 20.1986C 9.91419 20.0302 9.33327 19.7894 8.78958 19.4831C 8.53568 19.3402 8.22292 19.3519 7.9807 19.5135L 5.69865 21.0349C 5.57816 21.1152 5.41643 21.0993 5.31402 20.9968L 4.2766 19.9594C 4.17429 19.857 4.15831 19.6952 4.23851 19.5747L 5.7599 17.2927C 5.92155 17.0503 5.93332 16.7377 5.79024 16.4838C 5.48399 15.94 5.2432 15.3592 5.07476 14.757C 4.99629 14.4765 4.76708 14.264 4.4814 14.2069L 1.79243 13.6692C 1.6505 13.6409 1.54743 13.5151 1.54743 13.3703L 1.54743 11.9031C 1.54743 11.7584 1.6505 11.6326 1.79243 11.6042L 1.95704 11.5713C 2.37603 11.4874 2.64782 11.0798 2.56389 10.6609C 2.48005 10.2419 2.07293 9.97054 1.65337 10.054L 1.48876 10.0869C 0.626188 10.2596 -6.42539e-07 11.0234 -6.42539e-07 11.9032L -6.42539e-07 13.3704C -6.42539e-07 14.2501 0.626186 15.014 1.48895 15.1866L 3.72621 15.634C 3.86249 16.0395 4.02662 16.4354 4.21678 16.8181L 2.95101 18.7167C 2.46292 19.4488 2.56025 20.4317 3.18242 21.0537L 4.21985 22.0912C 4.84201 22.7133 5.82489 22.8106 6.55692 22.3226L 8.45548 21.0568C 8.8382 21.247 9.23413 21.4112 9.63962 21.5474L 10.087 23.7846C 10.2598 24.6474 11.0236 25.2736 11.9034 25.2736L 13.3706 25.2736C 14.2503 25.2736 15.0142 24.6474 15.1868 23.7846L 15.6342 21.5474C 16.0397 21.4111 16.4356 21.247 16.8183 21.0567L 18.7169 22.3225C 19.449 22.8105 20.4319 22.7132 21.054 22.0911L 22.0914 21.0536C 22.7136 20.4315 22.8108 19.4486 22.3228 18.7166L 21.057 16.818C 21.2473 16.4353 21.4114 16.0394 21.5476 15.6339L 23.7849 15.1865C 24.6475 15.0139 25.2737 14.2501 25.2737 13.3703L 25.2737 11.9031C 25.2738 11.0234 24.6476 10.2596 23.7849 10.087Z"/>
<path id="path5_fill" d="M 4.33278 1.54742C 5.86862 1.54742 7.11803 2.79683 7.11803 4.33267C 7.11803 4.75999 7.46447 5.10633 7.89169 5.10633C 8.31891 5.10633 8.66536 4.75989 8.66536 4.33267C 8.66536 1.94364 6.72172 4.43935e-07 4.33268 4.43935e-07C 1.94364 4.43935e-07 -2.33651e-07 1.94364 -2.33651e-07 4.33267C -2.33651e-07 6.72171 1.94364 8.66535 4.33268 8.66535C 5.30034 8.66535 6.21564 8.35326 6.97974 7.76296C 7.31786 7.50169 7.38016 7.0158 7.11899 6.67759C 6.85772 6.33947 6.37174 6.27707 6.03362 6.53834C 5.54285 6.91742 4.95466 7.11792 4.33268 7.11792C 2.79683 7.11792 1.54743 5.86852 1.54743 4.33267C 1.54752 2.79673 2.79693 1.54742 4.33278 1.54742Z"/>
<path id="path6_fill" d="M 9.42735 4.71367C 9.42735 2.11456 7.31269 -2.45333e-07 4.71368 -2.45333e-07C 2.11456 -2.45333e-07 -2.45333e-07 2.11466 -2.45333e-07 4.71367C -2.45333e-07 7.31277 2.11456 9.42733 4.71368 9.42733C 7.31279 9.42733 9.42735 7.31268 9.42735 4.71367ZM 1.54733 4.71367C 1.54733 2.96785 2.96786 1.54733 4.71368 1.54733C 6.4595 1.54733 7.88002 2.96785 7.88002 4.71367C 7.88002 6.45948 6.45959 7.88 4.71368 7.88C 2.96766 7.88 1.54733 6.45948 1.54733 4.71367Z"/>
</defs>
</svg>
