<svg width="43" height="43" xmlns="http://www.w3.org/2000/svg" xmlns:xlink="http://www.w3.org/1999/xlink"><use xlink:href="#path0_fill" fill="#FFF"/><use xlink:href="#path1_fill" transform="translate(8 12)" fill="#8064FF"/><use xlink:href="#path2_fill" transform="translate(21.12 28.7)" fill="#8064FF"/><use xlink:href="#path2_fill" transform="translate(18.22 28.7)" fill="#8064FF"/><use xlink:href="#path2_fill" transform="translate(15.32 28.7)" fill="#8064FF"/><use xlink:href="#path2_fill" transform="translate(9.51 28.7)" fill="#8064FF"/><use xlink:href="#path2_fill" transform="translate(12.41 28.7)" fill="#8064FF"/><use xlink:href="#path2_fill" transform="translate(32.73 28.7)" fill="#8064FF"/><use xlink:href="#path2_fill" transform="translate(29.83 28.7)" fill="#8064FF"/><use xlink:href="#path2_fill" transform="translate(24.03 28.7)" fill="#8064FF"/><use xlink:href="#path2_fill" transform="translate(26.93 28.7)" fill="#8064FF"/><defs><path id="path0_fill" d="M43 21.5C43 33.374 33.374 43 21.5 43S0 33.374 0 21.5 9.626 0 21.5 0 43 9.626 43 21.5z"/><path id="path1_fill" d="M25.611 15.168h-.03V13.67a.456.456 0 0 0-.454-.459h-.514V9.884c0-.856-.568-1.617-1.381-1.853l-1.521-.439v-.705c.305-.271.483-.663.483-1.08V4.343h.514c.25 0 .454-.206.454-.46a.456.456 0 0 0-.454-.458h-.03v-.03A2.9 2.9 0 0 0 20.26.524V.46a.456.456 0 0 0-.454-.46.456.456 0 0 0-.454.459v.067a2.9 2.9 0 0 0-2.419 2.868v.031h-.03a.456.456 0 0 0-.454.459c0 .253.203.459.454.459h.514v1.464c0 .417.178.809.484 1.08v.705l-1.522.44a1.932 1.932 0 0 0-1.381 1.852v5.284h-.544v-2.477a.456.456 0 0 0-.454-.459h-.998V9.884c0-.856-.568-1.617-1.382-1.853l-1.52-.439v-.705c.305-.271.483-.663.483-1.08V4.343h.514c.25 0 .454-.206.454-.46a.456.456 0 0 0-.454-.458h-.03v-.03a2.9 2.9 0 0 0-2.42-2.87V.46A.456.456 0 0 0 8.195 0a.456.456 0 0 0-.453.459v.067a2.9 2.9 0 0 0-2.42 2.868v.031h-.03a.456.456 0 0 0-.453.459c0 .253.203.459.454.459h.514v1.464c0 .417.178.809.483 1.08v.705l-1.52.44a1.932 1.932 0 0 0-1.382 1.852v5.284H2.39c-1.318 0-2.39 1.084-2.39 2.416C0 18.916 1.072 20 2.389 20H25.61c1.318 0 2.39-1.084 2.39-2.416 0-1.332-1.072-2.416-2.389-2.416zm-.937 0h-4.899v-1.04h4.899v1.04zm-6.834 0v-4.434a.03.03 0 0 1 .03-.03h3.87a.03.03 0 0 1 .031.03v2.477h-2.45a.456.456 0 0 0-.453.459v1.498H17.84zm.987-7.642c.234.158.506.242.788.242h.382c.281 0 .554-.084.788-.242l.019-.012v.56c-.086.078-.421.244-.998.244s-.912-.166-.998-.244v-.56l.019.012zm-.503 2.26v-.93c.338.238.857.38 1.482.38.624 0 1.143-.142 1.481-.38v.93h-2.963zm5.382.098v3.327h-1.028v-2.477a.95.95 0 0 0-.484-.83V8.687l.789.228c.426.123.723.522.723.97zm-1.935-6.49v.031H20.26V1.461a1.986 1.986 0 0 1 1.512 1.933zm-3.93 0c0-.938.645-1.726 1.511-1.933v1.964H17.84v-.03zm3.446.949v1.464a.52.52 0 0 1-.229.432l-.776.524a.508.508 0 0 1-.285.087h-.382c-.102 0-.2-.03-.285-.087l-.777-.524a.52.52 0 0 1-.23-.432V4.343h2.964zm-5.382 5.541c0-.448.298-.847.724-.97l.788-.228v1.219a.95.95 0 0 0-.484.829v4.434h-1.028V9.884zm-2.359 5.284H8.648V13.15h4.898v2.018zm-7.317 0v-4.434a.03.03 0 0 1 .03-.03h3.87a.03.03 0 0 1 .03.03v1.498H8.195a.456.456 0 0 0-.453.46v2.476H6.229zm.986-7.642c.235.158.507.242.789.242h.381c.282 0 .555-.084.789-.242l.018-.012v.56c-.086.078-.42.244-.997.244s-.912-.166-.998-.244v-.56l.018.012zm-.502 2.26v-.93c.338.238.857.38 1.481.38.625 0 1.144-.142 1.482-.38v.93H6.713zm5.382.098v2.348h-1.028v-1.498a.95.95 0 0 0-.484-.83V8.687l.788.228c.426.123.724.522.724.97zm-1.935-6.49v.031H8.648V1.461a1.986 1.986 0 0 1 1.512 1.933zm-3.931 0c0-.938.646-1.726 1.512-1.933v1.964H6.229v-.03zm3.447.949v1.464a.52.52 0 0 1-.229.432l-.776.524a.508.508 0 0 1-.286.087h-.381c-.102 0-.2-.03-.285-.087l-.777-.524a.52.52 0 0 1-.23-.432V4.343h2.964zM4.294 9.884c0-.448.297-.847.723-.97l.789-.228v1.219a.95.95 0 0 0-.484.829v4.434H4.294V9.884zm21.317 9.199H2.39a1.492 1.492 0 0 1-1.482-1.499c0-.826.665-1.498 1.482-1.498h23.22c.817 0 1.482.672 1.482 1.498s-.665 1.499-1.482 1.499z"/><path id="path2_fill" d="M.877 0A.883.883 0 0 0 0 .887c0 .489.393.887.877.887a.883.883 0 0 0 .877-.887A.883.883 0 0 0 .877 0z"/></defs></svg>