<svg width="78" height="78" xmlns="http://www.w3.org/2000/svg" xmlns:xlink="http://www.w3.org/1999/xlink"><use xlink:href="#path0_fill" fill="#FFF"/><use xlink:href="#path1_fill" transform="translate(30.51 28.56)" fill="url(#paint1_linear)"/><use xlink:href="#path2_fill" transform="translate(18.78 21.67)" fill="url(#paint2_linear)"/><use xlink:href="#path3_fill" transform="translate(32.65 52.25)" fill="url(#paint3_linear)"/><use xlink:href="#path4_fill" transform="translate(29.76 27.79)" fill="url(#paint4_linear)"/><use xlink:href="#path5_fill" transform="translate(41.37 26.01)" fill="url(#paint5_linear)"/><defs><linearGradient id="paint1_linear" x2="1" gradientUnits="userSpaceOnUse" gradientTransform="matrix(16.1827 10.4523 -7.79089 183.734 7.469 -78.966)"><stop offset="0" stop-color="#B721FF"/><stop offset=".47" stop-color="#C850C0"/><stop offset="1" stop-color="#FFCC70"/></linearGradient><linearGradient id="paint2_linear" x2="1" gradientUnits="userSpaceOnUse" gradientTransform="matrix(40.6724 17.978 -19.5811 316.023 18.771 -135.821)"><stop offset="0" stop-color="#B721FF"/><stop offset=".47" stop-color="#C850C0"/><stop offset="1" stop-color="#FFCC70"/></linearGradient><linearGradient id="paint3_linear" x2="1" gradientUnits="userSpaceOnUse" gradientTransform="matrix(13.7055 7.08077 -6.59828 124.468 6.325 -53.494)"><stop offset="0" stop-color="#B721FF"/><stop offset=".47" stop-color="#C850C0"/><stop offset="1" stop-color="#FFCC70"/></linearGradient><linearGradient id="paint4_linear" x2="1" gradientUnits="userSpaceOnUse" gradientTransform="matrix(17.6931 11.4279 -8.51804 200.883 8.166 -86.336)"><stop offset="0" stop-color="#B721FF"/><stop offset=".47" stop-color="#C850C0"/><stop offset="1" stop-color="#FFCC70"/></linearGradient><linearGradient id="paint5_linear" x2="1" gradientUnits="userSpaceOnUse" gradientTransform="matrix(7.85897 5.07071 -3.78358 89.1346 3.627 -38.309)"><stop offset="0" stop-color="#B721FF"/><stop offset=".47" stop-color="#C850C0"/><stop offset="1" stop-color="#FFCC70"/></linearGradient><path id="path0_fill" d="M78 39c0 21.54-17.46 39-39 39S0 60.54 0 39 17.46 0 39 0s39 17.46 39 39z"/><path id="path1_fill" d="M16.092 8.344H8.046V0C3.606 0 0 3.731 0 8.344c0 4.612 3.598 8.343 8.046 8.343 4.448 0 8.046-3.731 8.046-8.343z"/><path id="path2_fill" d="M39.685 0H.751C.338 0 0 .35 0 .779c0 .428.338.778.751.778h1.444v24.946c0 1.215.95 2.199 2.12 2.199h31.97c1.172 0 2.121-.984 2.121-2.2V1.55h1.288c.412 0 .75-.35.75-.779a.767.767 0 0 0-.759-.77zm-2.78 26.503a.63.63 0 0 1-.62.641H4.308a.63.63 0 0 1-.62-.641V1.549h33.216v24.954z"/><path id="path3_fill" d="M.217 9.978a.8.8 0 0 0 0 1.095.732.732 0 0 0 .528.231c.19 0 .38-.077.528-.23l4.803-4.981v4.433c0 .428.338.778.75.778.413 0 .752-.35.752-.778V6.093l4.778 4.955a.732.732 0 0 0 .528.23c.19 0 .38-.076.528-.23a.8.8 0 0 0 0-1.096l-5.834-6.05V1.557h2.962c.413 0 .751-.35.751-.778 0-.428-.338-.779-.75-.779H3.005c-.413 0-.751.35-.751.779 0 .428.338.778.75.778h3.079v2.345L.217 9.978z"/><path id="path4_fill" d="M8.797 18.245c4.852 0 8.797-4.09 8.797-9.123 0-.428-.338-.778-.751-.778H9.548V.779C9.548.35 9.21 0 8.797 0 3.945 0 0 4.09 0 9.122s3.945 9.123 8.797 9.123zM8.046 1.592v7.53c0 .428.338.779.75.779h7.263c-.38 3.808-3.49 6.795-7.262 6.795-4.027 0-7.295-3.398-7.295-7.565 0-3.92 2.872-7.146 6.544-7.54z"/><path id="path5_fill" d="M.751 8.095h6.313c.413 0 .75-.35.75-.778A7.5 7.5 0 0 0 6.05 2.465C4.704.899 2.773 0 .75 0 .338 0 0 .35 0 .779v6.546c0 .428.33.77.751.77zM1.494 1.6a5.546 5.546 0 0 1 3.424 1.9 5.838 5.838 0 0 1 1.345 3.046h-4.77V1.6z"/></defs></svg>