<svg width="78" height="78" xmlns="http://www.w3.org/2000/svg" xmlns:xlink="http://www.w3.org/1999/xlink"><use xlink:href="#path0_fill" fill="#FFF"/><use xlink:href="#path1_fill" transform="translate(28.43 28.43)" fill="url(#paint1_linear)"/><use xlink:href="#path2_fill" transform="translate(25.15 25.15)" fill="url(#paint2_linear)"/><use xlink:href="#path3_fill" transform="translate(28.89 29.51)" fill="url(#paint3_linear)"/><use xlink:href="#path4_fill" transform="translate(21.04 34.18)" fill="url(#paint4_linear)"/><use xlink:href="#path5_fill" transform="translate(31.72 32.54)" fill="url(#paint5_linear)"/><use xlink:href="#path6_fill" transform="translate(53.89 34.18)" fill="url(#paint6_linear)"/><use xlink:href="#path7_fill" transform="translate(34.18 42.39)" fill="url(#paint7_linear)"/><use xlink:href="#path8_fill" transform="translate(53.89 44.03)" fill="url(#paint8_linear)"/><use xlink:href="#path9_fill" transform="translate(20.22 54.71)" fill="url(#paint9_linear)"/><use xlink:href="#path10_fill" transform="translate(45.67 20.22)" fill="url(#paint10_linear)"/><defs><linearGradient id="paint1_linear" x2="1" gradientUnits="userSpaceOnUse" gradientTransform="matrix(22.6134 14.1427 -10.8869 248.606 10.437 -106.846)"><stop offset="0" stop-color="#B721FF"/><stop offset=".47" stop-color="#C850C0"/><stop offset="1" stop-color="#FFCC70"/></linearGradient><linearGradient id="paint2_linear" x2="1" gradientUnits="userSpaceOnUse" gradientTransform="matrix(34.0984 21.2393 -16.4161 373.352 15.737 -160.461)"><stop offset="0" stop-color="#B721FF"/><stop offset=".47" stop-color="#C850C0"/><stop offset="1" stop-color="#FFCC70"/></linearGradient><linearGradient id="paint3_linear" x2="1" gradientUnits="userSpaceOnUse" gradientTransform="matrix(20.9173 13.1325 -10.0703 230.848 9.654 -99.215)"><stop offset="0" stop-color="#B721FF"/><stop offset=".47" stop-color="#C850C0"/><stop offset="1" stop-color="#FFCC70"/></linearGradient><linearGradient id="paint4_linear" x2="1" gradientUnits="userSpaceOnUse" gradientTransform="matrix(4.54123 .7714 -2.1863 13.56 2.096 -5.828)"><stop offset="0" stop-color="#B721FF"/><stop offset=".47" stop-color="#C850C0"/><stop offset="1" stop-color="#FFCC70"/></linearGradient><linearGradient id="paint5_linear" x2="1" gradientUnits="userSpaceOnUse" gradientTransform="matrix(16.1007 2.82855 -7.75145 49.7212 7.43 -21.37)"><stop offset="0" stop-color="#B721FF"/><stop offset=".47" stop-color="#C850C0"/><stop offset="1" stop-color="#FFCC70"/></linearGradient><linearGradient id="paint6_linear" x2="1" gradientUnits="userSpaceOnUse" gradientTransform="matrix(3.71555 .7714 -1.78879 13.56 1.715 -5.828)"><stop offset="0" stop-color="#B721FF"/><stop offset=".47" stop-color="#C850C0"/><stop offset="1" stop-color="#FFCC70"/></linearGradient><linearGradient id="paint7_linear" x2="1" gradientUnits="userSpaceOnUse" gradientTransform="matrix(13.6236 2.82855 -6.55887 49.7212 6.288 -21.37)"><stop offset="0" stop-color="#B721FF"/><stop offset=".47" stop-color="#C850C0"/><stop offset="1" stop-color="#FFCC70"/></linearGradient><linearGradient id="paint8_linear" x2="1" gradientUnits="userSpaceOnUse" gradientTransform="matrix(2.88986 .7714 -1.39128 13.56 1.334 -5.828)"><stop offset="0" stop-color="#B721FF"/><stop offset=".47" stop-color="#C850C0"/><stop offset="1" stop-color="#FFCC70"/></linearGradient><linearGradient id="paint9_linear" x2="1" gradientUnits="userSpaceOnUse" gradientTransform="matrix(15.2751 2.82855 -7.35397 49.7212 7.05 -21.37)"><stop offset="0" stop-color="#B721FF"/><stop offset=".47" stop-color="#C850C0"/><stop offset="1" stop-color="#FFCC70"/></linearGradient><linearGradient id="paint10_linear" x2="1" gradientUnits="userSpaceOnUse" gradientTransform="matrix(13.6237 3.85712 -6.55891 67.8017 6.288 -29.14)"><stop offset="0" stop-color="#B721FF"/><stop offset=".47" stop-color="#C850C0"/><stop offset="1" stop-color="#FFCC70"/></linearGradient><path id="path0_fill" d="M78 39c0 21.54-17.46 39-39 39S0 60.54 0 39 17.46 0 39 0s39 17.46 39 39z"/><path id="path1_fill" d="M21.844 12.27h-.001a.614.614 0 0 0-.608.52c-.736 4.901-5.022 8.656-10.147 8.555-5.298-.104-9.643-4.363-9.849-9.657C1.017 5.96 5.611 1.23 11.29 1.23c5.1 0 9.324 3.814 9.972 8.74a.615.615 0 1 0 1.22-.163C21.75 4.25 16.961-.046 11.198 0 4.97.05-.076 5.202.001 11.43.077 17.592 5.11 22.58 11.29 22.58c5.654 0 10.35-4.178 11.163-9.609a.614.614 0 0 0-.61-.7z"/><path id="path2_fill" d="M33.007 28.652l-6.187-6.186a14.489 14.489 0 0 0 2.327-7.892C29.147 6.538 22.61 0 14.574 0 6.538 0 0 6.538 0 14.574s6.538 14.573 14.574 14.573c2.906 0 5.616-.855 7.892-2.327l6.186 6.187a3.059 3.059 0 0 0 2.178.902c.822 0 1.595-.32 2.177-.902 1.2-1.2 1.2-3.154 0-4.354zm-18.433-.736c-7.357 0-13.342-5.986-13.342-13.342 0-7.357 5.985-13.343 13.342-13.343s13.342 5.986 13.342 13.343c0 7.356-5.985 13.342-13.342 13.342zm17.562 4.22a1.835 1.835 0 0 1-1.306.541c-.494 0-.958-.192-1.306-.541l-6.04-6.039a14.7 14.7 0 0 0 2.613-2.612l6.04 6.038c.72.72.72 1.893-.001 2.613z"/><path id="path3_fill" d="M10.4 20.966c5.744 0 10.4-4.693 10.4-10.483C20.8 4.693 16.144 0 10.4 0 4.656 0 0 4.693 0 10.483c0 5.79 4.656 10.483 10.4 10.483z"/><path id="path4_fill" d="M3.9 0H.616a.616.616 0 0 0 0 1.232H3.9A.616.616 0 0 0 3.9 0z"/><path id="path5_fill" d="M15.395 1.642h-3.576A2.262 2.262 0 0 0 9.647 0a2.262 2.262 0 0 0-2.171 1.642H.616a.616.616 0 0 0 0 1.232h6.86a2.262 2.262 0 0 0 2.171 1.642 2.261 2.261 0 0 0 2.172-1.642h3.576a.616.616 0 0 0 0-1.232zM9.647 3.284a1.027 1.027 0 0 1 0-2.052 1.027 1.027 0 0 1 0 2.052z"/><path id="path6_fill" d="M3.079 0H.616a.616.616 0 0 0 0 1.232h2.463a.616.616 0 0 0 0-1.232z"/><path id="path7_fill" d="M12.931 1.642H4.43A2.262 2.262 0 0 0 2.258 0 2.26 2.26 0 0 0 0 2.258a2.26 2.26 0 0 0 2.258 2.258A2.261 2.261 0 0 0 4.43 2.874h8.502a.616.616 0 0 0 0-1.232zM2.258 3.284a1.027 1.027 0 0 1 0-2.052 1.027 1.027 0 0 1 0 2.052z"/><path id="path8_fill" d="M2.258 0H.616a.616.616 0 0 0 0 1.232h1.642a.616.616 0 0 0 0-1.232z"/><path id="path9_fill" d="M14.574 1.642H4.43A2.262 2.262 0 0 0 2.258 0 2.26 2.26 0 0 0 0 2.258a2.26 2.26 0 0 0 2.258 2.258A2.262 2.262 0 0 0 4.43 2.874h10.144a.616.616 0 0 0 0-1.232zM2.258 3.284a1.027 1.027 0 0 1 0-2.052 1.027 1.027 0 0 1 0 2.052z"/><path id="path10_fill" d="M10.468 0a3.084 3.084 0 0 0-3.017 2.463H.616a.616.616 0 0 0 0 1.232H7.45a3.084 3.084 0 0 0 3.017 2.463 3.082 3.082 0 0 0 3.08-3.08A3.082 3.082 0 0 0 10.467 0zm0 4.926A1.85 1.85 0 0 1 8.621 3.08a1.85 1.85 0 0 1 1.847-1.847 1.85 1.85 0 0 1 1.848 1.847 1.85 1.85 0 0 1-1.848 1.847z"/></defs></svg>