<svg width="43" height="43" xmlns="http://www.w3.org/2000/svg" xmlns:xlink="http://www.w3.org/1999/xlink"><use xlink:href="#path0_fill" fill="#FFF"/><use xlink:href="#path1_fill" transform="translate(14.98 31.95)" fill="#8064FF"/><use xlink:href="#path2_fill" transform="translate(18.4 15.7)" fill="#8064FF"/><use xlink:href="#path3_fill" transform="translate(9 13.13)" fill="#8064FF"/><use xlink:href="#path4_fill" transform="translate(29.51 25.96)" fill="#8064FF"/><use xlink:href="#path5_fill" transform="translate(9 23.4)" fill="#8064FF"/><use xlink:href="#path6_fill" transform="translate(11.56 20.83)" fill="#8064FF"/><use xlink:href="#path7_fill" transform="translate(29.51 15.7)" fill="#8064FF"/><use xlink:href="#path8_fill" transform="translate(11.56 15.7)" fill="#8064FF"/><use xlink:href="#path9_fill" transform="translate(22.67 15.7)" fill="#8064FF"/><use xlink:href="#path10_fill" transform="translate(28.65 13.13)" fill="#8064FF"/><use xlink:href="#path11_fill" transform="translate(22.67 10.57)" fill="#8064FF"/><use xlink:href="#path12_fill" transform="translate(22.67 20.83)" fill="#8064FF"/><use xlink:href="#path13_fill" transform="translate(18.4 10.57)" fill="#8064FF"/><use xlink:href="#path14_fill" transform="translate(21.39 28.53)" fill="#8064FF"/><use xlink:href="#path15_fill" transform="translate(18.4 20.83)" fill="#8064FF"/><use xlink:href="#path16_fill" transform="translate(17.54 25.96)" fill="#8064FF"/><use xlink:href="#path17_fill" transform="translate(29.51 20.83)" fill="#8064FF"/><use xlink:href="#path18_fill" transform="translate(15.84 8)" fill="#8064FF"/><defs><path id="path0_fill" d="M43 21.5C43 33.374 33.374 43 21.5 43S0 33.374 0 21.5 9.626 0 21.5 0 43 9.626 43 21.5z"/><path id="path1_fill" d="M12.39 0H.427A.428.428 0 0 0 0 .428v.855a.428.428 0 1 0 .854 0V.855H12.39a.428.428 0 0 0 0-.855z"/><path id="path2_fill" d="M0 2.994c0 .236.191.427.427.427h1.71a.428.428 0 0 0 .426-.427V.428A.428.428 0 0 0 2.136 0H.427A.428.428 0 0 0 0 .428v2.566zM.854.855h.855v1.711H.854V.856z"/><path id="path3_fill" d="M5.554 0H.427A.428.428 0 0 0 0 .428V8.98a.428.428 0 1 0 .854 0V.855h4.7a.428.428 0 0 0 0-.855z"/><path id="path4_fill" d="M0 2.994c0 .236.191.427.427.427h1.71a.428.428 0 0 0 .426-.427V.428A.428.428 0 0 0 2.136 0H.427A.428.428 0 0 0 0 .428v2.566zM.854.855h.855v1.711H.854V.856z"/><path id="path5_fill" d="M2.136 0C.024 0 0 5.504 0 5.56c0 1.032.735 1.896 1.709 2.095v2.181a.428.428 0 1 0 .854 0V7.655a2.141 2.141 0 0 0 1.71-2.095c0-.056-.025-5.56-2.137-5.56zm0 6.843A1.284 1.284 0 0 1 .854 5.56c0-2.131.572-4.705 1.282-4.705.71 0 1.282 2.574 1.282 4.705 0 .707-.575 1.283-1.282 1.283z"/><path id="path6_fill" d="M2.136 0H.427A.428.428 0 0 0 0 .428v.855a.428.428 0 1 0 .854 0V.855h.855v2.139a.428.428 0 1 0 .854 0V.428A.428.428 0 0 0 2.136 0z"/><path id="path7_fill" d="M.427 3.421h1.71a.428.428 0 0 0 .426-.427V.428A.428.428 0 0 0 2.136 0H.427A.428.428 0 0 0 0 .428v2.566c0 .236.191.427.427.427zM.854.855h.855v1.711H.854V.856z"/><path id="path8_fill" d="M2.136 0H.427A.428.428 0 0 0 0 .428v2.566c0 .236.191.427.427.427h1.71a.428.428 0 0 0 .426-.427V.428A.428.428 0 0 0 2.136 0zM1.71 2.566H.854V.856h.855v1.71z"/><path id="path9_fill" d="M0 2.994c0 .236.191.427.427.427h1.71a.428.428 0 0 0 .426-.427V.428A.428.428 0 0 0 2.136 0H.427A.428.428 0 0 0 0 .428v2.566zM.854.855h.855v1.711H.854V.856z"/><path id="path10_fill" d="M5.554 0H.427a.428.428 0 0 0 0 .855h4.7v17.186a1.264 1.264 0 0 0-.647-.06 1.697 1.697 0 0 0-1.49-.874c-.633 0-1.194.343-1.489.874a1.284 1.284 0 1 0-.22 2.547H4.7c.706 0 1.281-.576 1.281-1.283V.428A.428.428 0 0 0 5.554 0zM4.7 19.673H1.282a.428.428 0 0 1 0-.856.42.42 0 0 1 .231.07.428.428 0 0 0 .648-.263.85.85 0 0 1 .83-.662.85.85 0 0 1 .83.662.426.426 0 0 0 .647.263c.278-.18.659.04.659.358a.428.428 0 0 1-.427.428z"/><path id="path11_fill" d="M.427 3.421h1.71a.428.428 0 0 0 .426-.427V.428A.428.428 0 0 0 2.136 0H.427A.428.428 0 0 0 0 .428v2.566c0 .236.191.427.427.427zM.854.855h.855v1.711H.854V.856z"/><path id="path12_fill" d="M0 2.994c0 .236.191.427.427.427h1.71a.428.428 0 0 0 .426-.427V.428A.428.428 0 0 0 2.136 0H.427A.428.428 0 0 0 0 .428v2.566zM.854.855h.855v1.711H.854V.856z"/><path id="path13_fill" d="M.427 3.421h1.71a.428.428 0 0 0 .426-.427V.428A.428.428 0 0 0 2.136 0H.427A.428.428 0 0 0 0 .428v2.566c0 .236.191.427.427.427zM.854.855h.855v1.711H.854V.856z"/><path id="path14_fill" d="M.124.119A.45.45 0 0 0 0 .422a.45.45 0 0 0 .124.304.449.449 0 0 0 .303.124.45.45 0 0 0 .304-.124.45.45 0 0 0 .124-.304A.45.45 0 0 0 .73.12a.447.447 0 0 0-.607 0z"/><path id="path15_fill" d="M0 2.994c0 .236.191.427.427.427h1.71a.428.428 0 0 0 .426-.427V.428A.428.428 0 0 0 2.136 0H.427A.428.428 0 0 0 0 .428v2.566zM.854.855h.855v1.711H.854V.856z"/><path id="path16_fill" d="M0 .428c0 .236.191.427.427.427H1.71v3.85a.428.428 0 1 0 .854 0V.854h3.418v3.85a.428.428 0 1 0 .855 0V.854h1.281a.428.428 0 0 0 0-.855H.427A.428.428 0 0 0 0 .428z"/><path id="path17_fill" d="M0 2.994c0 .236.191.427.427.427h1.71a.428.428 0 0 0 .426-.427V.428A.428.428 0 0 0 2.136 0H.427A.428.428 0 0 0 0 .428v2.566zM.854.855h.855v1.711H.854V.856z"/><path id="path18_fill" d="M11.535 0H.427A.428.428 0 0 0 0 .428v22.238a.428.428 0 1 0 .854 0V.856h10.254v21.81a.428.428 0 1 0 .854 0V.428A.427.427 0 0 0 11.535 0z"/></defs></svg>