<svg width="78" height="78" xmlns="http://www.w3.org/2000/svg" xmlns:xlink="http://www.w3.org/1999/xlink"><use xlink:href="#path0_fill" fill="#FFF"/><g transform="translate(15 14)"><use xlink:href="#path1_fill" fill="url(#paint1_linear)"/><use xlink:href="#path1_fill" fill="url(#paint2_linear)"/></g><g transform="translate(27.52 24.13)"><use xlink:href="#path2_fill" fill="url(#paint3_linear)"/><use xlink:href="#path2_fill" fill="url(#paint4_linear)"/></g><g transform="translate(25.13 29.47)"><use xlink:href="#path3_fill" fill="url(#paint5_linear)"/><use xlink:href="#path3_fill" fill="url(#paint6_linear)"/></g><g transform="translate(38.73 37.73)"><use xlink:href="#path4_fill" fill="url(#paint7_linear)"/><use xlink:href="#path4_fill" fill="url(#paint8_linear)"/></g><g transform="translate(47.03 46.03)"><use xlink:href="#path5_fill" fill="url(#paint9_linear)"/><use xlink:href="#path5_fill" fill="url(#paint10_linear)"/></g><g transform="translate(29.11 28.11)"><use xlink:href="#path6_fill" fill="url(#paint11_linear)"/><use xlink:href="#path6_fill" fill="url(#paint12_linear)"/></g><defs><linearGradient id="paint1_linear" x2="1" gradientUnits="userSpaceOnUse" gradientTransform="matrix(39.968 -53.3609 56.5071 389.877 -28.254 -150.933)"><stop offset="0" stop-color="#81D76D"/><stop offset=".142" stop-color="#80D66E"/><stop offset=".498" stop-color="#67B788"/><stop offset=".798" stop-color="#458CAB"/><stop offset=".989" stop-color="#2D6EC4"/></linearGradient><linearGradient id="paint2_linear" x2="1" gradientUnits="userSpaceOnUse" gradientTransform="matrix(37.8649 23.5846 -18.2295 414.578 17.476 -178.178)"><stop offset="0" stop-color="#B721FF"/><stop offset=".47" stop-color="#C850C0"/><stop offset="1" stop-color="#FFCC70"/></linearGradient><linearGradient id="paint3_linear" x2="1" gradientUnits="userSpaceOnUse" gradientTransform="matrix(15.9234 -18.5384 22.5126 135.45 -11.256 -52.436)"><stop offset="0" stop-color="#81D76D"/><stop offset=".142" stop-color="#80D66E"/><stop offset=".498" stop-color="#67B788"/><stop offset=".798" stop-color="#458CAB"/><stop offset=".989" stop-color="#2D6EC4"/></linearGradient><linearGradient id="paint4_linear" x2="1" gradientUnits="userSpaceOnUse" gradientTransform="matrix(15.0855 8.19367 -7.26267 144.031 6.962 -61.902)"><stop offset="0" stop-color="#B721FF"/><stop offset=".47" stop-color="#C850C0"/><stop offset="1" stop-color="#FFCC70"/></linearGradient><linearGradient id="paint5_linear" x2="1" gradientUnits="userSpaceOnUse" gradientTransform="matrix(14.9806 -17.0765 21.1797 124.768 -10.59 -48.301)"><stop offset="0" stop-color="#81D76D"/><stop offset=".142" stop-color="#80D66E"/><stop offset=".498" stop-color="#67B788"/><stop offset=".798" stop-color="#458CAB"/><stop offset=".989" stop-color="#2D6EC4"/></linearGradient><linearGradient id="paint6_linear" x2="1" gradientUnits="userSpaceOnUse" gradientTransform="matrix(14.1923 7.54753 -6.83266 132.673 6.55 -57.02)"><stop offset="0" stop-color="#B721FF"/><stop offset=".47" stop-color="#C850C0"/><stop offset="1" stop-color="#FFCC70"/></linearGradient><linearGradient id="paint7_linear" x2="1" gradientUnits="userSpaceOnUse" gradientTransform="matrix(26.8279 -35.8173 37.9295 261.696 -18.965 -101.31)"><stop offset="0" stop-color="#81D76D"/><stop offset=".142" stop-color="#80D66E"/><stop offset=".498" stop-color="#67B788"/><stop offset=".798" stop-color="#458CAB"/><stop offset=".989" stop-color="#2D6EC4"/></linearGradient><linearGradient id="paint8_linear" x2="1" gradientUnits="userSpaceOnUse" gradientTransform="matrix(25.4162 15.8306 -12.2362 278.276 11.73 -119.598)"><stop offset="0" stop-color="#B721FF"/><stop offset=".47" stop-color="#C850C0"/><stop offset="1" stop-color="#FFCC70"/></linearGradient><linearGradient id="paint9_linear" x2="1" gradientUnits="userSpaceOnUse" gradientTransform="matrix(9.19822 -12.2804 13.0045 89.7257 -6.502 -34.735)"><stop offset="0" stop-color="#81D76D"/><stop offset=".142" stop-color="#80D66E"/><stop offset=".498" stop-color="#67B788"/><stop offset=".798" stop-color="#458CAB"/><stop offset=".989" stop-color="#2D6EC4"/></linearGradient><linearGradient id="paint10_linear" x2="1" gradientUnits="userSpaceOnUse" gradientTransform="matrix(8.71421 5.42772 -4.19532 95.4102 4.022 -41.006)"><stop offset="0" stop-color="#B721FF"/><stop offset=".47" stop-color="#C850C0"/><stop offset="1" stop-color="#FFCC70"/></linearGradient><linearGradient id="paint11_linear" x2="1" gradientUnits="userSpaceOnUse" gradientTransform="matrix(10.0071 -13.3603 14.1481 97.6158 -7.074 -37.79)"><stop offset="0" stop-color="#81D76D"/><stop offset=".142" stop-color="#80D66E"/><stop offset=".498" stop-color="#67B788"/><stop offset=".798" stop-color="#458CAB"/><stop offset=".989" stop-color="#2D6EC4"/></linearGradient><linearGradient id="paint12_linear" x2="1" gradientUnits="userSpaceOnUse" gradientTransform="matrix(9.4805 5.905 -4.56423 103.8 4.376 -44.611)"><stop offset="0" stop-color="#B721FF"/><stop offset=".47" stop-color="#C850C0"/><stop offset="1" stop-color="#FFCC70"/></linearGradient><path id="path0_fill" d="M78 39c0 21.54-17.46 39-39 39S0 60.54 0 39 17.46 0 39 0s39 17.46 39 39z"/><path id="path1_fill" d="M25.15 30.358a.774.774 0 0 0-1.031-.367c-.628.297-1.287.544-1.957.731a.773.773 0 0 0-.55.594l-.819 4.092a.87.87 0 0 1-.85.697H17.71a.87.87 0 0 1-.85-.697l-.82-4.092a.774.774 0 0 0-.55-.594 12.297 12.297 0 0 1-2.716-1.125.774.774 0 0 0-.81.03l-3.472 2.315a.87.87 0 0 1-1.095-.108l-1.578-1.58a.87.87 0 0 1-.109-1.094l2.315-3.473a.773.773 0 0 0 .03-.809 12.29 12.29 0 0 1-1.125-2.717.773.773 0 0 0-.593-.55l-4.093-.818a.87.87 0 0 1-.697-.85V17.71a.87.87 0 0 1 .697-.851l4.093-.819a.774.774 0 0 0 .593-.55c.265-.947.644-1.861 1.126-2.717a.774.774 0 0 0-.03-.809L5.71 8.492a.87.87 0 0 1 .108-1.095l1.58-1.577a.87.87 0 0 1 1.094-.109l3.473 2.315a.774.774 0 0 0 .809.03c.856-.481 1.77-.86 2.717-1.125a.773.773 0 0 0 .55-.593l.819-4.093a.87.87 0 0 1 .85-.697h2.233a.87.87 0 0 1 .85.697l.819 4.092c.057.286.27.515.55.594.947.265 1.861.644 2.717 1.126a.774.774 0 0 0 .809-.03l3.473-2.316a.87.87 0 0 1 1.094.109l1.58 1.578a.87.87 0 0 1 .107 1.095l-2.315 3.473a.773.773 0 0 0-.03.809c.482.855.86 1.77 1.126 2.717.078.28.308.493.593.55l4.092.818a.87.87 0 0 1 .698.851v2.233a.87.87 0 0 1-.698.85l-4.092.819a.773.773 0 0 0-.593.55 12.313 12.313 0 0 1-.754 2.003.774.774 0 1 0 1.395.67c.278-.58.517-1.183.712-1.797l3.636-.727a2.422 2.422 0 0 0 1.94-2.369V17.71a2.421 2.421 0 0 0-1.94-2.368l-3.636-.727a13.963 13.963 0 0 0-.903-2.18L33.23 9.35a2.421 2.421 0 0 0-.302-3.047l-1.579-1.579a2.422 2.422 0 0 0-3.047-.301L25.217 6.48a13.856 13.856 0 0 0-2.18-.903l-.726-3.636A2.421 2.421 0 0 0 19.943 0H17.71a2.421 2.421 0 0 0-2.368 1.941l-.727 3.636c-.75.239-1.48.54-2.18.903L9.352 4.423a2.421 2.421 0 0 0-3.048.302L4.725 6.303a2.422 2.422 0 0 0-.302 3.048l2.057 3.085a13.848 13.848 0 0 0-.903 2.179l-3.636.727A2.421 2.421 0 0 0 0 17.71v2.233c0 1.147.816 2.143 1.941 2.368l3.636.727c.238.75.54 1.48.903 2.179l-2.057 3.085a2.421 2.421 0 0 0 .302 3.047l1.579 1.58a2.421 2.421 0 0 0 3.047.3l3.085-2.056c.698.362 1.428.664 2.179.903l.727 3.636a2.421 2.421 0 0 0 2.368 1.94h2.233a2.421 2.421 0 0 0 2.368-1.94l.727-3.636c.596-.19 1.181-.42 1.744-.687a.774.774 0 0 0 .367-1.031z"/><path id="path2_fill" d="M13.006 12.996a.773.773 0 0 0 1.041-.335 8.724 8.724 0 0 0 .954-3.964C15 3.9 11.1 0 6.304 0a8.65 8.65 0 0 0-6.07 2.47.774.774 0 0 0 1.08 1.107 7.111 7.111 0 0 1 4.99-2.03c3.942 0 7.15 3.208 7.15 7.15a7.073 7.073 0 0 1-.784 3.258.774.774 0 0 0 .336 1.04z"/><path id="path3_fill" d="M1.454.042a.774.774 0 0 0-.983.48A8.683 8.683 0 0 0 0 3.352c0 4.796 3.901 8.698 8.697 8.698 1.844 0 3.606-.57 5.096-1.65a.774.774 0 0 0-.908-1.252 7.097 7.097 0 0 1-4.188 1.354 7.157 7.157 0 0 1-6.763-9.477.773.773 0 0 0-.48-.983z"/><path id="path4_fill" d="M23.785 10.087l-2.237-.447a9.355 9.355 0 0 0-.491-1.185l1.266-1.898a1.857 1.857 0 0 0-.232-2.337l-1.037-1.038a1.857 1.857 0 0 0-2.337-.231l-1.899 1.266a9.344 9.344 0 0 0-1.184-.49l-.447-2.238A1.857 1.857 0 0 0 13.37 0h-1.468c-.88 0-1.643.626-1.816 1.489L9.64 3.726c-.406.136-.802.3-1.184.49L6.557 2.952a1.857 1.857 0 0 0-2.337.231L3.183 4.22a1.857 1.857 0 0 0-.232 2.337l1.266 1.898a9.35 9.35 0 0 0-.632 1.644.774.774 0 0 0 1.49.417c.168-.602.41-1.183.715-1.726a.774.774 0 0 0-.03-.81L4.24 5.7a.306.306 0 0 1 .038-.385l1.037-1.037A.306.306 0 0 1 5.7 4.24l2.282 1.52a.774.774 0 0 0 .809.031 7.809 7.809 0 0 1 1.727-.715.773.773 0 0 0 .55-.594l.537-2.689a.306.306 0 0 1 .3-.245h1.466c.145 0 .271.104.3.245l.537 2.69c.057.285.27.514.55.593.602.168 1.183.41 1.727.715a.774.774 0 0 0 .809-.03l2.282-1.521a.306.306 0 0 1 .385.038l1.037 1.037a.306.306 0 0 1 .038.385l-1.522 2.28a.773.773 0 0 0-.03.809c.306.544.546 1.124.715 1.727.078.28.307.493.593.55l2.69.537a.306.306 0 0 1 .244.3v1.466c0 .145-.103.27-.245.3l-2.689.537a.774.774 0 0 0-.593.55 7.812 7.812 0 0 1-.716 1.727.774.774 0 0 0 .03.809l1.522 2.282c.08.12.064.282-.038.385l-1.038 1.037a.306.306 0 0 1-.384.038l-2.282-1.521a.774.774 0 0 0-.81-.03 7.804 7.804 0 0 1-1.726.715.773.773 0 0 0-.55.593l-.538 2.69a.306.306 0 0 1-.299.244h-1.467a.306.306 0 0 1-.299-.245l-.537-2.689a.774.774 0 0 0-.55-.593 7.803 7.803 0 0 1-1.727-.716.774.774 0 0 0-.81.03L5.7 21.035a.306.306 0 0 1-.385-.038l-1.037-1.038a.306.306 0 0 1-.038-.384l1.52-2.282a.773.773 0 0 0 .031-.81 7.81 7.81 0 0 1-.715-1.726.773.773 0 0 0-.594-.55l-2.689-.538a.306.306 0 0 1-.245-.299v-1.467c0-.145.104-.27.245-.299l.165-.033a.774.774 0 1 0-.304-1.517l-.164.033A1.857 1.857 0 0 0 0 11.903v1.467c0 .88.626 1.644 1.489 1.817l2.237.447c.136.405.3.801.49 1.184l-1.265 1.899a1.857 1.857 0 0 0 .231 2.337L4.22 22.09c.622.622 1.605.72 2.337.232l1.898-1.266c.383.19.78.354 1.185.49l.447 2.238a1.858 1.858 0 0 0 1.816 1.489h1.468c.88 0 1.643-.627 1.816-1.49l.447-2.237c.406-.136.802-.3 1.184-.49l1.899 1.266c.732.488 1.715.39 2.337-.232l1.037-1.037c.623-.622.72-1.605.232-2.337l-1.266-1.899c.19-.383.354-.779.49-1.184l2.238-.447a1.857 1.857 0 0 0 1.489-1.817v-1.467c0-.88-.626-1.643-1.49-1.816z"/><path id="path5_fill" d="M4.333 1.547a2.788 2.788 0 0 1 2.785 2.786.774.774 0 0 0 1.547 0A4.338 4.338 0 0 0 4.333 0 4.338 4.338 0 0 0 0 4.333a4.338 4.338 0 0 0 4.333 4.332c.967 0 1.883-.312 2.647-.902a.774.774 0 0 0-.946-1.225c-.491.38-1.08.58-1.701.58a2.788 2.788 0 0 1-2.786-2.785 2.788 2.788 0 0 1 2.786-2.786z"/><path id="path6_fill" d="M9.427 4.714A4.72 4.72 0 0 0 4.714 0 4.72 4.72 0 0 0 0 4.714a4.719 4.719 0 0 0 4.714 4.713 4.72 4.72 0 0 0 4.713-4.713zm-7.88 0a3.17 3.17 0 0 1 3.167-3.167A3.17 3.17 0 0 1 7.88 4.714 3.17 3.17 0 0 1 4.714 7.88a3.17 3.17 0 0 1-3.167-3.166z"/></defs></svg>